<svg width="52" height="52" viewBox="0 0 52 52" fill="none" xmlns="http://www.w3.org/2000/svg">
<g clip-path="url(#clip0)">
<circle cx="34.2" cy="29.501" r="11.5" fill="white"/>
<path d="M25.0007 41.1621C34.5102 39.026 40.5889 29.1058 38.578 19.0047C36.567 8.90364 27.2279 2.44671 17.7184 4.58277C8.20895 6.71882 2.13019 16.639 4.14114 26.7401C6.15208 36.8412 15.4912 43.2981 25.0007 41.1621Z" fill="#A6EACA" stroke="#404145" stroke-width="1.5" stroke-miterlimit="10"/>
<path d="M24.5781 30.522L31.6397 38.0336" stroke="#404145" stroke-width="1.5" stroke-miterlimit="10"/>
<path d="M27.2175 25.8459L35.2361 34.3527" stroke="#404145" stroke-width="1.5" stroke-miterlimit="10"/>
<path d="M31.2471 22.625L37.7747 29.5695" stroke="#404145" stroke-width="1.5" stroke-miterlimit="10"/>
<path d="M41.2805 22.0366C46.3576 23.9413 50.0042 29.0774 50.0143 35.1338C50.0244 42.8166 44.1716 49.0442 36.9489 49.0549C32.5769 49.0656 28.7087 46.7971 26.3313 43.3088" stroke="#404145" stroke-width="1.5" stroke-miterlimit="10"/>
<path d="M25.1121 41.1367C24.2961 39.3284 23.8428 37.306 23.8428 35.166C23.8327 27.4832 29.6855 21.2556 36.9082 21.2449C37.5832 21.2449 38.248 21.2984 38.9028 21.4054" stroke="#404145" stroke-width="1.5" stroke-miterlimit="10"/>
</g>
<defs>
<clipPath id="clip0">
<rect width="50.5904" height="50.3078" fill="white" transform="translate(0.5 0.715088)"/>
</clipPath>
</defs>
</svg>
