<svg width="53" height="56" viewBox="0 0 53 56" fill="none" xmlns="http://www.w3.org/2000/svg">
<path d="M2.2666 1H31.4111L36.3601 8.0093V52.4015H2.2666V1Z" fill="white"/>
<path d="M15.4641 52.4016H16.5639C19.0384 52.4016 17.4767 53.5698 20.9631 53.5698C21.6559 53.5698 30.8612 53.5698 30.8612 53.5698" stroke="#404145" stroke-width="1.5" stroke-miterlimit="10"/>
<path d="M37.4599 36.0464H34.1605C32.9507 36.0464 31.9609 37.0978 31.9609 38.3828C31.9609 39.6679 32.9507 40.7193 34.1605 40.7193H37.4599C38.6697 40.7193 39.6595 39.6679 39.6595 38.3828C39.6595 37.0861 38.6697 36.0464 37.4599 36.0464Z" stroke="#404145" stroke-width="1.5" stroke-miterlimit="10"/>
<path d="M39.6595 45.3923V47.7288C39.6595 49.0138 38.6697 50.0652 37.4599 50.0652H34.1605C32.9507 50.0652 31.9609 49.0138 31.9609 47.7288C31.9609 46.4437 32.9507 45.3923 34.1605 45.3923H35.2603" stroke="#404145" stroke-width="1.5" stroke-miterlimit="10"/>
<path d="M37.4598 50.0652V52.4016C37.4598 53.6867 36.47 54.738 35.2603 54.738H33.0607C31.8509 54.738 30.8611 53.6867 30.8611 52.4016C30.8611 51.1166 31.8509 50.0652 33.0607 50.0652H34.1605" stroke="#404145" stroke-width="1.5" stroke-miterlimit="10"/>
<path d="M15.464 33.71H8.86523V53.5696H15.464V33.71Z" fill="#A6EACA" stroke="#404145" stroke-width="1.5" stroke-miterlimit="10"/>
<path d="M34.1606 40.7192H35.2604C34.0506 40.7192 33.0608 41.7706 33.0608 43.0557C33.0608 44.3407 34.0506 45.3921 35.2604 45.3921H38.5597C39.7695 45.3921 40.7593 44.3407 40.7593 43.0557C40.7593 41.7706 39.7695 40.7192 38.5597 40.7192H37.46" stroke="#404145" stroke-width="1.5" stroke-miterlimit="10"/>
<path d="M22.3818 45.8827C26.0441 44.4225 27.5618 41.1282 28.6616 37.2147C28.6616 37.2147 28.6616 34.224 28.6616 33.71C28.6616 33.1142 29.1785 31.9927 29.1785 29.3292C29.1785 26.6306 28.5736 25.6259 27.4958 24.1423C26.396 22.6353 24.2624 22.9157 24.2624 24.3643V25.5325C24.2624 28.7801 23.1516 31.1516 21.128 33.5815L17.6637 36.0465H15.4641" stroke="#404145" stroke-width="1.5" stroke-miterlimit="10"/>
<path d="M9.96509 12.6821H27.5618" stroke="#404145" stroke-width="1.5" stroke-miterlimit="10"/>
<path d="M9.96509 17.355H27.5618" stroke="#404145" stroke-width="1.5" stroke-miterlimit="10"/>
<path d="M9.96509 22.0278H18.7634" stroke="#404145" stroke-width="1.5" stroke-miterlimit="10"/>
<path d="M5.56591 52.4015H1.16675V1H30.8611L36.3601 6.84108V32.5418" stroke="#404145" stroke-width="1.5" stroke-miterlimit="10"/>
<path d="M29.7612 3.33643V8.00929H34.1604" stroke="#404145" stroke-width="1.5" stroke-miterlimit="10"/>
<path d="M44.0586 10.3914V12.7278" stroke="#404145" stroke-width="1.5" stroke-miterlimit="10" stroke-linejoin="round"/>
<path d="M44.0586 15.0642V17.4006" stroke="#404145" stroke-width="1.5" stroke-miterlimit="10" stroke-linejoin="round"/>
<path d="M42.9589 13.896H40.7593" stroke="#404145" stroke-width="1.5" stroke-miterlimit="10" stroke-linejoin="round"/>
<path d="M47.358 13.896H45.1584" stroke="#404145" stroke-width="1.5" stroke-miterlimit="10" stroke-linejoin="round"/>
<path d="M51.7572 23.2417L49.5576 25.5781" stroke="#404145" stroke-width="1.5" stroke-miterlimit="10" stroke-linejoin="round"/>
<path d="M46.2582 29.0828L44.0586 31.4192" stroke="#404145" stroke-width="1.5" stroke-miterlimit="10" stroke-linejoin="round"/>
<path d="M46.2582 25.5781L44.0586 23.2417" stroke="#404145" stroke-width="1.5" stroke-miterlimit="10" stroke-linejoin="round"/>
<path d="M51.7572 31.4192L49.5576 29.0828" stroke="#404145" stroke-width="1.5" stroke-miterlimit="10" stroke-linejoin="round"/>
</svg>
