<svg width="135" height="54" viewBox="0 0 135 54" fill="none" xmlns="http://www.w3.org/2000/svg">
<rect width="134.607" height="54" rx="8" fill="#404145"/>
<path fill-rule="evenodd" clip-rule="evenodd" d="M12.2493 11.3008C11.0071 11.3008 10 12.4368 10 13.8436V40.1563C10 41.5607 11.0059 42.6992 12.2493 42.6992H23.4499C24.6922 42.6992 25.6992 41.5632 25.6992 40.1563V13.8436C25.6992 12.4393 24.6933 11.3008 23.4499 11.3008H12.2493V11.3008ZM11.472 15.4186V38.5814H24.2276V15.4186H11.472V15.4186ZM17.8484 41.6702C18.3903 41.6702 18.8296 41.2093 18.8296 40.6408C18.8296 40.0722 18.3903 39.6113 17.8484 39.6113C17.3065 39.6113 16.8672 40.0722 16.8672 40.6408C16.8672 41.2093 17.3065 41.6702 17.8484 41.6702V41.6702ZM15.8869 13.3599C15.8869 13.6441 16.0555 13.8745 16.2775 13.8745H19.421C19.6367 13.8745 19.8116 13.6358 19.8116 13.3599C19.8116 13.0756 19.643 12.8452 19.421 12.8452H16.2775C16.0618 12.8452 15.8869 13.0839 15.8869 13.3599Z" fill="white"/>
<path d="M42.3232 16.615L39.6232 10.135H38.4262L35.6992 16.615H36.9142L37.6882 14.707H40.3432L41.1082 16.615H42.3232ZM39.0202 11.386L39.9922 13.825H38.0392L39.0202 11.386Z" fill="white"/>
<path d="M44.8163 15.283L43.0613 10.135H41.8643L44.1503 16.615H45.4283L47.7413 10.135H46.5443L44.8163 15.283Z" fill="white"/>
<path d="M53.9062 16.615L51.2062 10.135H50.0092L47.2822 16.615H48.4972L49.2712 14.707H51.9262L52.6912 16.615H53.9062ZM50.6032 11.386L51.5752 13.825H49.6222L50.6032 11.386Z" fill="white"/>
<path d="M54.8733 16.615H55.9713V10.135H54.8733V16.615Z" fill="white"/>
<path d="M57.4875 16.615H61.5645V15.607H58.5855V10.135H57.4875V16.615Z" fill="white"/>
<path d="M68.9736 16.615L66.2736 10.135H65.0766L62.3496 16.615H63.5646L64.3386 14.707H66.9936L67.7586 16.615H68.9736ZM65.6706 11.386L66.6426 13.825H64.6896L65.6706 11.386Z" fill="white"/>
<path d="M73.6937 13.132C74.2247 12.907 74.5937 12.466 74.5937 11.764C74.5937 10.54 73.6397 10.135 72.4877 10.135H69.9407V16.615H72.3977C73.8287 16.615 74.7107 15.94 74.7107 14.725C74.7107 13.906 74.2967 13.312 73.6937 13.132ZM72.4877 11.044C73.0367 11.044 73.4957 11.269 73.4957 11.872C73.4957 12.448 73.0907 12.727 72.4877 12.727H71.0387V11.044H72.4877ZM71.0387 15.67V13.627H72.3887C73.0007 13.627 73.5767 13.879 73.5767 14.626C73.5767 15.301 73.0997 15.67 72.3617 15.67H71.0387Z" fill="white"/>
<path d="M76.0003 16.615H80.0773V15.607H77.0983V10.135H76.0003V16.615Z" fill="white"/>
<path d="M81.093 16.615H85.368V15.67H82.191V13.744H84.495V12.835H82.191V11.08H85.296V10.135H81.093V16.615Z" fill="white"/>
<path d="M95.6804 13.375C95.6804 11.314 94.3034 10 92.4044 10C90.4874 10 89.1284 11.323 89.1284 13.375C89.1284 15.427 90.4874 16.75 92.4044 16.75C94.3034 16.75 95.6804 15.436 95.6804 13.375ZM90.2624 13.375C90.2624 11.953 91.1084 11.008 92.4044 11.008C93.7004 11.008 94.5464 11.953 94.5464 13.375C94.5464 14.797 93.7004 15.742 92.4044 15.742C91.1084 15.742 90.2624 14.797 90.2624 13.375Z" fill="white"/>
<path d="M101.488 14.941L98.0771 10.135H96.9251V16.615H97.9691V11.809L101.38 16.615H102.532V10.135H101.488V14.941Z" fill="white"/>
<path d="M111.447 10.135H106.443V11.143H108.387V16.615H109.494V11.143H111.447V10.135Z" fill="white"/>
<path d="M116.706 13.681V16.615H117.813V10.135H116.706V12.673H113.565V10.135H112.467V16.615H113.565V13.681H116.706Z" fill="white"/>
<path d="M119.326 16.615H123.601V15.67H120.424V13.744H122.728V12.835H120.424V11.08H123.529V10.135H119.326V16.615Z" fill="white"/>
<path d="M49.4367 37.2572L43.5548 23.0461H41.66L35.6992 37.2572H37.6138L39.4889 32.6781H45.6865L47.5221 37.2572H49.4367ZM42.6074 25.0396L45.1141 31.257H40.0613L42.6074 25.0396Z" fill="white"/>
<path d="M55.9694 26.737C54.2325 26.737 53.1075 27.8818 52.6732 28.849V27.0331H50.956V41.3035H52.6732V35.698C53.3048 36.7046 54.5286 37.5533 55.9694 37.5533C58.5551 37.5533 60.5683 35.6585 60.5683 32.1649C60.5683 28.7898 58.5551 26.737 55.9694 26.737ZM55.8115 36.0532C54.0943 36.0532 52.693 34.6913 52.693 32.2044C52.693 29.7569 54.0943 28.2174 55.8115 28.2174C57.5484 28.2174 58.8314 29.7174 58.8314 32.2241C58.8314 34.7308 57.5484 36.0532 55.8115 36.0532Z" fill="white"/>
<path d="M67.5785 26.737C65.8415 26.737 64.7165 27.8818 64.2823 28.849V27.0331H62.5651V41.3035H64.2823V35.698C64.9139 36.7046 66.1376 37.5533 67.5785 37.5533C70.1641 37.5533 72.1774 35.6585 72.1774 32.1649C72.1774 28.7898 70.1641 26.737 67.5785 26.737ZM67.4206 36.0532C65.7034 36.0532 64.302 34.6913 64.302 32.2044C64.302 29.7569 65.7034 28.2174 67.4206 28.2174C69.1575 28.2174 70.4404 29.7174 70.4404 32.2241C70.4404 34.7308 69.1575 36.0532 67.4206 36.0532Z" fill="white"/>
<path d="M88.4834 26.9541C88.365 24.033 86.2728 22.75 83.7266 22.75C81.516 22.75 79.1869 24.1119 79.1869 26.7568C79.1869 29.0463 80.7659 30.2306 83.8647 30.9412C85.8583 31.3951 86.6675 32.3425 86.6675 33.6847C86.6675 35.2637 85.2069 36.0927 83.7463 36.0927C81.9897 36.0927 80.5093 35.0466 80.4699 32.836H78.6935C78.7724 36.0927 80.983 37.5533 83.7463 37.5533C86.0754 37.5533 88.4834 36.369 88.4834 33.586C88.4834 31.1583 86.8846 29.8161 84.3582 29.2832C82.2857 28.8292 81.0028 28.1779 81.0028 26.6778C81.0028 25.1185 82.3844 24.2501 83.7463 24.2501C85.4438 24.2501 86.6478 25.1383 86.707 26.9541H88.4834Z" fill="white"/>
<path d="M94.8533 35.8953C93.8664 35.8953 93.1558 35.4216 93.1558 34.1584V28.4345H95.781V27.0331H93.1558V23.579L91.4387 24.4672V27.0331H89.4254V28.4345H91.4387V34.1979C91.4387 36.5664 92.8006 37.3559 94.6164 37.3559C95.1099 37.3559 95.6625 37.277 96.0968 37.1388V35.7177C95.7217 35.8361 95.1691 35.8953 94.8533 35.8953Z" fill="white"/>
<path d="M96.7678 32.1452C96.7678 35.6585 99.0377 37.5533 101.702 37.5533C104.367 37.5533 106.617 35.6585 106.617 32.1452C106.617 28.6516 104.367 26.737 101.702 26.737C99.0377 26.737 96.7678 28.6516 96.7678 32.1452ZM98.485 32.1452C98.485 29.52 100.084 28.2371 101.702 28.2371C103.36 28.2371 104.9 29.52 104.9 32.1452C104.9 34.79 103.36 36.073 101.702 36.073C100.084 36.073 98.485 34.79 98.485 32.1452Z" fill="white"/>
<path d="M113.121 26.9344C111.72 26.9344 110.792 27.9016 110.338 28.9477V27.0331H108.621V37.2572H110.338V32.1057C110.338 29.9345 111.542 28.6516 113.082 28.6516C113.556 28.6516 113.931 28.7305 114.286 28.8292V27.112C113.97 27.0134 113.654 26.9344 113.121 26.9344Z" fill="white"/>
<path d="M120.008 26.737C116.988 26.737 114.974 28.9279 114.974 32.2044C114.974 35.3427 116.988 37.5533 119.968 37.5533C122.139 37.5533 123.995 36.5467 124.429 34.1782H122.692C122.376 35.4808 121.29 36.1322 119.948 36.1322C118.014 36.1322 116.672 34.5729 116.632 32.2833H124.567C124.606 32.086 124.606 31.9478 124.606 31.7504C124.626 28.7108 122.751 26.737 120.008 26.737ZM116.751 31.0004C117.126 29.0661 118.428 28.1187 120.047 28.1187C121.527 28.1187 122.672 29.1845 122.771 31.0004H116.751Z" fill="white"/>
</svg>
