<svg width="55" height="57" viewBox="0 0 55 57" fill="none" xmlns="http://www.w3.org/2000/svg">
<path d="M42.6724 21.8399C42.6724 33.3474 33.3437 42.6761 21.8362 42.6761C10.3287 42.6761 1 33.3474 1 21.8399C1 10.3323 10.3287 1.00366 21.8362 1.00366C33.3437 1.00366 42.6724 10.3323 42.6724 21.8399Z" fill="#E4E5E7" stroke="#E4E5E7"/>
<path d="M45.0693 9.03818H18.5176L10.9314 16.6244V53.6072C10.9314 54.6503 11.7848 55.5037 12.8279 55.5037H45.0693C46.1124 55.5037 46.9659 54.6503 46.9659 53.6072V10.9347C46.9659 9.89163 46.1124 9.03818 45.0693 9.03818Z" fill="white"/>
<path d="M10.9314 17.5727H19.4659V9.03818L10.9314 17.5727Z" fill="#FFD3E2"/>
<path d="M46.9659 13.7796V10.9347C46.9659 9.89163 46.1124 9.03818 45.0693 9.03818H18.5176L10.9314 16.6244V53.6072C10.9314 54.6503 11.7848 55.5037 12.8279 55.5037H45.0693C46.1124 55.5037 46.9659 54.6503 46.9659 53.6072V45.0727" stroke="#404145" stroke-width="2" stroke-miterlimit="10"/>
<path d="M13.7761 17.5727H19.4658V11.883" stroke="#404145" stroke-width="2" stroke-miterlimit="10"/>
<path d="M48.1981 22.314L29.7067 40.8054C28.6636 41.8485 28.6636 43.5554 29.7067 44.5985C30.7498 45.6416 32.4567 45.6416 33.4998 44.5985L51.9912 26.1071C54.0774 24.0209 54.0774 20.6071 51.9912 18.5209C49.905 16.4347 46.4912 16.4347 44.405 18.5209L25.9136 37.0123C22.7843 40.1416 22.7843 45.2623 25.9136 48.3916C29.0429 51.5209 34.1636 51.5209 37.2929 48.3916L51.9912 33.6933" stroke="#404145" stroke-width="2" stroke-miterlimit="10"/>
</svg>
