<svg width="56" height="55" viewBox="0 0 56 55" fill="none" xmlns="http://www.w3.org/2000/svg">
<path d="M47.8867 19.25H53.3867C53.9367 19.25 54.3034 19.6167 54.3034 20.1667V51.3333C54.3034 51.8833 53.9367 52.25 53.3867 52.25H15.8034C15.2534 52.25 14.8867 51.8833 14.8867 51.3333V20.1667C14.8867 19.6167 15.2534 19.25 15.8034 19.25H21.3034" fill="white"/>
<path d="M47.8867 19.25H53.3867C53.9367 19.25 54.3034 19.6167 54.3034 20.1667V51.3333C54.3034 51.8833 53.9367 52.25 53.3867 52.25H15.8034C15.2534 52.25 14.8867 51.8833 14.8867 51.3333V20.1667C14.8867 19.6167 15.2534 19.25 15.8034 19.25H21.3034" stroke="#404145" stroke-width="2" stroke-miterlimit="10" stroke-linejoin="round"/>
<path d="M50.6366 37.5834L47.8866 34.8334L39.6366 43.0834L35.97 39.4167L33.22 42.1667L39.6366 48.5834L50.6366 37.5834Z" fill="#A6EACA" stroke="#404145" stroke-width="2" stroke-miterlimit="10"/>
<path d="M47.8867 19.25H53.3867C53.9367 19.25 54.3034 19.3315 54.3034 19.4537V26.3796C54.3034 26.5019 53.9367 26.5833 53.3867 26.5833H15.8034C15.2534 26.5833 14.8867 26.5019 14.8867 26.3796V19.4537C14.8867 19.3315 15.2534 19.25 15.8034 19.25H21.3034" fill="#A6EACA"/>
<path d="M47.8867 19.25H53.3867C53.9367 19.25 54.3034 19.3315 54.3034 19.4537V26.3796C54.3034 26.5019 53.9367 26.5833 53.3867 26.5833H15.8034C15.2534 26.5833 14.8867 26.5019 14.8867 26.3796V19.4537C14.8867 19.3315 15.2534 19.25 15.8034 19.25H21.3034" stroke="#404145" stroke-width="2" stroke-miterlimit="10" stroke-linejoin="round"/>
<path d="M46.0535 15.5834V22" stroke="#404145" stroke-width="2" stroke-miterlimit="10" stroke-linejoin="round"/>
<path d="M24.97 19.25H44.22" stroke="#404145" stroke-width="2" stroke-miterlimit="10" stroke-linejoin="round"/>
<path d="M23.1367 15.5834V22" stroke="#404145" stroke-width="2" stroke-miterlimit="10" stroke-linejoin="round"/>
<path d="M25.8867 32.0834H29.5534" stroke="#404145" stroke-width="2" stroke-miterlimit="10"/>
<path d="M32.3035 32.0834H36.8868" stroke="#404145" stroke-width="2" stroke-miterlimit="10"/>
<path d="M39.6367 32.0834H43.3034" stroke="#404145" stroke-width="2" stroke-miterlimit="10"/>
<path d="M18.5535 32.0834H23.1368" stroke="#404145" stroke-width="2" stroke-miterlimit="10"/>
<path d="M25.8867 36.6667H29.5534" stroke="#404145" stroke-width="2" stroke-miterlimit="10"/>
<path d="M18.5535 36.6667H23.1368" stroke="#404145" stroke-width="2" stroke-miterlimit="10"/>
<path d="M25.8867 41.25H29.5534" stroke="#404145" stroke-width="2" stroke-miterlimit="10"/>
<path d="M18.5535 41.25H23.1368" stroke="#404145" stroke-width="2" stroke-miterlimit="10"/>
<path d="M25.8867 45.8334H29.5534" stroke="#404145" stroke-width="2" stroke-miterlimit="10"/>
<path d="M6.63647 21.0834V22.9167" stroke="#C5C6C9" stroke-width="2" stroke-miterlimit="10"/>
<path d="M6.63647 24.75V26.5833" stroke="#C5C6C9" stroke-width="2" stroke-miterlimit="10"/>
<path d="M5.71981 23.8334H3.88647" stroke="#C5C6C9" stroke-width="2" stroke-miterlimit="10"/>
<path d="M9.38656 23.8334H7.55322" stroke="#C5C6C9" stroke-width="2" stroke-miterlimit="10"/>
<path d="M14.8865 3.6665V7.33317" stroke="#C5C6C9" stroke-width="2" stroke-miterlimit="10"/>
<path d="M14.8865 10.9999V14.6665" stroke="#C5C6C9" stroke-width="2" stroke-miterlimit="10"/>
<path d="M13.0531 9.1665H9.38647" stroke="#C5C6C9" stroke-width="2" stroke-miterlimit="10"/>
<path d="M20.3864 9.1665H16.7197" stroke="#C5C6C9" stroke-width="2" stroke-miterlimit="10"/>
</svg>
