<svg width="217" height="42" viewBox="0 0 217 42" fill="none" xmlns="http://www.w3.org/2000/svg">
<rect width="216.794" height="42" rx="4" fill="#1DBF73"/>
<rect width="216.794" height="42" rx="4" fill="#00732E"/>
<g clip-path="url(#clip0_670:69420)">
<path d="M34 29.3333C38.6023 29.3333 42.3333 25.6023 42.3333 21C42.3333 16.3976 38.6023 12.6666 34 12.6666C29.3976 12.6666 25.6666 16.3976 25.6666 21C25.6666 25.6023 29.3976 29.3333 34 29.3333Z" stroke="white" stroke-width="1.2" stroke-linecap="round" stroke-linejoin="round"/>
<path d="M41.6417 17.6666H34" stroke="white" stroke-width="1.2" stroke-linecap="round" stroke-linejoin="round"/>
<path d="M34 24.3333C35.8409 24.3333 37.3333 22.8409 37.3333 21C37.3333 19.159 35.8409 17.6666 34 17.6666C32.159 17.6666 30.6666 19.159 30.6666 21C30.6666 22.8409 32.159 24.3333 34 24.3333Z" stroke="white" stroke-width="1.2" stroke-linecap="round" stroke-linejoin="round"/>
<path d="M33.0667 29.2833L36.8833 22.6666" stroke="white" stroke-width="1.2" stroke-linecap="round" stroke-linejoin="round"/>
<path d="M27.2916 16.05L31.1166 22.6667" stroke="white" stroke-width="1.2" stroke-linecap="round" stroke-linejoin="round"/>
<path d="M62.624 19.064C62.4 16.568 60.112 15.08 57.6 15.08C54.24 15.08 52 17.704 52 21.112C52 24.536 54.048 27.08 57.568 27.08C60.176 27.08 62.416 25.496 62.672 22.824H60.64C60.448 24.296 59.248 25.24 57.568 25.24C55.328 25.24 54.016 23.368 54.016 21.112C54.016 18.856 55.264 16.92 57.6 16.92C59.04 16.92 60.32 17.704 60.592 19.064H62.624Z" fill="white"/>
<path d="M69.2115 18.216C67.6595 18.216 66.7795 19.048 66.4275 19.608V14.92H64.4915V26.84H66.4275V22.2C66.4275 20.952 67.3235 19.912 68.5395 19.912C69.5315 19.912 70.1075 20.696 70.1075 21.688V26.84H72.0435V21.272C72.0435 19.592 71.0035 18.216 69.2115 18.216Z" fill="white"/>
<path d="M78.3699 18.376C77.2819 18.376 76.4979 19.128 76.1619 19.944V18.456H74.2259V26.84H76.1619V22.856C76.1619 21.128 77.1539 20.296 78.3219 20.296C78.7219 20.296 78.9939 20.36 79.2979 20.44V18.536C79.0259 18.44 78.7859 18.376 78.3699 18.376Z" fill="white"/>
<path d="M80.2325 22.664C80.2325 25.496 82.1365 27.08 84.4245 27.08C86.7285 27.08 88.6005 25.496 88.6005 22.664C88.6005 19.832 86.7285 18.216 84.4245 18.216C82.1365 18.216 80.2325 19.832 80.2325 22.664ZM82.1845 22.664C82.1845 20.776 83.2725 19.896 84.4245 19.896C85.5925 19.896 86.6485 20.776 86.6485 22.664C86.6485 24.552 85.5925 25.416 84.4245 25.416C83.2725 25.416 82.1845 24.552 82.1845 22.664Z" fill="white"/>
<path d="M99.8381 18.216C98.3501 18.216 97.4061 19.016 97.0061 19.864C96.7981 18.936 96.0461 18.216 94.9901 18.216C93.6301 18.216 92.7181 19.016 92.3181 19.704V18.456H90.3821V26.84H92.3181V22.232C92.3181 20.728 93.1661 19.928 94.0781 19.928C94.9101 19.928 95.4861 20.584 95.4861 21.544V26.84H97.4221V22.232C97.4221 20.76 98.2221 19.928 99.2141 19.928C100.046 19.928 100.606 20.504 100.606 21.544V26.84H102.542V20.952C102.542 19.208 101.518 18.216 99.8381 18.216Z" fill="white"/>
<path d="M108.471 18.216C106.087 18.216 104.295 19.976 104.295 22.664C104.295 25.368 106.103 27.08 108.487 27.08C110.407 27.08 111.927 26.232 112.311 24.232H110.343C110.119 25.08 109.415 25.528 108.487 25.528C107.255 25.528 106.295 24.552 106.183 22.984H112.391C112.423 22.792 112.423 22.648 112.423 22.472C112.439 19.832 110.823 18.216 108.471 18.216ZM106.279 21.592C106.583 20.344 107.447 19.752 108.519 19.752C109.527 19.752 110.295 20.424 110.359 21.592H106.279Z" fill="white"/>
<path d="M122.815 18.216C120.431 18.216 118.639 19.976 118.639 22.664C118.639 25.368 120.447 27.08 122.831 27.08C124.751 27.08 126.271 26.232 126.655 24.232H124.687C124.463 25.08 123.759 25.528 122.831 25.528C121.599 25.528 120.639 24.552 120.527 22.984H126.735C126.767 22.792 126.767 22.648 126.767 22.472C126.783 19.832 125.167 18.216 122.815 18.216ZM120.623 21.592C120.927 20.344 121.791 19.752 122.863 19.752C123.871 19.752 124.639 20.424 124.703 21.592H120.623Z" fill="white"/>
<path d="M132.612 22.552L135.556 18.456H133.38L131.524 21.032L129.668 18.456H127.492L130.436 22.552L127.348 26.84H129.556L131.524 24.088L133.492 26.84H135.7L132.612 22.552Z" fill="white"/>
<path d="M141.416 25.32C140.664 25.32 140.136 24.952 140.136 24.056V19.992H142.2V18.456H140.136V15.672L138.2 16.648V18.456H136.568V19.992H138.2V24.056C138.2 26.216 139.384 26.92 141.08 26.92C141.56 26.92 142.008 26.84 142.408 26.728V25.176C142.088 25.272 141.64 25.32 141.416 25.32Z" fill="white"/>
<path d="M147.471 18.216C145.087 18.216 143.295 19.976 143.295 22.664C143.295 25.368 145.103 27.08 147.487 27.08C149.407 27.08 150.927 26.232 151.311 24.232H149.343C149.119 25.08 148.415 25.528 147.487 25.528C146.255 25.528 145.295 24.552 145.183 22.984H151.391C151.423 22.792 151.423 22.648 151.423 22.472C151.439 19.832 149.823 18.216 147.471 18.216ZM145.279 21.592C145.583 20.344 146.447 19.752 147.519 19.752C148.527 19.752 149.295 20.424 149.359 21.592H145.279Z" fill="white"/>
<path d="M157.93 18.216C156.378 18.216 155.498 19.048 155.146 19.608V18.456H153.21V26.84H155.146V22.2C155.146 20.952 156.042 19.912 157.258 19.912C158.25 19.912 158.826 20.696 158.826 21.688V26.84H160.762V21.272C160.762 19.592 159.722 18.216 157.93 18.216Z" fill="white"/>
<path d="M162.483 24.056C162.531 26.264 164.386 27.08 166.146 27.08C167.747 27.08 169.507 26.408 169.507 24.44C169.507 23.144 168.627 22.152 166.803 21.832C165.603 21.624 164.739 21.352 164.739 20.696C164.739 20.024 165.459 19.72 166.115 19.72C166.979 19.72 167.635 20.264 167.651 21.016H169.539C169.491 19.032 167.651 18.232 166.067 18.232C164.579 18.232 162.819 19.016 162.819 20.808C162.819 22.52 164.275 23.064 166.083 23.4C166.963 23.56 167.587 23.896 167.587 24.584C167.587 25.272 166.947 25.592 166.163 25.592C165.171 25.592 164.435 25 164.419 24.056H162.483Z" fill="white"/>
<path d="M172.375 17.352C172.983 17.352 173.447 16.888 173.447 16.264C173.447 15.704 172.983 15.24 172.375 15.24C171.687 15.24 171.239 15.704 171.239 16.264C171.239 16.888 171.687 17.352 172.375 17.352ZM173.303 26.84V18.456H171.367V26.84H173.303Z" fill="white"/>
<path d="M175.092 22.664C175.092 25.496 176.996 27.08 179.284 27.08C181.588 27.08 183.46 25.496 183.46 22.664C183.46 19.832 181.588 18.216 179.284 18.216C176.996 18.216 175.092 19.832 175.092 22.664ZM177.044 22.664C177.044 20.776 178.132 19.896 179.284 19.896C180.452 19.896 181.508 20.776 181.508 22.664C181.508 24.552 180.452 25.416 179.284 25.416C178.132 25.416 177.044 24.552 177.044 22.664Z" fill="white"/>
<path d="M189.962 18.216C188.41 18.216 187.53 19.048 187.178 19.608V18.456H185.242V26.84H187.178V22.2C187.178 20.952 188.074 19.912 189.29 19.912C190.282 19.912 190.857 20.696 190.857 21.688V26.84H192.794V21.272C192.794 19.592 191.754 18.216 189.962 18.216Z" fill="white"/>
</g>
<defs>
<clipPath id="clip0_670:69420">
<rect width="168.794" height="20" fill="white" transform="translate(24 11)"/>
</clipPath>
</defs>
</svg>
