<svg width="53" height="57" viewBox="0 0 53 57" fill="none" xmlns="http://www.w3.org/2000/svg">
<path d="M34.673 56.5C44.4542 56.5 52.3833 48.5708 52.3833 38.7896C52.3833 29.0085 44.4542 21.0793 34.673 21.0793C24.8918 21.0793 16.9626 29.0085 16.9626 38.7896C16.9626 48.5708 24.8918 56.5 34.673 56.5Z" fill="#E4E5E7"/>
<path d="M16.9626 54.0081C24.8269 54.0081 31.2021 47.6328 31.2021 39.7686C31.2021 31.9043 24.8269 25.5291 16.9626 25.5291C9.09838 25.5291 2.72314 31.9043 2.72314 39.7686C2.72314 47.6328 9.09838 54.0081 16.9626 54.0081Z" fill="white"/>
<path d="M37.4319 41.5485C45.2961 41.5485 51.6713 35.1733 51.6713 27.3091C51.6713 19.4448 45.2961 13.0696 37.4319 13.0696C29.5676 13.0696 23.1924 19.4448 23.1924 27.3091C23.1924 35.1733 29.5676 41.5485 37.4319 41.5485Z" fill="#FFD3E2"/>
<path d="M16.0727 29.979C23.937 29.979 30.3122 23.6037 30.3122 15.7395C30.3122 7.87523 23.937 1.5 16.0727 1.5C8.20848 1.5 1.83325 7.87523 1.83325 15.7395C1.83325 23.6037 8.20848 29.979 16.0727 29.979Z" fill="#E4E5E7"/>
<path d="M19.6326 35.3188H17.5857C14.7378 35.3188 13.4028 36.2978 13.4028 39.7686V40.6586C13.4028 44.1295 14.6488 45.1084 17.5857 45.1084H19.6326" stroke="#404145" stroke-width="1.8" stroke-miterlimit="10" stroke-linecap="round" stroke-linejoin="round"/>
<path d="M11.6228 38.8787H16.9626" stroke="#404145" stroke-width="1.8" stroke-miterlimit="10" stroke-linecap="round" stroke-linejoin="round"/>
<path d="M11.6228 41.5485H16.9626" stroke="#404145" stroke-width="1.8" stroke-miterlimit="10" stroke-linecap="round" stroke-linejoin="round"/>
<path d="M34.762 21.9692L37.4319 27.309" stroke="#404145" stroke-width="1.8" stroke-miterlimit="10" stroke-linecap="round" stroke-linejoin="round"/>
<path d="M40.1018 21.9692L37.4319 27.309" stroke="#404145" stroke-width="1.8" stroke-miterlimit="10" stroke-linecap="round" stroke-linejoin="round"/>
<path d="M37.4319 27.3091V33.5389" stroke="#404145" stroke-width="1.8" stroke-miterlimit="10" stroke-linecap="round" stroke-linejoin="round"/>
<path d="M34.762 29.089H40.1018" stroke="#404145" stroke-width="1.8" stroke-miterlimit="10" stroke-linecap="round" stroke-linejoin="round"/>
<path d="M34.762 31.7589H40.1018" stroke="#404145" stroke-width="1.8" stroke-miterlimit="10" stroke-linecap="round" stroke-linejoin="round"/>
<path d="M17.8527 12.1796H15.1828C14.2038 12.1796 13.4028 12.9806 13.4028 13.9596C13.4028 14.9385 14.2038 15.7395 15.1828 15.7395H16.0727C17.0517 15.7395 17.8527 16.5405 17.8527 17.5194C17.8527 18.4984 17.0517 19.2994 16.0727 19.2994H13.4028" stroke="#404145" stroke-width="1.8" stroke-miterlimit="10" stroke-linecap="round" stroke-linejoin="round"/>
<path d="M16.0728 19.2994V21.9693" stroke="#404145" stroke-width="1.8" stroke-miterlimit="10" stroke-linecap="round" stroke-linejoin="round"/>
<path d="M16.0728 12.1796V9.5097" stroke="#404145" stroke-width="1.8" stroke-miterlimit="10" stroke-linecap="round" stroke-linejoin="round"/>
<path d="M6.37209 26.1521C3.61319 23.5712 1.83325 19.8333 1.83325 15.7395C1.83325 7.90777 8.24102 1.5 16.0727 1.5C23.9044 1.5 30.3122 7.90777 30.3122 15.7395C30.3122 19.9223 28.4433 23.7492 25.5954 26.3301" stroke="#404145" stroke-width="1.8" stroke-miterlimit="10" stroke-linecap="round" stroke-linejoin="round"/>
<path d="M32.9821 13.7816C34.4061 13.3366 35.919 13.0696 37.432 13.0696C45.2637 13.0696 51.6715 19.4773 51.6715 27.3091C51.6715 35.1408 45.2637 41.5485 37.432 41.5485C30.0452 41.5485 23.9935 35.9418 23.2815 28.733" stroke="#404145" stroke-width="1.8" stroke-miterlimit="10" stroke-linecap="round" stroke-linejoin="round"/>
<path d="M30.7571 43.5065C29.1552 49.5582 23.5484 54.0081 16.9626 54.0081C9.13091 54.0081 2.72314 47.6003 2.72314 39.7686C2.72314 31.9369 9.13091 25.5291 16.9626 25.5291C18.5646 25.5291 20.1665 25.7961 21.5905 26.3301" stroke="#404145" stroke-width="1.8" stroke-miterlimit="10" stroke-linecap="round" stroke-linejoin="round"/>
<path d="M34.762 3.27991V8.61971" stroke="#C5C6C9" stroke-width="2" stroke-miterlimit="10"/>
<path d="M37.4318 5.94983H32.092" stroke="#C5C6C9" stroke-width="2" stroke-miterlimit="10"/>
<path d="M36.542 45.9984V51.3382" stroke="#C5C6C9" stroke-width="2" stroke-miterlimit="10"/>
<path d="M39.2119 48.6683H33.8721" stroke="#C5C6C9" stroke-width="2" stroke-miterlimit="10"/>
<path d="M44.5518 43.3285V48.6683" stroke="#C5C6C9" stroke-width="2" stroke-miterlimit="10"/>
<path d="M47.2216 45.9984H41.8818" stroke="#C5C6C9" stroke-width="2" stroke-miterlimit="10"/>
</svg>
