<svg width="52" height="56" viewBox="0 0 52 56" fill="none" xmlns="http://www.w3.org/2000/svg">
<path d="M25.921 55.0037C39.7765 55.0037 51.0087 43.7715 51.0087 29.9159C51.0087 16.0604 39.7765 4.82822 25.921 4.82822C12.0654 4.82822 0.833252 16.0604 0.833252 29.9159C0.833252 43.7715 12.0654 55.0037 25.921 55.0037Z" fill="#E4E5E7"/>
<path d="M6.62266 41.4949L5.65774 42.4598L1.7981 54.0387L13.377 50.1791L14.342 49.2142L6.62266 41.4949Z" fill="white" stroke="#404145" stroke-width="2" stroke-miterlimit="10" stroke-linecap="round" stroke-linejoin="round"/>
<path d="M48.0174 11.4864L44.3507 7.81965C43.1928 6.66176 41.3595 6.66176 40.2981 7.81965L36.5349 11.5827L44.2542 19.302L48.0174 15.539C49.1753 14.4775 49.1753 12.6443 48.0174 11.4864Z" fill="white" stroke="#404145" stroke-width="2" stroke-miterlimit="10" stroke-linecap="round"/>
<path d="M36.5181 11.6389L6.63379 41.5232L14.3437 49.2331L44.228 19.3488L36.5181 11.6389Z" fill="#FFD3E2" stroke="#404145" stroke-width="2" stroke-miterlimit="10"/>
<path d="M10.4824 45.3545L40.3947 15.4423" stroke="#404145" stroke-width="2" stroke-miterlimit="10" stroke-linecap="round"/>
<path d="M46.1841 28.951V32.8107" stroke="#C5C6C9" stroke-width="2" stroke-miterlimit="10"/>
<path d="M46.1841 36.6703V40.53" stroke="#C5C6C9" stroke-width="2" stroke-miterlimit="10"/>
<path d="M44.2542 34.7405H40.3945" stroke="#C5C6C9" stroke-width="2" stroke-miterlimit="10"/>
<path d="M51.9734 34.7405H48.1138" stroke="#C5C6C9" stroke-width="2" stroke-miterlimit="10"/>
<path d="M21.0964 0.00366211V3.86331" stroke="#C5C6C9" stroke-width="2" stroke-miterlimit="10"/>
<path d="M21.0964 7.72296V11.5826" stroke="#C5C6C9" stroke-width="2" stroke-miterlimit="10"/>
<path d="M19.1665 5.79312H15.3069" stroke="#C5C6C9" stroke-width="2" stroke-miterlimit="10"/>
<path d="M26.8858 5.79312H23.0261" stroke="#C5C6C9" stroke-width="2" stroke-miterlimit="10"/>
<path d="M10.4823 22.1966L8.55249 24.1264" stroke="#C5C6C9" stroke-width="2" stroke-miterlimit="10"/>
<path d="M15.3068 17.3721L13.377 19.3019" stroke="#C5C6C9" stroke-width="2" stroke-miterlimit="10"/>
<path d="M13.377 22.1966L15.3068 24.1264" stroke="#C5C6C9" stroke-width="2" stroke-miterlimit="10"/>
<path d="M8.55249 17.3721L10.4823 19.3019" stroke="#C5C6C9" stroke-width="2" stroke-miterlimit="10"/>
<path d="M31.7103 47.2844L29.7805 49.2142" stroke="#C5C6C9" stroke-width="2" stroke-miterlimit="10"/>
<path d="M36.5348 42.4598L34.605 44.3896" stroke="#C5C6C9" stroke-width="2" stroke-miterlimit="10"/>
<path d="M34.605 47.2844L36.5348 49.2142" stroke="#C5C6C9" stroke-width="2" stroke-miterlimit="10"/>
<path d="M29.7805 42.4598L31.7103 44.3896" stroke="#C5C6C9" stroke-width="2" stroke-miterlimit="10"/>
</svg>
