<svg width="58" height="59" viewBox="0 0 58 59" fill="none" xmlns="http://www.w3.org/2000/svg">
<path d="M52.4763 34C52.4763 46.4264 42.4027 56.5 29.9763 56.5C17.5499 56.5 7.47632 46.4264 7.47632 34C7.47632 21.5736 17.5499 11.5 29.9763 11.5C42.4027 11.5 52.4763 21.5736 52.4763 34Z" fill="#EFEFF0" stroke="#EFEFF0"/>
<path d="M49.8438 12.8906V14.6093" stroke="#404145" stroke-width="2" stroke-miterlimit="10"/>
<path d="M49.8438 16.3281V18.0468" stroke="#404145" stroke-width="2" stroke-miterlimit="10"/>
<path d="M48.9844 15.4687H47.2656" stroke="#404145" stroke-width="2" stroke-miterlimit="10"/>
<path d="M52.4219 15.4687H50.7031" stroke="#404145" stroke-width="2" stroke-miterlimit="10"/>
<path d="M48.7763 33.3001L42.8763 36.1001L42.5763 36.2001C42.1763 35.5001 41.4763 35.0001 40.4763 35.0001H34.4763C33.0763 35.0001 30.9763 33.0001 29.3763 33.0001C28.6763 33.0001 25.1763 33.0001 23.4763 33.0001C21.0763 33.0001 18.8763 35.0001 17.6763 36.1001C15.7763 38.0001 11.9763 41.8001 11.9763 41.8001L21.1763 51.0001C22.6763 49.5001 24.4763 48.0001 25.9763 48.0001C27.0763 48.0001 33.7763 48.0001 37.9763 48.0001C39.8763 48.0001 41.6763 47.4001 43.0763 46.1001L53.0763 36.1001L55.8763 29.0001C54.0763 27.4001 50.1763 29.2001 48.7763 33.3001Z" fill="white"/>
<path d="M29.9763 41H40.4763C42.1763 41 42.9763 39.7 42.9763 38C42.9763 36.3 42.0763 35 40.4763 35H34.4763C33.0763 35 30.9763 33 29.3763 33C28.6763 33 25.1763 33 23.4763 33C21.0763 33 18.8763 34.9999 17.6763 36.0999C15.7763 37.9999 11.9763 41.8 11.9763 41.8L21.1763 51C22.6763 49.5 24.4763 48 25.9763 48C27.0763 48 33.7763 48 37.9763 48C39.8763 48 41.6763 47.3999 43.0763 46.0999L53.0763 36.0999L55.8763 29C54.1763 27.3 50.1763 29.1 48.7763 33.2L42.8763 36" stroke="#404145" stroke-width="2" stroke-miterlimit="10" stroke-linecap="round"/>
<path d="M11.0103 38.9545L5 44.9648L18.0106 57.9755L24.021 51.9651L11.0103 38.9545Z" fill="#A6EACA" stroke="#404145" stroke-width="2" stroke-miterlimit="10" stroke-linejoin="round"/>
<path d="M12.4763 46.5L10.4763 44.5" stroke="#404145" stroke-width="2" stroke-miterlimit="10" stroke-linecap="round"/>
<path d="M9.41175 15.6923H0" stroke="#404145" stroke-width="2" stroke-miterlimit="10"/>
<path d="M25.6471 2.84613L16.2354 2.84613" stroke="#C5C6C9" stroke-width="2" stroke-miterlimit="10"/>
<path d="M38 0.999939V6.99994" stroke="#C5C6C9" stroke-width="2" stroke-miterlimit="10"/>
<path d="M41 3.99994H35" stroke="#C5C6C9" stroke-width="2" stroke-miterlimit="10"/>
<path d="M1 20.9999L3 20.9999" stroke="#404145" stroke-width="2" stroke-miterlimit="10"/>
<path d="M14.7873 2.84613H13.3394" stroke="#C5C6C9" stroke-width="2" stroke-miterlimit="10"/>
<path d="M11.8913 2.84613H10.4434" stroke="#C5C6C9" stroke-width="2" stroke-miterlimit="10"/>
<path d="M8.99533 2.84613H7.54736" stroke="#C5C6C9" stroke-width="2" stroke-miterlimit="10"/>
<path d="M45 8.3125H12.353V28H45V8.3125Z" fill="white"/>
<path d="M12.353 21.1851V8.3125H45V28H12.353V23.4567" stroke="#404145" stroke-width="2" stroke-miterlimit="10"/>
<path d="M38.5461 24.25H18.8067C18.8067 22.9551 17.9218 21.9648 16.7646 21.9648V14.3477C17.9218 14.3477 18.8067 13.3574 18.8067 12.0625H38.5461C38.5461 13.3574 39.431 14.3477 40.5882 14.3477V21.9648C39.431 21.9648 38.5461 22.9551 38.5461 24.25Z" fill="#A6EACA" stroke="#404145" stroke-width="2" stroke-miterlimit="10"/>
<path d="M20.2715 17.9999H21.7194" stroke="#404145" stroke-width="2" stroke-miterlimit="10"/>
<path d="M35.4751 17.9999H36.9231" stroke="#404145" stroke-width="2" stroke-miterlimit="10"/>
<path d="M26.4705 18.1562C26.4705 16.8438 27.4508 15.8125 28.6763 15.8125C29.9018 15.8125 30.8822 16.8438 30.8822 18.1562C30.8822 19.4688 29.9018 20.5 28.6763 20.5C27.4508 20.5 26.4705 19.4688 26.4705 18.1562Z" fill="white" stroke="#404145" stroke-width="2" stroke-miterlimit="10"/>
<path d="M14.4796 21.077H5.06787" stroke="#404145" stroke-width="2" stroke-miterlimit="10"/>
</svg>
