<svg width="146" height="54" viewBox="0 0 146 54" fill="none" xmlns="http://www.w3.org/2000/svg">
<rect x="0.606567" width="145.379" height="54" rx="8" fill="#404145"/>
<path fill-rule="evenodd" clip-rule="evenodd" d="M11.2332 37.643C10.8536 37.5411 10.6066 37.1653 10.6066 36.5838V17.3907C10.6066 16.8522 10.8157 16.489 11.1473 16.3569V16.3569L20.6062 27.053L11.2332 37.643V37.643ZM12.5363 37.2358L23.9217 30.8013L21.1486 27.6655L12.5363 37.2358V37.2358ZM23.9974 23.2203L12.7706 16.874L21.1624 26.4235L23.9974 23.2203V23.2203ZM24.7608 23.65L29.1588 26.1362C29.9915 26.6069 29.9991 27.3657 29.1588 27.8406L24.6495 30.389L21.7083 27.042L24.7608 23.65V23.65Z" fill="white"/>
<path d="M44.8713 14.302C44.8263 15.121 44.0883 15.742 43.0443 15.742C41.6403 15.742 40.9203 14.725 40.9203 13.42C40.9203 12.097 41.7213 11.044 43.0803 11.044C43.9353 11.044 44.5653 11.431 44.7723 12.169H45.9063C45.6813 10.702 44.4573 10 43.0533 10C41.1183 10 39.7863 11.494 39.7863 13.402C39.7863 15.427 41.0823 16.75 42.9723 16.75C43.9533 16.75 44.7003 16.282 44.9613 15.769L45.0333 16.615H45.8703V13.393H43.0083V14.302H44.8713Z" fill="white"/>
<path d="M47.3193 16.615H51.5943V15.67H48.4173V13.744H50.7213V12.835H48.4173V11.08H51.5223V10.135H47.3193V16.615Z" fill="white"/>
<path d="M57.4081 10.135H52.4041V11.143H54.3481V16.615H55.4551V11.143H57.4081V10.135Z" fill="white"/>
<path d="M61.3144 16.615H62.4124V10.135H61.3144V16.615Z" fill="white"/>
<path d="M68.4413 10.135H63.4373V11.143H65.3813V16.615H66.4883V11.143H68.4413V10.135Z" fill="white"/>
<path d="M78.6566 13.375C78.6566 11.314 77.2796 10 75.3806 10C73.4636 10 72.1046 11.323 72.1046 13.375C72.1046 15.427 73.4636 16.75 75.3806 16.75C77.2796 16.75 78.6566 15.436 78.6566 13.375ZM73.2386 13.375C73.2386 11.953 74.0846 11.008 75.3806 11.008C76.6766 11.008 77.5226 11.953 77.5226 13.375C77.5226 14.797 76.6766 15.742 75.3806 15.742C74.0846 15.742 73.2386 14.797 73.2386 13.375Z" fill="white"/>
<path d="M84.4644 14.941L81.0533 10.135H79.9014V16.615H80.9454V11.809L84.3563 16.615H85.5084V10.135H84.4644V14.941Z" fill="white"/>
<path fill-rule="evenodd" clip-rule="evenodd" d="M99.5148 35.9614L98.5196 36.8942C98.2902 37.0199 98.0615 37.1657 97.8333 37.2693C97.1421 37.5813 96.4392 37.6597 95.8145 37.6597C95.1498 37.6597 94.1078 37.6174 93.0453 36.8532C91.5686 35.8186 90.923 34.0419 90.923 32.4931C90.923 29.2865 93.5491 27.7139 95.6906 27.7139C96.4398 27.7139 97.2087 27.9002 97.8339 28.293C98.8735 28.9758 99.1424 29.8639 99.2916 30.3401L94.3994 32.3044L92.7975 32.4282C93.316 35.0568 95.1054 36.5859 97.0829 36.5859C98.0707 36.5859 98.8039 36.266 99.4766 35.9351C99.476 35.9357 99.611 35.8658 99.5148 35.9614V35.9614ZM96.5628 30.7321C96.9605 30.5886 97.1664 30.4642 97.1664 30.1768C97.1664 29.3506 96.2261 28.397 95.1039 28.397C94.2721 28.397 92.712 29.0405 92.712 31.2745C92.712 31.6232 92.7533 31.9946 92.7749 32.366L96.5628 30.7321V30.7321Z" fill="white"/>
<path fill-rule="evenodd" clip-rule="evenodd" d="M89.285 35.8007C89.285 36.6048 89.4293 36.7298 90.1131 36.7924C90.4695 36.834 90.8247 36.853 91.1768 36.8941L90.4073 37.3495H86.7403C87.2212 36.7292 87.3039 36.6679 87.3039 36.2542V35.7927L87.2959 23.4965H85.6766L87.2348 22.75H90.2106C89.5656 23.1208 89.3732 23.3476 89.29 24.0708L89.285 35.8007V35.8007Z" fill="white"/>
<path fill-rule="evenodd" clip-rule="evenodd" d="M83.5971 28.7288C84.0743 29.1192 85.072 29.9472 85.072 31.5192C85.072 33.0508 84.2032 33.7728 83.327 34.4562C83.0582 34.7252 82.7443 35.017 82.7443 35.468C82.7443 35.9253 83.0588 36.1735 83.2851 36.3586L84.0367 36.9353C84.9505 37.702 85.7836 38.405 85.7836 39.833C85.7836 41.7789 83.8893 43.7401 80.3099 43.7401C77.2947 43.7401 75.837 42.3133 75.837 40.783C75.837 40.0377 76.2095 38.9829 77.4408 38.261C78.7308 37.4771 80.4789 37.3723 81.4143 37.311C81.122 36.9359 80.7884 36.543 80.7884 35.902C80.7884 35.5514 80.8945 35.3424 80.9968 35.096C80.7693 35.1175 80.5399 35.1395 80.3315 35.1395C78.1247 35.1395 76.8766 33.5031 76.8766 31.89C76.8766 30.9389 77.3132 29.8841 78.2098 29.1186C79.3961 28.1478 80.8106 27.9805 81.9347 27.9805H86.2226L84.8895 28.7288H83.5971V28.7288ZM82.1228 37.9102C81.9527 37.8882 81.8503 37.8882 81.6444 37.8882C81.4557 37.8882 80.3316 37.9286 79.4609 38.2191C79.0003 38.3865 77.6691 38.8811 77.6691 40.3507C77.6691 41.8168 79.1064 42.8734 81.3305 42.8734C83.3277 42.8734 84.3889 41.9216 84.3889 40.64C84.3883 39.5853 83.702 39.0288 82.1228 37.9102V37.9102ZM82.7197 33.9807C83.2007 33.5039 83.2426 32.8444 83.2426 32.4693C83.2426 30.9818 82.3504 28.665 80.6208 28.665C80.0813 28.665 79.4968 28.9347 79.165 29.3503C78.8136 29.7811 78.7081 30.3401 78.7081 30.8776C78.7081 32.2628 79.5202 34.5599 81.3083 34.5599C81.8294 34.5599 82.3905 34.308 82.7197 33.9807V33.9807Z" fill="white"/>
<path fill-rule="evenodd" clip-rule="evenodd" d="M70.6994 37.6176C67.3919 37.6176 65.6222 35.0569 65.6222 32.7396C65.6222 30.0312 67.847 27.7139 71.0114 27.7139C74.0705 27.7139 75.9863 30.0943 75.9863 32.5937C75.9863 35.0342 74.0927 37.6176 70.6994 37.6176V37.6176ZM73.2995 35.9443C73.8027 35.2824 73.9248 34.4562 73.9248 33.6509C73.9248 31.8293 73.0516 28.3555 70.4711 28.3555C69.7848 28.3555 69.0936 28.6221 68.5954 29.0578C67.7827 29.7817 67.6378 30.6906 67.6378 31.583C67.6378 33.6263 68.6534 36.9966 71.1753 36.9966C71.9898 36.9966 72.8204 36.605 73.2995 35.9443V35.9443Z" fill="white"/>
<path fill-rule="evenodd" clip-rule="evenodd" d="M59.6238 37.6176C56.3157 37.6176 54.5485 35.0569 54.5485 32.7396C54.5485 30.0312 56.7738 27.7139 59.9371 27.7139C62.9942 27.7139 64.9082 30.0943 64.9082 32.5937C64.9088 35.0342 63.0177 37.6176 59.6238 37.6176V37.6176ZM62.2271 35.9444C62.7265 35.2824 62.8511 34.4563 62.8511 33.6509C62.8511 31.8294 61.9755 28.3555 59.3974 28.3555C58.7087 28.3555 58.0249 28.6221 57.5254 29.0579C56.7115 29.7817 56.5672 30.6906 56.5672 31.583C56.5672 33.6264 57.5871 36.9967 60.1047 36.9967C60.9174 36.9967 61.7467 36.6051 62.2271 35.9444V35.9444Z" fill="white"/>
<path fill-rule="evenodd" clip-rule="evenodd" d="M53.2265 36.8992L50.437 37.5335C49.3067 37.7106 48.2918 37.8669 47.217 37.8669C41.8359 37.8669 39.7863 33.9297 39.7863 30.8494C39.7863 27.0863 42.6911 23.5984 47.6653 23.5984C48.7178 23.5984 49.7309 23.7522 50.6534 24.0017C52.1154 24.4105 52.7986 24.913 53.2265 25.2084L51.606 26.7382L50.9228 26.8902L51.41 26.1179C50.7502 25.4775 49.5373 24.2952 47.2355 24.2952C44.158 24.2952 41.8359 26.6205 41.8359 30.0153C41.8359 33.6613 44.4873 37.091 48.7382 37.091C49.9874 37.091 50.6306 36.8415 51.2145 36.6086V33.4829L48.2696 33.6405L49.8308 32.8069H53.964L53.459 33.2905C53.3221 33.4057 53.3042 33.4449 53.266 33.5994C53.2456 33.7759 53.2271 34.3373 53.2271 34.5347V36.8992H53.2265Z" fill="white"/>
<path fill-rule="evenodd" clip-rule="evenodd" d="M105.512 36.0489V41.3172H104.459V27.9123H105.512V29.4383C106.197 28.4522 107.45 27.6696 108.905 27.6696C111.515 27.6696 113.273 29.6375 113.273 32.7528C113.273 35.8472 111.515 37.8563 108.905 37.8563C107.532 37.8569 106.301 37.1527 105.512 36.0489V36.0489ZM112.141 32.7537C112.141 30.4057 110.909 28.6149 108.726 28.6149C107.37 28.6149 106.073 29.6745 105.51 30.5975V34.8883C106.073 35.8138 107.37 36.9115 108.726 36.9115C110.909 36.9115 112.141 35.1053 112.141 32.7537V32.7537Z" fill="white"/>
<path fill-rule="evenodd" clip-rule="evenodd" d="M114.709 37.6154V24.2111H115.761V37.6154H114.709V37.6154Z" fill="white"/>
<path fill-rule="evenodd" clip-rule="evenodd" d="M127.574 40.4501C127.798 40.5494 128.182 40.6113 128.426 40.6113C129.07 40.6113 129.518 40.3496 129.921 39.4247L130.689 37.6964L126.542 27.9124H127.716L131.273 36.391L134.795 27.9124H135.985L130.929 39.749C130.404 40.9686 129.578 41.5551 128.444 41.5551C128.104 41.5551 127.656 41.4944 127.392 41.4148L127.574 40.4501V40.4501Z" fill="white"/>
<path fill-rule="evenodd" clip-rule="evenodd" d="M124.501 37.5866C124.431 37.2501 124.378 36.9541 124.339 36.7059C124.306 36.4589 124.288 36.2064 124.288 35.9496C123.927 36.4761 123.416 36.9143 122.763 37.2599C122.109 37.6068 121.489 37.7778 120.637 37.7778C119.611 37.7778 118.816 37.5272 118.247 37.0185C117.681 36.5104 117.396 35.8221 117.396 34.9512C117.396 34.0815 117.809 33.3755 118.632 32.8355C119.454 32.2931 120.518 32.0241 121.833 32.0241H124.288V30.8179C124.288 30.1235 124.049 29.5781 123.574 29.1815C123.097 28.7856 122.427 28.5846 121.559 28.5846C120.765 28.5846 120.121 28.7679 119.631 29.1245C119.145 29.4886 118.901 29.9397 118.901 30.4833H117.824L117.802 30.4312C117.762 29.6988 118.1 29.0553 118.817 28.5006C119.531 27.946 120.467 27.6671 121.618 27.6671C122.765 27.6671 123.693 27.9417 124.394 28.4896C125.093 29.032 125.444 29.8159 125.444 30.8406V35.6278C125.444 35.9717 125.46 36.3038 125.504 36.6274C125.548 36.9517 125.619 37.2753 125.713 37.5878H124.501V37.5866ZM120.767 36.8228C121.661 36.8228 122.303 36.6242 122.961 36.2314C123.613 35.8403 124.056 35.331 124.289 34.7144V32.8512H121.823C120.881 32.8512 120.101 33.0584 119.487 33.477C118.873 33.8937 118.561 34.3982 118.561 34.9847C118.561 35.5376 118.758 35.9807 119.151 36.316C119.543 36.6549 120.081 36.8228 120.767 36.8228V36.8228Z" fill="white"/>
</svg>
