<svg width="61" height="57" viewBox="0 0 61 57" fill="none" xmlns="http://www.w3.org/2000/svg">
<path d="M59.6316 41.5159C53.5527 50.0071 43.7106 55.5071 32.5176 55.5071C18.7193 55.5071 6.85092 47.1124 1.83337 35.1475" stroke="#404145" stroke-width="2" stroke-miterlimit="10"/>
<path d="M32.6141 0.507324C19.7807 0.507324 9.45618 10.8319 9.45618 23.6652C9.45618 29.3582 11.579 34.6652 14.9562 38.6214L16.9825 34.9548H18.9123L20.8421 32.06L22.772 31.0951L27.5965 37.8495H30.4913L34.0614 43.3495L39.5614 33.9899L42.6492 36.0161L46.5088 42.0951C52.1053 37.8495 55.6755 31.1915 55.6755 23.6652C55.772 10.8319 45.3509 0.507324 32.6141 0.507324Z" fill="#E4E5E7"/>
<path d="M34.0614 43.2529L39.5614 33.9897L42.7456 36.016L46.8947 42.7704H49.7895L51.7193 45.6652" stroke="#404145" stroke-width="2" stroke-miterlimit="10"/>
<path d="M12.158 43.6391L16.9825 34.9549H18.9123L20.8422 32.0601L22.772 31.0952L27.5965 37.8496H30.4913L39.1755 51.3584" stroke="#404145" stroke-width="2" stroke-miterlimit="10"/>
<path d="M35.3158 11.7969H22.772V19.5162H35.3158V11.7969Z" fill="#A6EACA" stroke="#404145" stroke-width="2" stroke-miterlimit="10"/>
<path d="M44 23.376H31.4562V15.6567H44L41.1053 19.5164L44 23.376Z" fill="#A6EACA" stroke="#404145" stroke-width="2" stroke-miterlimit="10"/>
<path d="M22.772 31.3847V8.90234" stroke="#404145" stroke-width="2" stroke-miterlimit="10"/>
<path d="M15.0527 23.376C12.3509 23.376 10.2281 25.0163 10.2281 27.2356C10.2281 25.0163 8.10532 23.376 5.40356 23.376" stroke="#C5C6C9" stroke-width="2" stroke-miterlimit="10"/>
<path d="M48.8245 4.07764C46.1228 4.07764 44 5.71799 44 7.93729C44 5.71799 41.8772 4.07764 39.1754 4.07764" stroke="#C5C6C9" stroke-width="2" stroke-miterlimit="10"/>
<path d="M60.4035 27.2354C57.7018 27.2354 55.579 28.8757 55.579 31.095C55.579 28.8757 53.4561 27.2354 50.7544 27.2354" stroke="#C5C6C9" stroke-width="2" stroke-miterlimit="10"/>
</svg>
