<svg width="58" height="58" viewBox="0 0 58 58" fill="none" xmlns="http://www.w3.org/2000/svg">
<path d="M40.4711 28.9796C40.4711 35.6287 35.081 41.0188 28.4319 41.0188C21.7828 41.0188 16.3927 35.6287 16.3927 28.9796C16.3927 22.3306 21.7828 16.9404 28.4319 16.9404C35.081 16.9404 40.4711 22.3306 40.4711 28.9796Z" fill="#E4E5E7" stroke="#E4E5E7"/>
<path d="M23.3192 14.704C27.8526 14.5111 32.0002 16.5367 34.701 19.8161L30.4569 22.5169L45.8898 28.9794V12.582L41.9351 15.2827C38.4627 11.6174 33.3506 9.20606 27.8526 9.39897C20.8114 9.68834 14.8312 13.9324 11.9375 19.9126L12.6127 20.3949C14.9276 17.1154 18.8823 14.8969 23.3192 14.704Z" fill="#A6EACA" stroke="#404145" stroke-width="2" stroke-miterlimit="10"/>
<path d="M44.4439 36.4063C42.0325 39.6858 38.1743 41.9042 33.6409 42.0971C29.1075 42.2901 24.9599 40.2645 22.2591 36.985L26.5032 34.2843L11.0703 28.0146V44.4121L15.1215 41.5184C18.5938 45.1837 23.706 47.5951 29.2039 47.4022C36.2452 47.1128 42.2254 42.8688 45.1191 36.8886L44.4439 36.4063Z" fill="#A6EACA" stroke="#404145" stroke-width="2" stroke-miterlimit="10"/>
<path d="M30.0714 1.00732C45.2149 1.58606 57.0789 14.4146 56.4037 29.5581C56.4037 30.2333 56.3073 30.812 56.2108 31.4872" stroke="#C5C6C9" stroke-width="2" stroke-miterlimit="10"/>
<path d="M17.9182 3.32227C8.56206 7.37339 1.90663 16.5367 1.52081 27.4361C1.3279 32.4518 2.48538 37.1781 4.6074 41.3257" stroke="#C5C6C9" stroke-width="2" stroke-miterlimit="10"/>
<path d="M12.6128 50.6819C16.8568 53.865 22.0654 55.7941 27.7563 55.987C37.8841 56.3728 47.0474 51.2607 52.0631 43.2549" stroke="#C5C6C9" stroke-width="2" stroke-miterlimit="10"/>
</svg>
