<svg width="49" height="49" viewBox="0 0 49 49" fill="none" xmlns="http://www.w3.org/2000/svg">
<path d="M24.0258 39.1999C31.6729 39.1999 37.872 32.9832 37.872 25.3145C37.872 17.6459 31.6729 11.4292 24.0258 11.4292C16.3788 11.4292 10.1797 17.6459 10.1797 25.3145C10.1797 32.9832 16.3788 39.1999 24.0258 39.1999Z" fill="#E4E5E7"/>
<path d="M29.1028 36.2519C27.1797 34.5454 23.872 33.3042 21.3335 33.3042C20.5643 33.8472 19.1028 35.4762 18.4874 36.2519C17.0259 35.7865 15.4874 34.1575 14.1028 32.4509C12.7182 30.7444 11.4874 28.8826 11.2566 27.4088C12.1028 27.0209 14.0258 25.8573 14.7182 25.2368C15.2566 22.7545 14.6412 19.2637 13.3335 17.0142C11.7951 16.7815 8.17969 16.859 5.56431 18.0226C4.48739 21.2806 4.10277 28.5723 10.1797 36.2519C16.4874 43.6988 23.7182 43.6988 27.1028 43.2334C28.7951 40.8287 29.0259 37.8034 29.1028 36.2519Z" fill="#A6EACA" stroke="#404145" stroke-width="2" stroke-miterlimit="10"/>
<path d="M26.3347 26.1677H20.9501V25.4695L23.3347 23.1424C24.027 22.5218 24.4886 21.9788 24.7193 21.6685C25.027 21.3582 25.1809 20.9704 25.3347 20.6601C25.4886 20.3498 25.4886 20.0395 25.4886 19.6517C25.4886 19.1862 25.1809 18.1778 23.7963 17.8675C22.4886 17.5572 21.104 18.3329 20.2578 19.4965" stroke="#404145" stroke-width="2" stroke-miterlimit="10"/>
<path d="M34.0269 23.8405H27.873V22.6769L30.95 17.6348H32.4884V26.9434" stroke="#404145" stroke-width="2" stroke-miterlimit="10"/>
<path d="M24.334 47.5001C11.6417 47.5001 1.33398 37.1055 1.33398 24.3062" stroke="#C5C6C9" stroke-width="2" stroke-miterlimit="10"/>
<path d="M28.5645 1.5C39.2568 3.51686 47.3337 12.9806 47.3337 24.3061" stroke="#C5C6C9" stroke-width="2" stroke-miterlimit="10"/>
<path d="M46.1031 32.8389C44.18 37.881 40.5646 42.1475 35.9492 44.7849" stroke="#C5C6C9" stroke-width="2" stroke-miterlimit="10"/>
<path d="M8.41016 13.7562C11.8717 9.02432 17.3332 5.99902 23.6409 5.99902C34.0255 5.99902 42.4871 14.5319 42.4871 25.0041C42.4871 33.1491 37.3332 40.1305 30.1794 42.8456" stroke="#404145" stroke-width="2" stroke-miterlimit="10"/>
<path d="M26.334 30.0464H27.8724" stroke="#404145" stroke-width="2" stroke-miterlimit="10"/>
<path d="M29.4102 30.0464H30.9486" stroke="#404145" stroke-width="2" stroke-miterlimit="10"/>
<path d="M32.4883 30.0464H34.0267" stroke="#404145" stroke-width="2" stroke-miterlimit="10"/>
</svg>
