<svg width="47" height="47" viewBox="0 0 47 47" fill="none" xmlns="http://www.w3.org/2000/svg">
<rect y="0.5" width="46" height="46" fill="white"/>
<path d="M37.57 23.4567C37.57 13.294 29.3315 5.05549 19.1688 5.05549C9.00608 5.05549 0.767577 13.294 0.767577 23.4567C0.767578 33.6194 9.00608 41.8579 19.1688 41.8579C29.3315 41.8579 37.57 33.6194 37.57 23.4567Z" fill="#E4E5E7"/>
<path d="M39.9105 16.6001H44.5105C44.9705 16.6001 45.2772 16.9068 45.2772 17.3668V43.4334C45.2772 43.8934 44.9705 44.2001 44.5105 44.2001H13.0772C12.6172 44.2001 12.3105 43.8934 12.3105 43.4334V17.3668C12.3105 16.9068 12.6172 16.6001 13.0772 16.6001H17.6772" fill="white"/>
<path d="M39.9105 16.6001H44.5105C44.9705 16.6001 45.2772 16.9068 45.2772 17.3668V43.4334C45.2772 43.8934 44.9705 44.2001 44.5105 44.2001H13.0772C12.6172 44.2001 12.3105 43.8934 12.3105 43.4334V17.3668C12.3105 16.9068 12.6172 16.6001 13.0772 16.6001H17.6772" stroke="#404145" stroke-width="2" stroke-miterlimit="10" stroke-linejoin="round"/>
<path d="M28.0444 29.5142V28.0269H20.7304V29.6982H25.5297L22.3097 32.6882L22.7391 34.0222C23.1991 33.8842 23.5977 33.8229 23.9657 33.8229C25.4377 33.8229 26.2197 34.8042 26.2197 35.8162C26.2197 36.9662 25.3151 37.7329 24.2111 37.7329C22.9844 37.7329 22.0951 36.7822 22.1411 35.4635H20.4237C20.2857 37.8862 22.0184 39.2969 24.2264 39.2969C26.3884 39.2969 28.0597 38.0702 28.0597 35.8775C28.0597 34.1295 26.9864 32.7035 24.8551 32.4429L28.0444 29.5142Z" fill="#404145"/>
<path d="M33.5798 39.2969C36.4165 39.2969 37.6432 36.8129 37.6432 33.5162C37.6432 30.2042 36.4165 27.7969 33.5492 27.7969C30.7585 27.7969 29.5625 30.2042 29.5625 33.5162C29.5625 36.8129 30.7432 39.2969 33.5798 39.2969ZM33.6105 37.6255C31.9852 37.6255 31.4792 35.4789 31.4792 33.5162C31.4792 31.4769 31.9852 29.4682 33.6105 29.4682C35.2512 29.4682 35.7265 31.4769 35.7265 33.5162C35.7265 35.4482 35.2512 37.6255 33.6105 37.6255Z" fill="#404145"/>
<path d="M39.9105 16.6001H44.5105C44.9705 16.6001 45.2772 16.6682 45.2772 16.7705V22.5631C45.2772 22.6653 44.9705 22.7334 44.5105 22.7334H13.0772C12.6172 22.7334 12.3105 22.6653 12.3105 22.5631V16.7705C12.3105 16.6682 12.6172 16.6001 13.0772 16.6001H17.6772" fill="#A6EACA"/>
<path d="M39.9105 16.6001H44.5105C44.9705 16.6001 45.2772 16.6682 45.2772 16.7705V22.5631C45.2772 22.6653 44.9705 22.7334 44.5105 22.7334H13.0772C12.6172 22.7334 12.3105 22.6653 12.3105 22.5631V16.7705C12.3105 16.6682 12.6172 16.6001 13.0772 16.6001H17.6772" stroke="#404145" stroke-width="2" stroke-miterlimit="10" stroke-linejoin="round"/>
<path d="M38.377 13.5332V18.8999" stroke="#404145" stroke-width="2" stroke-miterlimit="10" stroke-linejoin="round"/>
<path d="M20.7441 16.6001H36.8441" stroke="#404145" stroke-width="2" stroke-miterlimit="10" stroke-linejoin="round"/>
<path d="M19.2109 13.5332V18.8999" stroke="#404145" stroke-width="2" stroke-miterlimit="10" stroke-linejoin="round"/>
<path d="M5.41211 18.1338V19.6671" stroke="#C5C6C9" stroke-width="2" stroke-miterlimit="10"/>
<path d="M5.41211 21.2007V22.734" stroke="#C5C6C9" stroke-width="2" stroke-miterlimit="10"/>
<path d="M4.64466 20.4336H3.11133" stroke="#C5C6C9" stroke-width="2" stroke-miterlimit="10"/>
<path d="M7.71107 20.4336H6.17773" stroke="#C5C6C9" stroke-width="2" stroke-miterlimit="10"/>
<path d="M12.3105 3.56689V6.63356" stroke="#C5C6C9" stroke-width="2" stroke-miterlimit="10"/>
<path d="M12.3105 9.7002V12.7669" stroke="#C5C6C9" stroke-width="2" stroke-miterlimit="10"/>
<path d="M10.7776 8.16699H7.71094" stroke="#C5C6C9" stroke-width="2" stroke-miterlimit="10"/>
<path d="M16.9104 8.16699H13.8438" stroke="#C5C6C9" stroke-width="2" stroke-miterlimit="10"/>
</svg>
