<svg width="55" height="57" viewBox="0 0 55 57" fill="none" xmlns="http://www.w3.org/2000/svg">
<path d="M42.6724 21.8401C42.6724 33.3476 33.3437 42.6763 21.8362 42.6763C10.3287 42.6763 1 33.3476 1 21.8401C1 10.3326 10.3287 1.00391 21.8362 1.00391C33.3437 1.00391 42.6724 10.3326 42.6724 21.8401Z" fill="#E4E5E7" stroke="#E4E5E7"/>
<path d="M45.0693 9.03857H18.5176L10.9314 16.6248V53.6076C10.9314 54.6507 11.7848 55.5041 12.8279 55.5041H45.0693C46.1124 55.5041 46.9659 54.6507 46.9659 53.6076V10.9351C46.9659 9.89202 46.1124 9.03857 45.0693 9.03857Z" fill="white"/>
<path d="M10.9314 17.5731H19.4659V9.03857L10.9314 17.5731Z" fill="#A6EACA"/>
<path d="M46.9659 13.78V10.9351C46.9659 9.89202 46.1124 9.03857 45.0693 9.03857H18.5176L10.9314 16.6248V53.6076C10.9314 54.6507 11.7848 55.5041 12.8279 55.5041H45.0693C46.1124 55.5041 46.9659 54.6507 46.9659 53.6076V45.0731" stroke="#404145" stroke-width="2" stroke-miterlimit="10"/>
<path d="M13.776 17.573H19.4657V11.8833" stroke="#404145" stroke-width="2" stroke-miterlimit="10"/>
<path d="M48.198 22.3143L29.7066 40.8057C28.6635 41.8488 28.6635 43.5557 29.7066 44.5988C30.7497 45.6419 32.4566 45.6419 33.4997 44.5988L51.9911 26.1074C54.0773 24.0212 54.0773 20.6074 51.9911 18.5212C49.9049 16.435 46.4911 16.435 44.4049 18.5212L25.9135 37.0126C22.7842 40.1419 22.7842 45.2626 25.9135 48.3919C29.0428 51.5212 34.1635 51.5212 37.2928 48.3919L51.9911 33.6936" stroke="#404145" stroke-width="2" stroke-miterlimit="10"/>
</svg>
