<svg width="70" height="56" viewBox="0 0 70 56" fill="none" xmlns="http://www.w3.org/2000/svg">
<path d="M38.1266 10.3259C49.6516 12.1845 57.4878 23.034 55.6292 34.559C53.7706 46.084 42.9211 53.9202 31.3961 52.0616C19.8711 50.203 12.0349 39.3535 13.8935 27.8285C15.7521 16.3035 26.6016 8.46734 38.1266 10.3259Z" fill="#E4E5E7" stroke="#E4E5E7"/>
<path d="M58.2922 38.3264C60.3479 35.7298 61.4298 32.2677 61.4298 28.8056C61.4298 25.3434 60.3479 21.8813 58.2922 19.2847" stroke="#C5C6C9" stroke-width="2" stroke-miterlimit="10"/>
<path d="M61.9707 11.062C65.8656 15.9307 68.0295 22.314 68.0295 28.8055C68.0295 35.2971 65.8656 41.5722 62.0789 46.4408" stroke="#C5C6C9" stroke-width="2" stroke-miterlimit="10"/>
<path d="M10.9039 38.3264C8.84828 35.7298 7.76636 32.2677 7.76636 28.8056C7.76636 25.3434 8.84828 21.8813 10.9039 19.2847" stroke="#C5C6C9" stroke-width="2" stroke-miterlimit="10"/>
<path d="M7.2255 11.062C3.33059 15.9307 1.16675 22.314 1.16675 28.8055C1.16675 35.2971 3.33059 41.5722 7.11731 46.4408" stroke="#C5C6C9" stroke-width="2" stroke-miterlimit="10"/>
<path d="M37.5192 4.02936C37.5192 5.65224 36.2209 7.05873 34.4898 7.05873C32.8669 7.05873 31.4604 5.76044 31.4604 4.02936C31.4604 2.40648 32.7588 1 34.4898 1C36.1127 1 37.5192 2.29829 37.5192 4.02936Z" stroke="#404145" stroke-width="2" stroke-miterlimit="10"/>
<path d="M41.1979 37.6773C41.1979 40.8148 38.1685 43.3032 34.3818 43.3032C30.5951 43.3032 27.5657 40.8148 27.5657 37.6773C27.5657 34.5397 30.5951 32.0513 34.3818 32.0513C38.1685 32.0513 41.1979 34.5397 41.1979 37.6773Z" fill="white" stroke="#404145" stroke-width="2" stroke-miterlimit="10"/>
<path d="M51.0433 28.9137C49.745 27.5072 46.932 24.6942 46.2828 18.419C45.7419 12.0357 40.8732 6.95068 34.4899 6.95068C28.1066 6.95068 23.2379 12.0357 22.697 18.419C22.156 24.6942 19.343 27.5072 17.9365 28.9137C16.8546 30.6447 16.53 33.5659 16.53 34.7561C20.8577 36.9199 26.9165 37.7854 34.7063 37.7854C42.4961 37.7854 48.0139 36.9199 52.3416 34.7561C52.4498 33.5659 52.1252 30.7529 51.0433 28.9137Z" fill="#A6EACA" stroke="#404145" stroke-width="2" stroke-miterlimit="10"/>
<path d="M32.4343 10.9536C31.136 11.17 29.2967 12.4683 28.2148 13.983C27.1329 15.4977 26.3756 17.5533 26.5919 18.8516" stroke="#404145" stroke-width="2" stroke-miterlimit="10"/>
</svg>
