<svg width="48" height="48" viewBox="0 0 48 48" fill="none" xmlns="http://www.w3.org/2000/svg">
<path d="M24.1686 6.22217H35.3311C35.8061 9.59994 38.4186 11.7954 41.5852 12.3021C41.5852 18.6354 41.5852 25.982 41.5852 29.3598C41.5852 38.4798 26.3852 46.3332 24.1686 46.3332C21.9519 46.3332 6.75195 38.4798 6.75195 29.3598C6.75195 26.0665 6.75195 18.7199 6.75195 12.3021C9.91861 11.7954 12.5311 9.59994 13.0061 6.22217H24.1686Z" fill="white" stroke="#404145" stroke-width="2" stroke-miterlimit="10"/>
<path d="M46.3345 21.4224V29.2757C46.3345 35.0179 42.8512 40.5068 36.2012 45.489" stroke="#C5C6C9" stroke-width="2" stroke-miterlimit="10"/>
<path d="M29.7109 2H36.0443" stroke="#C5C6C9" stroke-width="2" stroke-miterlimit="10"/>
<path d="M12.293 2H18.6263" stroke="#C5C6C9" stroke-width="2" stroke-miterlimit="10"/>
<path d="M12.1353 45.573C5.48528 40.5908 2.00195 35.1019 2.00195 29.3597V21.5063" stroke="#C5C6C9" stroke-width="2" stroke-miterlimit="10"/>
<path d="M35.0151 25.1378C35.0151 31.9778 29.8692 37.4668 23.4568 37.4668C17.0443 37.4668 11.8984 31.9778 11.8984 25.1378C11.8984 18.2978 17.0443 12.8091 23.4568 12.8091C24.8817 12.8091 26.3067 13.0624 27.5734 13.6535" stroke="#404145" stroke-width="2" stroke-miterlimit="10"/>
<path d="M34.6195 12.8091L24.1695 23.9557L19.8154 19.3113L16.332 23.0267L24.1695 31.3868L38.1028 16.5245L34.6195 12.8091Z" fill="#A6EACA" stroke="#404145" stroke-width="2" stroke-miterlimit="10"/>
<path d="M46.3359 11.2891V12.9779" stroke="#C5C6C9" stroke-width="2" stroke-miterlimit="10"/>
<path d="M46.3359 14.6665V16.3554" stroke="#C5C6C9" stroke-width="2" stroke-miterlimit="10"/>
<path d="M46.3359 18.0444V19.7333" stroke="#C5C6C9" stroke-width="2" stroke-miterlimit="10"/>
<path d="M2.00195 11.2891V12.9779" stroke="#C5C6C9" stroke-width="2" stroke-miterlimit="10"/>
<path d="M2.00195 14.6665V16.3554" stroke="#C5C6C9" stroke-width="2" stroke-miterlimit="10"/>
<path d="M2.00195 18.0444V19.7333" stroke="#C5C6C9" stroke-width="2" stroke-miterlimit="10"/>
<path d="M23.377 2H24.9603" stroke="#C5C6C9" stroke-width="2" stroke-miterlimit="10"/>
<path d="M20.2109 2H21.7943" stroke="#C5C6C9" stroke-width="2" stroke-miterlimit="10"/>
<path d="M26.543 2H28.1263" stroke="#C5C6C9" stroke-width="2" stroke-miterlimit="10"/>
</svg>
