<svg width="63" height="56" viewBox="0 0 63 56" fill="none" xmlns="http://www.w3.org/2000/svg">
<path d="M29.3333 37.3214C39.6394 37.3214 47.994 28.9667 47.994 18.6607C47.994 8.35469 39.6394 0 29.3333 0C19.0273 0 10.6726 8.35469 10.6726 18.6607C10.6726 28.9667 19.0273 37.3214 29.3333 37.3214Z" fill="#E4E5E7"/>
<path d="M19.5117 13.75V19.6429" stroke="#C5C6C9" stroke-width="2" stroke-miterlimit="10"/>
<path d="M22.4583 16.6964H16.5654" stroke="#C5C6C9" stroke-width="2" stroke-miterlimit="10"/>
<path d="M59.7798 22.5892V28.4821" stroke="#C5C6C9" stroke-width="2" stroke-miterlimit="10"/>
<path d="M62.7261 25.5358H56.8333" stroke="#C5C6C9" stroke-width="2" stroke-miterlimit="10"/>
<path d="M10.6726 52.0536C10.6726 52.0536 27.5655 52.0536 31.2976 52.0536C34.1458 52.0536 44.3601 49.0089 45.4405 48.2232C46.5208 47.4375 53.1012 39.875 54.7708 37.6161C54.378 36.5357 52.7083 35.5536 50.4494 35.75C47.8958 36.0446 44.6547 40.9553 44.4583 41.0536L36.503 42.8214C36.2083 42.7232 33.4583 41.8393 30.8065 41.1518C29.9226 40.9554 28.3512 38.8929 28.3512 38.6964C28.3512 37.7143 28.744 37.7143 30.3155 36.9286C31.3958 36.3393 34.8333 35.75 36.0119 33C37.0923 30.5447 36.4047 28.0893 31.9851 29.8571C30.119 30.5446 22.2619 32.8036 18.9226 34.1786C17.6458 35.4553 15.7798 38.1071 14.4048 39.0893H10.6726V52.0536Z" fill="white" stroke="#404145" stroke-width="2" stroke-miterlimit="10"/>
<path d="M36.6993 18.0715C36.6993 15.5179 34.6368 13.3572 31.985 13.3572C29.4315 13.3572 27.2708 15.4197 27.2708 18.0715C27.2708 20.625 29.3333 22.7858 31.985 22.7858C34.6368 22.7858 36.6993 20.7232 36.6993 18.0715Z" fill="#A6EACA" stroke="#404145" stroke-width="2" stroke-miterlimit="10"/>
<path d="M51.628 8.15177C51.628 5.5982 49.5655 3.4375 46.9137 3.4375C44.3602 3.4375 42.1995 5.49999 42.1995 8.15177C42.1995 10.7053 44.262 12.8661 46.9137 12.8661C49.5655 12.8661 51.628 10.8036 51.628 8.15177Z" fill="#A6EACA" stroke="#404145" stroke-width="2" stroke-miterlimit="10"/>
<path d="M45.2438 32.0178C47.8475 32.0178 49.9581 29.9071 49.9581 27.3035C49.9581 24.6999 47.8475 22.5892 45.2438 22.5892C42.6402 22.5892 40.5295 24.6999 40.5295 27.3035C40.5295 29.9071 42.6402 32.0178 45.2438 32.0178Z" fill="#A6EACA" stroke="#404145" stroke-width="2" stroke-miterlimit="10"/>
<path d="M11.6547 34.375H1.83325V55H11.6547V34.375Z" fill="#A6EACA" stroke="#404145" stroke-width="2" stroke-miterlimit="10"/>
<path d="M6.7439 38.3036V41.25" stroke="#404145" stroke-width="2" stroke-miterlimit="10"/>
<path d="M32.2798 8.83923V16.6964" stroke="#404145" stroke-width="2" stroke-miterlimit="10"/>
<path d="M32.2798 4.91077V6.87505" stroke="#404145" stroke-width="2" stroke-miterlimit="10"/>
<path d="M56.8333 3.92859V18.6607" stroke="#C5C6C9" stroke-width="2" stroke-miterlimit="10"/>
</svg>
