<svg width="184" height="42" viewBox="0 0 184 42" fill="none" xmlns="http://www.w3.org/2000/svg">
<rect x="0.793457" width="183" height="42" rx="4" fill="#1DBF73"/>
<g clip-path="url(#clip0_670:69617)">
<path d="M37.9084 21.5314C37.8994 20.0009 38.5929 18.8474 39.9932 17.9969C39.21 16.8748 38.0251 16.2576 36.4632 16.1387C34.9842 16.022 33.3662 17.0005 32.7737 17.0005C32.1476 17.0005 30.7158 16.1791 29.5893 16.1791C27.2643 16.215 24.7935 18.0328 24.7935 21.7312C24.7935 22.8241 24.9932 23.9529 25.3927 25.1154C25.9268 26.6459 27.8523 30.3959 29.8608 30.3353C30.9111 30.3106 31.6539 29.5903 33.0206 29.5903C34.3469 29.5903 35.0336 30.3353 36.2051 30.3353C38.2316 30.3062 39.973 26.8973 40.4802 25.3622C37.7625 24.0808 37.9084 21.61 37.9084 21.5314V21.5314ZM35.5498 14.6867C36.6876 13.3357 36.5843 12.1059 36.5507 11.6638C35.5453 11.7222 34.3828 12.3483 33.7208 13.118C32.9914 13.9439 32.5628 14.965 32.6548 16.1163C33.741 16.1993 34.7329 15.6405 35.5498 14.6867V14.6867Z" fill="white"/>
<path d="M54.7042 22.744L51.1842 15.16H48.4802V26.68H50.3362V17.48L53.9042 25.08H55.4882L59.0402 17.512V26.68H60.9122V15.16H58.2082L54.7042 22.744Z" fill="white"/>
<path d="M66.588 18.056C64.684 18.056 63.116 19.048 62.972 20.936H64.812C64.908 20.104 65.676 19.56 66.556 19.56C67.42 19.56 68.188 20.024 68.188 21V21.288L66.844 21.432C64.732 21.656 62.988 22.376 62.988 24.504C62.988 26.008 64.252 26.84 65.596 26.84C67.004 26.84 67.66 26.328 68.172 25.56V26.68H70.044V21.16C70.044 18.792 68.348 18.056 66.588 18.056ZM66.092 25.336C65.356 25.336 64.892 24.904 64.892 24.328C64.892 23.48 65.708 22.984 66.828 22.84L68.172 22.664V23.256C68.172 24.584 67.244 25.336 66.092 25.336Z" fill="white"/>
<path d="M79.8764 21.192C79.6364 19.128 78.0364 18.056 75.9564 18.056C73.6524 18.056 71.7964 19.848 71.7964 22.568C71.7964 25.288 73.7164 26.92 76.0044 26.92C78.0364 26.92 79.6843 25.832 79.8923 23.768H77.9724C77.7804 24.76 77.0124 25.224 76.0204 25.224C74.8044 25.224 73.7484 24.232 73.7484 22.52C73.7484 20.84 74.8044 19.768 76.0204 19.768C76.9484 19.768 77.7163 20.216 77.9403 21.192H79.8764Z" fill="white"/>
<path d="M90.2692 18.056C87.8852 18.056 86.0932 19.816 86.0932 22.504C86.0932 25.208 87.9012 26.92 90.2852 26.92C92.2052 26.92 93.7252 26.072 94.1092 24.072H92.1412C91.9172 24.92 91.2132 25.368 90.2852 25.368C89.0532 25.368 88.0932 24.392 87.9812 22.824H94.1892C94.2212 22.632 94.2212 22.488 94.2212 22.312C94.2372 19.672 92.6212 18.056 90.2692 18.056ZM88.0772 21.432C88.3812 20.184 89.2452 19.592 90.3172 19.592C91.3252 19.592 92.0932 20.264 92.1572 21.432H88.0772Z" fill="white"/>
<path d="M100.067 22.392L103.011 18.296H100.835L98.9786 20.872L97.1226 18.296H94.9466L97.8906 22.392L94.8026 26.68H97.0106L98.9786 23.928L100.947 26.68H103.155L100.067 22.392Z" fill="white"/>
<path d="M108.87 25.16C108.118 25.16 107.59 24.792 107.59 23.896V19.832H109.654V18.296H107.59V15.512L105.654 16.488V18.296H104.022V19.832H105.654V23.896C105.654 26.056 106.838 26.76 108.534 26.76C109.014 26.76 109.462 26.68 109.862 26.568V25.016C109.542 25.112 109.094 25.16 108.87 25.16Z" fill="white"/>
<path d="M114.925 18.056C112.541 18.056 110.749 19.816 110.749 22.504C110.749 25.208 112.557 26.92 114.941 26.92C116.861 26.92 118.381 26.072 118.765 24.072H116.797C116.573 24.92 115.869 25.368 114.941 25.368C113.709 25.368 112.749 24.392 112.637 22.824H118.845C118.877 22.632 118.877 22.488 118.877 22.312C118.893 19.672 117.277 18.056 114.925 18.056ZM112.733 21.432C113.037 20.184 113.901 19.592 114.973 19.592C115.981 19.592 116.749 20.264 116.813 21.432H112.733Z" fill="white"/>
<path d="M125.385 18.056C123.833 18.056 122.953 18.888 122.601 19.448V18.296H120.665V26.68H122.601V22.04C122.601 20.792 123.497 19.752 124.713 19.752C125.705 19.752 126.281 20.536 126.281 21.528V26.68H128.217V21.112C128.217 19.432 127.177 18.056 125.385 18.056Z" fill="white"/>
<path d="M129.937 23.896C129.985 26.104 131.841 26.92 133.601 26.92C135.201 26.92 136.961 26.248 136.961 24.28C136.961 22.984 136.081 21.992 134.257 21.672C133.057 21.464 132.193 21.192 132.193 20.536C132.193 19.864 132.913 19.56 133.569 19.56C134.433 19.56 135.089 20.104 135.105 20.856H136.993C136.945 18.872 135.105 18.072 133.521 18.072C132.033 18.072 130.273 18.856 130.273 20.648C130.273 22.36 131.729 22.904 133.537 23.24C134.417 23.4 135.041 23.736 135.041 24.424C135.041 25.112 134.401 25.432 133.617 25.432C132.625 25.432 131.889 24.84 131.873 23.896H129.937Z" fill="white"/>
<path d="M139.829 17.192C140.437 17.192 140.901 16.728 140.901 16.104C140.901 15.544 140.437 15.08 139.829 15.08C139.141 15.08 138.693 15.544 138.693 16.104C138.693 16.728 139.141 17.192 139.829 17.192ZM140.757 26.68V18.296H138.821V26.68H140.757Z" fill="white"/>
<path d="M142.546 22.504C142.546 25.336 144.45 26.92 146.738 26.92C149.042 26.92 150.914 25.336 150.914 22.504C150.914 19.672 149.042 18.056 146.738 18.056C144.45 18.056 142.546 19.672 142.546 22.504ZM144.498 22.504C144.498 20.616 145.586 19.736 146.738 19.736C147.906 19.736 148.962 20.616 148.962 22.504C148.962 24.392 147.906 25.256 146.738 25.256C145.586 25.256 144.498 24.392 144.498 22.504Z" fill="white"/>
<path d="M157.416 18.056C155.864 18.056 154.984 18.888 154.632 19.448V18.296H152.696V26.68H154.632V22.04C154.632 20.792 155.528 19.752 156.744 19.752C157.736 19.752 158.312 20.536 158.312 21.528V26.68H160.248V21.112C160.248 19.432 159.208 18.056 157.416 18.056Z" fill="white"/>
</g>
<defs>
<clipPath id="clip0_670:69617">
<rect width="135.455" height="24.6722" fill="white" transform="translate(24.7935 8.66382)"/>
</clipPath>
</defs>
</svg>
