<svg width="61" height="57" viewBox="0 0 61 57" fill="none" xmlns="http://www.w3.org/2000/svg">
<path d="M59.6315 41.5161C53.5526 50.0073 43.7104 55.5073 32.5175 55.5073C18.7192 55.5073 6.8508 47.1126 1.83325 35.1477" stroke="#404145" stroke-width="2" stroke-miterlimit="10"/>
<path d="M32.614 0.507324C19.7806 0.507324 9.45605 10.8319 9.45605 23.6652C9.45605 29.3582 11.5789 34.6652 14.9561 38.6214L16.9824 34.9548H18.9122L20.842 32.06L22.7718 31.0951L27.5964 37.8495H30.4911L34.0613 43.3495L39.5613 33.9899L42.649 36.0161L46.5087 42.0951C52.1052 37.8495 55.6754 31.1915 55.6754 23.6652C55.7718 10.8319 45.3508 0.507324 32.614 0.507324Z" fill="#E4E5E7"/>
<path d="M34.0613 43.253L39.5613 33.9899L42.7455 36.0161L46.8946 42.7705H49.7893L51.7192 45.6653" stroke="#404145" stroke-width="2" stroke-miterlimit="10"/>
<path d="M12.1577 43.639L16.9823 34.9548H18.9121L20.8419 32.06L22.7717 31.0951L27.5963 37.8495H30.491L39.1753 51.3583" stroke="#404145" stroke-width="2" stroke-miterlimit="10"/>
<path d="M35.3156 11.7969H22.7717V19.5162H35.3156V11.7969Z" fill="#FFD3E2" stroke="#404145" stroke-width="2" stroke-miterlimit="10"/>
<path d="M43.9999 23.3758H31.4561V15.6565H43.9999L41.1052 19.5162L43.9999 23.3758Z" fill="#FFD3E2" stroke="#404145" stroke-width="2" stroke-miterlimit="10"/>
<path d="M22.7717 31.3845V8.90213" stroke="#404145" stroke-width="2" stroke-miterlimit="10"/>
<path d="M15.0524 23.3758C12.3507 23.3758 10.2279 25.0162 10.2279 27.2355C10.2279 25.0162 8.10507 23.3758 5.40332 23.3758" stroke="#C5C6C9" stroke-width="2" stroke-miterlimit="10"/>
<path d="M48.8244 4.07756C46.1227 4.07756 43.9999 5.71791 43.9999 7.93721C43.9999 5.71791 41.877 4.07756 39.1753 4.07756" stroke="#C5C6C9" stroke-width="2" stroke-miterlimit="10"/>
<path d="M60.4035 27.2355C57.7018 27.2355 55.579 28.8758 55.579 31.0951C55.579 28.8758 53.4561 27.2355 50.7544 27.2355" stroke="#C5C6C9" stroke-width="2" stroke-miterlimit="10"/>
</svg>
