<svg width="70" height="56" viewBox="0 0 70 56" fill="none" xmlns="http://www.w3.org/2000/svg">
<path d="M38.1266 10.3259C49.6516 12.1845 57.4878 23.034 55.6292 34.559C53.7706 46.084 42.9211 53.9202 31.3961 52.0616C19.8711 50.203 12.0349 39.3535 13.8935 27.8285C15.7521 16.3035 26.6016 8.46734 38.1266 10.3259Z" fill="#E4E5E7" stroke="#E4E5E7"/>
<path d="M58.2922 38.3263C60.3479 35.7297 61.4298 32.2675 61.4298 28.8054C61.4298 25.3432 60.3479 21.8811 58.2922 19.2845" stroke="#C5C6C9" stroke-width="2" stroke-miterlimit="10"/>
<path d="M61.9707 11.0618C65.8656 15.9305 68.0295 22.3138 68.0295 28.8053C68.0295 35.2969 65.8656 41.572 62.0789 46.4406" stroke="#C5C6C9" stroke-width="2" stroke-miterlimit="10"/>
<path d="M10.9039 38.3263C8.84828 35.7297 7.76636 32.2675 7.76636 28.8054C7.76636 25.3432 8.84828 21.8811 10.9039 19.2845" stroke="#C5C6C9" stroke-width="2" stroke-miterlimit="10"/>
<path d="M7.2255 11.0618C3.33059 15.9305 1.16675 22.3138 1.16675 28.8053C1.16675 35.2969 3.33059 41.572 7.11731 46.4406" stroke="#C5C6C9" stroke-width="2" stroke-miterlimit="10"/>
<path d="M37.5192 4.02936C37.5192 5.65224 36.2209 7.05873 34.4898 7.05873C32.8669 7.05873 31.4604 5.76044 31.4604 4.02936C31.4604 2.40648 32.7588 1 34.4898 1C36.1127 1 37.5192 2.29829 37.5192 4.02936Z" stroke="#404145" stroke-width="2" stroke-miterlimit="10"/>
<path d="M41.1979 37.6771C41.1979 40.8147 38.1685 43.3031 34.3818 43.3031C30.5951 43.3031 27.5657 40.8147 27.5657 37.6771C27.5657 34.5396 30.5951 32.0511 34.3818 32.0511C38.1685 32.0511 41.1979 34.5396 41.1979 37.6771Z" fill="white" stroke="#404145" stroke-width="2" stroke-miterlimit="10"/>
<path d="M51.0433 28.9135C49.745 27.507 46.932 24.694 46.2828 18.4189C45.7419 12.0356 40.8732 6.95056 34.4899 6.95056C28.1066 6.95056 23.2379 12.0356 22.697 18.4189C22.156 24.694 19.343 27.507 17.9365 28.9135C16.8546 30.6446 16.53 33.5658 16.53 34.7559C20.8577 36.9198 26.9165 37.7853 34.7063 37.7853C42.4961 37.7853 48.0139 36.9198 52.3416 34.7559C52.4498 33.5658 52.1252 30.7528 51.0433 28.9135Z" fill="#FFD3E2" stroke="#404145" stroke-width="2" stroke-miterlimit="10"/>
<path d="M32.4343 10.9537C31.136 11.1701 29.2967 12.4683 28.2148 13.983C27.1329 15.4977 26.3756 17.5534 26.5919 18.8517" stroke="#404145" stroke-width="2" stroke-miterlimit="10"/>
</svg>
