<svg width="56" height="55" viewBox="0 0 56 55" fill="none" xmlns="http://www.w3.org/2000/svg">
<path d="M46.2607 13H51.2607V12C51.2607 9.79 49.4707 8 47.2607 8H40.2607" stroke="#404145" stroke-width="1.5" stroke-miterlimit="10"/>
<path d="M34.6508 43H13.5508C14.2108 45 16.4208 47 18.4208 47H38.8208C36.8208 47 35.1508 45 34.6508 43Z" fill="#A6EACA" stroke="#404145" stroke-width="1.5" stroke-miterlimit="10"/>
<path d="M23.2607 16H39.2607" stroke="#404145" stroke-width="1.5" stroke-miterlimit="10"/>
<path d="M23.2607 20H39.2607" stroke="#404145" stroke-width="1.5" stroke-miterlimit="10"/>
<path d="M23.2607 24H37.2607" stroke="#404145" stroke-width="1.5" stroke-miterlimit="10"/>
<path d="M33.2607 37H39.2607" stroke="#404145" stroke-width="1.5" stroke-miterlimit="10"/>
<path d="M28.2607 37C28.2607 37 28.1308 33.87 26.2607 32C24.3907 30.13 10.2608 16 10.2608 16C9.33075 15.07 7.89075 14.86 7.06075 15.68C6.24075 16.5 6.33075 18.07 7.26075 19C7.26075 19 21.3907 33.13 23.2607 35C25.1308 36.87 28.2607 37 28.2607 37Z" fill="#A6EACA" stroke="#404145" stroke-width="1.5" stroke-miterlimit="10"/>
<path d="M10.4106 21.21L12.6006 19.02" stroke="#404145" stroke-width="1.5" stroke-miterlimit="10"/>
<path d="M30.2607 37H32.2607" stroke="#404145" stroke-width="1.5" stroke-miterlimit="10"/>
<path d="M19.2607 25V12C19.2607 9.79 21.0507 8 23.2607 8H47.8007H47.7807C45.4007 8 43.2707 9.72 43.2707 12.13V43C43.2707 45.4 41.6507 47 39.2707 47H38.2707" stroke="#404145" stroke-width="1.5" stroke-miterlimit="10"/>
<path d="M19.2607 43V31" stroke="#404145" stroke-width="1.5" stroke-miterlimit="10"/>
</svg>
