<svg width="58" height="58" viewBox="0 0 58 58" fill="none" xmlns="http://www.w3.org/2000/svg">
<path d="M40.471 28.9795C40.471 35.6286 35.0808 41.0187 28.4318 41.0187C21.7827 41.0187 16.3926 35.6286 16.3926 28.9795C16.3926 22.3304 21.7827 16.9403 28.4318 16.9403C35.0808 16.9403 40.471 22.3304 40.471 28.9795Z" fill="#E4E5E7" stroke="#E4E5E7"/>
<path d="M23.3192 14.7041C27.8526 14.5112 32.0002 16.5367 34.701 19.8162L30.4569 22.517L45.8898 28.9795V12.5821L41.9351 15.2828C38.4627 11.6175 33.3506 9.20614 27.8526 9.39905C20.8114 9.68841 14.8312 13.9324 11.9375 19.9127L12.6127 20.395C14.9276 17.1155 18.8823 14.897 23.3192 14.7041Z" fill="#FFD3E2" stroke="#404145" stroke-width="2" stroke-miterlimit="10"/>
<path d="M44.4439 36.4065C42.0325 39.686 38.1743 41.9045 33.6409 42.0974C29.1075 42.2903 24.9599 40.2647 22.2591 36.9852L26.5032 34.2845L11.0703 28.0149V44.4123L15.1215 41.5187C18.5938 45.184 23.706 47.5954 29.2039 47.4024C36.2452 47.1131 42.2254 42.869 45.1191 36.8888L44.4439 36.4065Z" fill="#FFD3E2" stroke="#404145" stroke-width="2" stroke-miterlimit="10"/>
<path d="M30.0713 1.00732C45.2148 1.58606 57.0788 14.4146 56.4036 29.5581C56.4036 30.2333 56.3072 30.812 56.2107 31.4872" stroke="#C5C6C9" stroke-width="2" stroke-miterlimit="10"/>
<path d="M17.9182 3.32222C8.56206 7.37335 1.90663 16.5366 1.52081 27.4361C1.3279 32.4517 2.48538 37.1781 4.6074 41.3256" stroke="#C5C6C9" stroke-width="2" stroke-miterlimit="10"/>
<path d="M12.6128 50.6819C16.8568 53.8649 22.0654 55.794 27.7563 55.9869C37.8841 56.3727 47.0474 51.2606 52.0631 43.2548" stroke="#C5C6C9" stroke-width="2" stroke-miterlimit="10"/>
</svg>
