<svg width="68" height="57" viewBox="0 0 68 57" fill="none" xmlns="http://www.w3.org/2000/svg">
<path d="M46.1763 51.7693C57.5671 51.7693 66.8013 42.5352 66.8013 31.1443C66.8013 19.7534 57.5671 10.5193 46.1763 10.5193C34.7854 10.5193 25.5513 19.7534 25.5513 31.1443C25.5513 42.5352 34.7854 51.7693 46.1763 51.7693Z" fill="#E4E5E7"/>
<path d="M20.2629 43.3077H7.57056V56H20.2629V43.3077Z" fill="#A6EACA" stroke="#404145" stroke-width="2" stroke-miterlimit="10"/>
<path d="M32.9552 27.4423H20.2629V56H32.9552V27.4423Z" fill="#E4E5E7" stroke="#404145" stroke-width="2" stroke-miterlimit="10"/>
<path d="M45.6476 36.9615H32.9553V56H45.6476V36.9615Z" fill="#A6EACA" stroke="#404145" stroke-width="2" stroke-miterlimit="10"/>
<path d="M58.3398 22.1538H45.6475V56H58.3398V22.1538Z" fill="white" stroke="#404145" stroke-width="2" stroke-miterlimit="10"/>
<path d="M48.8206 1H58.3398V10.5192" stroke="#404145" stroke-width="2" stroke-miterlimit="10"/>
<path d="M25.5514 1L17.0898 9.46154" stroke="#C5C6C9" stroke-width="2" stroke-miterlimit="10"/>
<path d="M14.9745 11.5769L12.8591 13.6923" stroke="#C5C6C9" stroke-width="2" stroke-miterlimit="10"/>
<path d="M65.7437 56H67.859" stroke="#404145" stroke-width="2" stroke-miterlimit="10"/>
<path d="M0.166748 56H2.28213" stroke="#404145" stroke-width="2" stroke-miterlimit="10"/>
<path d="M63.6282 56H4.39746" stroke="#404145" stroke-width="2" stroke-miterlimit="10"/>
<path d="M58.3399 1L38.2438 21.0962L27.6668 10.5192L16.0322 22.1538" stroke="#404145" stroke-width="2" stroke-miterlimit="10"/>
<path d="M13.9167 24.2693L10.7437 27.4424" stroke="#404145" stroke-width="2" stroke-miterlimit="10"/>
<path d="M8.62832 29.5577L6.51294 31.6731" stroke="#404145" stroke-width="2" stroke-miterlimit="10"/>
<path d="M4.39761 33.7885L2.28223 35.9038" stroke="#404145" stroke-width="2" stroke-miterlimit="10"/>
<path d="M10.7436 15.8077L8.62817 17.9231" stroke="#C5C6C9" stroke-width="2" stroke-miterlimit="10"/>
<path d="M6.51285 20.0385L4.39746 22.1538" stroke="#C5C6C9" stroke-width="2" stroke-miterlimit="10"/>
</svg>
