<svg width="61" height="55" viewBox="0 0 61 55" fill="none" xmlns="http://www.w3.org/2000/svg">
<path d="M27.9397 55C43.1275 55 55.4397 42.6878 55.4397 27.5C55.4397 12.3122 43.1275 0 27.9397 0C12.7519 0 0.439697 12.3122 0.439697 27.5C0.439697 42.6878 12.7519 55 27.9397 55Z" fill="#E4E5E7"/>
<path d="M57.7156 9.48279V15.1724" stroke="#C5C6C9" stroke-width="2" stroke-miterlimit="10"/>
<path d="M60.5605 12.3276H54.8708" stroke="#C5C6C9" stroke-width="2" stroke-miterlimit="10"/>
<path d="M7.45703 34.1379V39.8276" stroke="#C5C6C9" stroke-width="2" stroke-miterlimit="10"/>
<path d="M10.3017 36.9828H4.61206" stroke="#C5C6C9" stroke-width="2" stroke-miterlimit="10"/>
<path d="M44.4398 2.84485H11.2501C9.16393 2.84485 7.45703 4.55175 7.45703 6.63795V24.6552C7.45703 26.7414 9.16393 28.4483 11.2501 28.4483H44.4398C46.526 28.4483 48.2329 26.7414 48.2329 24.6552V6.63795C48.2329 4.55175 46.526 2.84485 44.4398 2.84485Z" fill="white"/>
<path d="M48.2329 19.9138V6.63795C48.2329 4.55175 46.526 2.84485 44.4398 2.84485H11.2501C9.16393 2.84485 7.45703 4.55175 7.45703 6.63795V21.1466V24.6552C7.45703 26.7414 9.16393 28.4483 11.2501 28.4483H14.095" stroke="#404145" stroke-width="2" stroke-miterlimit="10"/>
<path d="M48.2329 7.58618H7.45703" stroke="#404145" stroke-width="2" stroke-miterlimit="10"/>
<path d="M48.2329 13.2759H7.45703" stroke="#404145" stroke-width="2" stroke-miterlimit="10"/>
<path d="M19.7846 21.8104C17.6984 21.8104 15.9915 23.5173 15.9915 25.6035V45.5173C15.9915 47.6035 17.6984 49.3104 19.7846 49.3104H52.9742C55.0604 49.3104 56.7673 47.6035 56.7673 45.5173V25.6035C56.7673 23.5173 55.0604 21.8104 52.9742 21.8104H19.7846Z" fill="#A6EACA" stroke="#404145" stroke-width="2" stroke-miterlimit="10"/>
<path d="M21.6812 42.6724H27.3708" stroke="#404145" stroke-width="2" stroke-miterlimit="10"/>
<path d="M30.2156 42.6724H34.957" stroke="#404145" stroke-width="2" stroke-miterlimit="10"/>
<path d="M37.8018 42.6724H43.4914" stroke="#404145" stroke-width="2" stroke-miterlimit="10"/>
<path d="M46.3362 42.6724H52.0258" stroke="#404145" stroke-width="2" stroke-miterlimit="10"/>
<path d="M52.0259 30.819C52.0259 32.6207 50.5087 34.1379 48.7069 34.1379H47.7587C45.9569 34.1379 44.4397 32.6207 44.4397 30.819C44.4397 29.0172 45.9569 27.5 47.7587 27.5H48.7069C50.5087 27.5 52.0259 29.0172 52.0259 30.819Z" fill="white" stroke="#404145" stroke-width="2" stroke-miterlimit="10"/>
<path d="M10.3018 17.069H18.8362" stroke="#404145" stroke-width="2" stroke-miterlimit="10"/>
<path d="M20.7329 17.069H29.2674" stroke="#404145" stroke-width="2" stroke-miterlimit="10"/>
</svg>
