<svg width="58" height="57" viewBox="0 0 58 57" fill="none" xmlns="http://www.w3.org/2000/svg">
<path d="M31.8596 49.7281C42.7841 49.7281 51.6403 40.872 51.6403 29.9474C51.6403 19.0228 42.7841 10.1667 31.8596 10.1667C20.935 10.1667 12.0789 19.0228 12.0789 29.9474C12.0789 40.872 20.935 49.7281 31.8596 49.7281Z" fill="white"/>
<path d="M12.0789 28.9825C12.1753 27.3421 12.4648 25.7018 12.9473 24.1579" stroke="#404145" stroke-width="1.8" stroke-miterlimit="10"/>
<path d="M13.2369 36.7018C12.658 35.1579 12.272 33.5175 12.1755 31.8772" stroke="#404145" stroke-width="1.8" stroke-miterlimit="10"/>
<path d="M14.1052 21.2632C17.2894 14.7018 24.0438 10.1667 31.8596 10.1667C42.7631 10.1667 51.6403 19.0439 51.6403 29.9474C51.6403 40.8509 42.7631 49.7281 31.8596 49.7281C24.4298 49.7281 17.9649 45.6755 14.5877 39.5965" stroke="#404145" stroke-width="1.8" stroke-miterlimit="10"/>
<path d="M21.6316 19.3333C24.2369 16.8246 27.9035 15.2807 31.8597 15.2807C39.9649 15.2807 46.5263 21.8421 46.5263 30.0439C46.5263 38.2456 39.9649 44.7105 31.8597 44.7105C27.9035 44.7105 24.3334 43.1667 21.7281 40.6579" stroke="#404145" stroke-width="1.8" stroke-miterlimit="10"/>
<path d="M31.3772 40.5614C37.2392 40.5614 41.9913 35.8093 41.9913 29.9473C41.9913 24.0854 37.2392 19.3333 31.3772 19.3333C25.5152 19.3333 20.7632 24.0854 20.7632 29.9473C20.7632 35.8093 25.5152 40.5614 31.3772 40.5614Z" fill="#E4E5E7"/>
<path d="M21.7279 3.89471H15.9385" stroke="#C5C6C9" stroke-width="1.8" stroke-miterlimit="10"/>
<path d="M56.465 21.0702C54.5351 15.6667 50.8685 11.1316 46.1404 8.04387C44.5965 6.98246 42.8597 6.21053 41.0264 5.5351" stroke="#C5C6C9" stroke-width="1.8" stroke-miterlimit="10"/>
<path d="M53.4738 45.6754C48.7457 51.9473 41.2194 56 32.8247 56H19.7983" stroke="#C5C6C9" stroke-width="1.8" stroke-miterlimit="10"/>
<path d="M29.4473 7.75436V4.85962H34.2718V7.75436" stroke="#404145" stroke-width="1.8" stroke-miterlimit="10"/>
<path d="M37.1668 1H26.5527V4.85965H37.1668V1Z" fill="#FFD3E2" stroke="#404145" stroke-width="1.8" stroke-miterlimit="10"/>
<path d="M5.32446 21.2632H18.8332" stroke="#404145" stroke-width="1.8" stroke-miterlimit="10"/>
<path d="M0.5 28.9825H15.9386" stroke="#404145" stroke-width="1.8" stroke-miterlimit="10"/>
<path d="M4.35962 36.7018H17.8684" stroke="#404145" stroke-width="1.8" stroke-miterlimit="10"/>
<path d="M34.0789 27.6316L40.0613 21.2632" stroke="#404145" stroke-width="1.8" stroke-miterlimit="10"/>
<path d="M17.8684 56H14.0088" stroke="#C5C6C9" stroke-width="1.8" stroke-miterlimit="10"/>
<path d="M12.079 56H10.1492" stroke="#C5C6C9" stroke-width="1.8" stroke-miterlimit="10"/>
<path d="M14.0088 3.89471H10.1492" stroke="#C5C6C9" stroke-width="1.8" stroke-miterlimit="10"/>
<path d="M8.21938 3.89471H6.28955" stroke="#C5C6C9" stroke-width="1.8" stroke-miterlimit="10"/>
<path d="M31.8597 32.6491C33.3518 32.6491 34.5614 31.4395 34.5614 29.9474C34.5614 28.4552 33.3518 27.2456 31.8597 27.2456C30.3676 27.2456 29.158 28.4552 29.158 29.9474C29.158 31.4395 30.3676 32.6491 31.8597 32.6491Z" fill="#FFD3E2" stroke="#404145" stroke-width="1.8" stroke-miterlimit="10"/>
<path d="M18.0613 10.7456L14.5876 14.3158" stroke="#404145" stroke-width="2" stroke-miterlimit="10"/>
<path d="M16.3245 12.5789L18.8332 15.0877" stroke="#404145" stroke-width="2" stroke-miterlimit="10"/>
</svg>
