<svg width="58" height="57" viewBox="0 0 58 57" fill="none" xmlns="http://www.w3.org/2000/svg">
<path d="M32.1928 49.728C43.1174 49.728 51.9735 40.8719 51.9735 29.9473C51.9735 19.0227 43.1174 10.1666 32.1928 10.1666C21.2682 10.1666 12.4121 19.0227 12.4121 29.9473C12.4121 40.8719 21.2682 49.728 32.1928 49.728Z" fill="white"/>
<path d="M12.4121 28.9824C12.5086 27.342 12.7981 25.7017 13.2805 24.1578" stroke="#404145" stroke-width="1.8" stroke-miterlimit="10"/>
<path d="M13.5702 36.7018C12.9913 35.1579 12.6053 33.5175 12.5088 31.8772" stroke="#404145" stroke-width="1.8" stroke-miterlimit="10"/>
<path d="M14.4385 21.2631C17.6227 14.7017 24.3771 10.1666 32.1929 10.1666C43.0964 10.1666 51.9736 19.0438 51.9736 29.9473C51.9736 40.8508 43.0964 49.728 32.1929 49.728C24.763 49.728 18.2981 45.6754 14.9209 39.5965" stroke="#404145" stroke-width="1.8" stroke-miterlimit="10"/>
<path d="M21.9648 19.3334C24.5701 16.8246 28.2368 15.2808 32.1929 15.2808C40.2982 15.2808 46.8596 21.8422 46.8596 30.0439C46.8596 38.2457 40.2982 44.7106 32.1929 44.7106C28.2368 44.7106 24.6666 43.1667 22.0613 40.658" stroke="#404145" stroke-width="1.8" stroke-miterlimit="10"/>
<path d="M31.7105 40.5614C37.5724 40.5614 42.3245 35.8094 42.3245 29.9474C42.3245 24.0854 37.5724 19.3334 31.7105 19.3334C25.8485 19.3334 21.0964 24.0854 21.0964 29.9474C21.0964 35.8094 25.8485 40.5614 31.7105 40.5614Z" fill="#E4E5E7"/>
<path d="M22.0612 3.89478H16.2717" stroke="#C5C6C9" stroke-width="1.8" stroke-miterlimit="10"/>
<path d="M56.7982 21.0701C54.8684 15.6666 51.2017 11.1315 46.4736 8.04381C44.9298 6.9824 43.193 6.21047 41.3596 5.53503" stroke="#C5C6C9" stroke-width="1.8" stroke-miterlimit="10"/>
<path d="M53.807 45.6754C49.079 51.9473 41.5526 56 33.1579 56H20.1316" stroke="#C5C6C9" stroke-width="1.8" stroke-miterlimit="10"/>
<path d="M29.7805 7.75436V4.85962H34.6051V7.75436" stroke="#404145" stroke-width="1.8" stroke-miterlimit="10"/>
<path d="M37.5 1H26.886V4.85965H37.5V1Z" fill="#A6EACA" stroke="#404145" stroke-width="1.8" stroke-miterlimit="10"/>
<path d="M5.65771 21.2632H19.1665" stroke="#404145" stroke-width="1.8" stroke-miterlimit="10"/>
<path d="M0.833252 28.9824H16.2718" stroke="#404145" stroke-width="1.8" stroke-miterlimit="10"/>
<path d="M4.69287 36.7018H18.2016" stroke="#404145" stroke-width="1.8" stroke-miterlimit="10"/>
<path d="M34.4121 27.6316L40.3946 21.2632" stroke="#404145" stroke-width="1.8" stroke-miterlimit="10"/>
<path d="M18.2017 56H14.342" stroke="#C5C6C9" stroke-width="1.8" stroke-miterlimit="10"/>
<path d="M12.4122 56H10.4824" stroke="#C5C6C9" stroke-width="1.8" stroke-miterlimit="10"/>
<path d="M14.3421 3.89478H10.4824" stroke="#C5C6C9" stroke-width="1.8" stroke-miterlimit="10"/>
<path d="M8.55263 3.89478H6.6228" stroke="#C5C6C9" stroke-width="1.8" stroke-miterlimit="10"/>
<path d="M32.193 32.6491C33.6851 32.6491 34.8947 31.4395 34.8947 29.9474C34.8947 28.4552 33.6851 27.2456 32.193 27.2456C30.7008 27.2456 29.4912 28.4552 29.4912 29.9474C29.4912 31.4395 30.7008 32.6491 32.193 32.6491Z" fill="#A6EACA" stroke="#404145" stroke-width="1.8" stroke-miterlimit="10"/>
<path d="M18.3946 10.7456L14.9209 14.3158" stroke="#404145" stroke-width="2" stroke-miterlimit="10"/>
<path d="M16.6577 12.579L19.1665 15.0878" stroke="#404145" stroke-width="2" stroke-miterlimit="10"/>
</svg>
