<svg width="55" height="55" viewBox="0 0 55 55" fill="none" xmlns="http://www.w3.org/2000/svg">
<path d="M50.1936 32.3064C52.8481 19.7731 44.8397 7.46089 32.3064 4.80638C19.7731 2.15187 7.46092 10.1602 4.80641 22.6936C2.1519 35.2269 10.1603 47.539 22.6936 50.1936C35.2269 52.8481 47.5391 44.8397 50.1936 32.3064Z" fill="#E4E5E7"/>
<path d="M37.1858 20.868L37.0201 20.7023C36.1088 19.7081 36.026 18.2997 36.7716 17.5541L40.1683 14.3231C41.411 13.1633 43.1508 12.9976 44.1449 13.9917L44.3106 14.1574C45.2219 15.1516 44.9734 16.8913 43.7307 18.0512L40.334 21.2822C39.5055 21.945 38.0971 21.7793 37.1858 20.868Z" fill="white" stroke="#404145" stroke-width="2" stroke-miterlimit="10"/>
<path d="M19.7052 25.0931L15.2315 23.4362L9.2666 42.3252C9.59799 42.5737 9.92938 42.9051 10.2608 43.1536C11.4206 44.1478 12.4148 45.3076 13.3261 46.5503L19.1253 47.3788C20.368 45.9704 21.3622 45.0591 22.4392 44.0649C30.8895 44.7277 34.8661 38.4314 35.6946 37.4372C36.6059 36.4431 19.7052 25.0931 19.7052 25.0931Z" fill="white" stroke="#404145" stroke-width="2" stroke-miterlimit="10"/>
<path d="M37.4343 38.2657H20.865C19.4566 38.2657 18.3796 37.1887 18.3796 35.7803V4.29874C18.3796 2.89036 19.4566 1.81335 20.865 1.81335H37.4343C38.8427 1.81335 39.9197 2.89036 39.9197 4.29874V35.7803C39.9197 37.1887 38.8427 38.2657 37.4343 38.2657Z" fill="#E4E5E7" stroke="#404145" stroke-width="2" stroke-miterlimit="10"/>
<path d="M39.9197 5.95563H18.3796V31.638H39.9197V5.95563Z" fill="white" stroke="#404145" stroke-width="2" stroke-miterlimit="10"/>
<path d="M39.4227 37.5201L39.257 37.3544C38.3457 36.5259 38.0143 35.3661 38.5114 34.7862L40.6654 32.3008C41.411 31.3895 42.8194 31.3066 43.8136 32.1351L43.9793 32.3008C44.8906 33.1292 45.0563 34.5376 44.2278 35.4489L42.0738 37.9343C41.5767 38.5143 40.4169 38.3486 39.4227 37.5201Z" fill="white" stroke="#404145" stroke-width="2" stroke-miterlimit="10"/>
<path d="M18.8769 25.0103C19.7054 22.442 20.1196 20.6194 20.3681 17.5541C20.5338 15.8143 19.7882 14.3231 19.0426 13.2461C18.2141 12.1691 16.3087 12.4176 15.9773 13.6603C14.2375 19.1282 13.989 20.6194 12.912 23.3533C11.7521 26.4186 12.4149 30.7266 11.835 31.9693C11.7521 32.2179 7.77549 37.2715 6.69849 38.8456C7.85833 39.4255 10.2609 40.5025 11.255 41.331C12.4149 42.3251 13.5747 43.5678 14.486 44.8105L15.3973 44.8934L20.6167 39.5084C22.7707 32.9635 20.8652 27.5785 18.8769 25.0103Z" fill="white"/>
<path d="M20.5338 39.4255C22.7707 32.9635 20.9481 27.5785 18.8769 25.0102C19.7054 22.442 20.1196 20.6194 20.3681 17.5541C20.5338 15.8143 19.7882 14.3231 19.0426 13.2461C18.2141 12.1691 16.3087 12.4176 15.9773 13.6603C14.2375 19.1282 13.989 20.6194 12.912 23.3533C11.7521 26.4186 12.4149 30.7266 11.835 31.9693C11.7521 32.2179 7.77549 37.2715 6.69849 38.8456C7.85833 39.4255 10.2609 40.5025 11.255 41.331C12.4149 42.3251 13.5747 43.5678 14.486 44.8105L15.3973 44.8934" stroke="#404145" stroke-width="2" stroke-miterlimit="10"/>
<path d="M8.16473 35.2335L3.6521 39.7423L16.4173 52.5183L20.9299 48.0095L8.16473 35.2335Z" fill="#A6EACA" stroke="#404145" stroke-width="2" stroke-miterlimit="10"/>
<path d="M39.5054 31.7208L39.3397 31.5551C38.4284 30.7266 38.0141 29.5668 38.5941 28.9869L40.8309 26.4186C41.6594 25.5073 43.0678 25.4245 43.9791 26.2529L44.1448 26.4186C45.0561 27.2471 45.2218 28.6555 44.3933 29.5668L42.1565 32.135C41.6594 32.715 40.4167 32.5493 39.5054 31.7208Z" fill="white" stroke="#404145" stroke-width="2" stroke-miterlimit="10"/>
<path d="M39.5054 26.0873L39.3397 25.9216C38.4284 25.0931 38.0141 23.9333 38.5941 23.3533L40.8309 20.7851C41.6594 19.8738 43.0678 19.7909 43.9791 20.6194L44.1448 20.7851C45.0561 21.6136 45.2218 23.0219 44.3933 23.9333L42.1565 26.5015C41.6594 27.0814 40.4167 26.9157 39.5054 26.0873Z" fill="white" stroke="#404145" stroke-width="2" stroke-miterlimit="10"/>
<path d="M26.6643 34.9518H31.6351" stroke="#404145" stroke-width="2" stroke-miterlimit="10"/>
<path d="M25.3389 15.8972C26.0016 14.406 27.41 13.4118 29.1498 13.4118C30.8067 13.4118 32.298 14.406 32.9607 15.8972" stroke="#404145" stroke-width="2" stroke-miterlimit="10"/>
<path d="M22.9363 13.4118C24.2618 11.4235 26.5815 10.098 29.1498 10.098C31.718 10.098 34.0377 11.4235 35.3632 13.4118" stroke="#404145" stroke-width="2" stroke-miterlimit="10"/>
<path d="M26.6643 24.1818C26.6643 25.0931 27.4099 25.8388 28.3212 25.8388H30.2267C31.0552 25.8388 31.6351 25.176 31.6351 24.4304C31.6351 23.8505 31.2208 23.2705 30.6409 23.022L27.6585 22.0278C27.0785 21.8621 26.6643 21.2822 26.6643 20.6194C26.6643 19.791 27.3271 19.2111 28.0727 19.2111H29.9782C30.8895 19.2111 31.6351 19.9567 31.6351 20.868" stroke="#404145" stroke-width="2" stroke-miterlimit="10"/>
<path d="M29.1497 19.211V16.7256" stroke="#404145" stroke-width="2" stroke-miterlimit="10"/>
<path d="M29.1497 25.8387V28.3241" stroke="#404145" stroke-width="2" stroke-miterlimit="10"/>
</svg>
