<svg width="59" height="50" viewBox="0 0 59 50" fill="none" xmlns="http://www.w3.org/2000/svg">
<path d="M4.04236 39.333L8.0947 46.0991C8.97089 47.5594 10.5529 48.4599 12.2687 48.4599H45.6975C47.4134 48.4599 48.9954 47.5594 49.8716 46.0991V39.333" fill="#A6EACA"/>
<path d="M5.8678 42.3752L8.09476 46.099C8.97095 47.5593 10.5529 48.4598 12.2688 48.4598H45.6976C47.4134 48.4598 48.9954 47.5593 49.8716 46.099L52.1108 42.3752" stroke="#404145" stroke-width="2" stroke-miterlimit="10" stroke-linecap="round"/>
<path d="M50.7112 26.5552C45.0282 26.397 43.434 19.2537 28.9892 19.2537C14.3861 19.2537 12.9258 26.5552 7.0846 26.5552C3.43384 26.5552 1 28.989 1 32.6398C1 35.9985 3.89627 38.7244 7.46184 38.7244C8.95865 38.7244 10.3459 38.2376 11.4412 37.4344C12.2808 36.8138 13.4248 36.8138 14.2523 37.4344C15.3475 38.2376 16.7226 38.7244 18.2316 38.7244C19.7284 38.7244 21.1157 38.2376 22.2109 37.4344C23.0506 36.8138 24.1945 36.8138 25.022 37.4344C26.1172 38.2376 27.4923 38.7244 29.0013 38.7244C30.5103 38.7244 31.8854 38.2376 32.9807 37.4344C33.8203 36.8138 34.9642 36.8138 35.7917 37.4344C36.887 38.2376 38.2621 38.7244 39.7711 38.7244C41.2679 38.7244 42.6552 38.2376 43.7504 37.4344C44.5901 36.8138 45.734 36.8138 46.5615 37.4344C47.6567 38.2376 49.0318 38.7244 50.5408 38.7244C54.6662 38.7244 57.8788 35.0858 56.7836 31.0334C56.0291 28.3562 53.4858 26.6282 50.7112 26.5552Z" stroke="#404145" stroke-width="2" stroke-miterlimit="10" stroke-linecap="round" stroke-linejoin="round"/>
<path d="M19.619 4.65063C13.8021 11.0151 26.4094 9.14107 19.619 14.386" stroke="#404145" stroke-width="2" stroke-miterlimit="10" stroke-linecap="round"/>
<path d="M28.1373 1C22.3205 9.74965 34.9277 7.18195 28.1373 14.3861" stroke="#404145" stroke-width="2" stroke-miterlimit="10" stroke-linecap="round"/>
<path d="M36.6559 4.65063C30.839 11.0151 43.4463 9.14107 36.6559 14.386" stroke="#404145" stroke-width="2" stroke-miterlimit="10" stroke-linecap="round"/>
<path d="M28.989 24.1216V28.9893" stroke="#404145" stroke-width="2" stroke-miterlimit="10" stroke-linecap="round"/>
<path d="M35.0737 24.1216C35.0737 24.1216 38.7732 24.584 41.1583 27.7723" stroke="#404145" stroke-width="2" stroke-miterlimit="10" stroke-linecap="round"/>
<path d="M22.9045 24.1216C22.9045 24.1216 19.2051 24.584 16.8199 27.7723" stroke="#404145" stroke-width="2" stroke-miterlimit="10" stroke-linecap="round"/>
</svg>
