<svg width="65" height="54" viewBox="0 0 65 54" fill="none" xmlns="http://www.w3.org/2000/svg">
<path d="M44 49C54.7696 49 63.5 40.2696 63.5 29.5C63.5 18.7304 54.7696 10 44 10C33.2304 10 24.5 18.7304 24.5 29.5C24.5 40.2696 33.2304 49 44 49Z" fill="#E4E5E7"/>
<path d="M19.5 41H7.5V53H19.5V41Z" fill="#A6EACA" stroke="#404145" stroke-width="2" stroke-miterlimit="10"/>
<path d="M31.5 26H19.5V53H31.5V26Z" fill="#E4E5E7" stroke="#404145" stroke-width="2" stroke-miterlimit="10"/>
<path d="M43.5 35H31.5V53H43.5V35Z" fill="#A6EACA" stroke="#404145" stroke-width="2" stroke-miterlimit="10"/>
<path d="M55.5 21H43.5V53H55.5V21Z" fill="white" stroke="#404145" stroke-width="2" stroke-miterlimit="10"/>
<path d="M46.5 1H55.5V10" stroke="#404145" stroke-width="2" stroke-miterlimit="10"/>
<path d="M24.5 1L16.5 9" stroke="#C5C6C9" stroke-width="2" stroke-miterlimit="10"/>
<path d="M14.5 11L12.5 13" stroke="#C5C6C9" stroke-width="2" stroke-miterlimit="10"/>
<path d="M62.5 53H64.5" stroke="#404145" stroke-width="2" stroke-miterlimit="10"/>
<path d="M0.5 53H2.5" stroke="#404145" stroke-width="2" stroke-miterlimit="10"/>
<path d="M60.5 53H4.5" stroke="#404145" stroke-width="2" stroke-miterlimit="10"/>
<path d="M55.5 1L36.5 20L26.5 10L15.5 21" stroke="#404145" stroke-width="2" stroke-miterlimit="10"/>
<path d="M13.5 23L10.5 26" stroke="#404145" stroke-width="2" stroke-miterlimit="10"/>
<path d="M8.5 28L6.5 30" stroke="#404145" stroke-width="2" stroke-miterlimit="10"/>
<path d="M4.5 32L2.5 34" stroke="#404145" stroke-width="2" stroke-miterlimit="10"/>
<path d="M10.5 15L8.5 17" stroke="#C5C6C9" stroke-width="2" stroke-miterlimit="10"/>
<path d="M6.5 19L4.5 21" stroke="#C5C6C9" stroke-width="2" stroke-miterlimit="10"/>
</svg>
