<svg xmlns="http://www.w3.org/2000/svg" height="644pt" version="1.1" viewBox="0 0 644 644.21675" width="644pt">
<g id="surface1">
<path d="M 292.835938 468.363281 L 322.109375 468.363281 C 338.273438 468.363281 351.378906 481.46875 351.378906 497.636719 C 351.378906 513.804688 338.273438 526.910156 322.109375 526.910156 L 292.835938 526.910156 C 276.667969 526.910156 263.5625 513.804688 263.5625 497.636719 C 263.5625 481.46875 276.667969 468.363281 292.835938 468.363281 Z M 292.835938 468.363281 " style=" stroke:none;fill-rule:nonzero;fill:rgb(100%,91.764706%,12.941176%);fill-opacity:1;" />
<path d="M 439.300781 351.273438 C 437.570312 351.273438 435.839844 351.203125 434.097656 351.042969 C 418.621094 349.738281 404.308594 342.289062 394.359375 330.363281 L 247.753906 154.898438 C 227.003906 130.121094 230.234375 93.222656 254.972656 72.425781 C 279.75 51.691406 316.628906 54.90625 337.445312 79.613281 L 484.039062 255.09375 C 504.820312 279.863281 501.589844 316.789062 476.820312 337.574219 C 466.304688 346.398438 453.027344 351.246094 439.300781 351.273438 Z M 292.578125 88.003906 C 285.703125 87.996094 279.046875 90.414062 273.78125 94.835938 L 273.78125 94.851562 C 261.414062 105.25 259.804688 123.699219 270.179688 136.085938 L 416.773438 311.550781 C 427.167969 323.9375 445.636719 325.550781 458.023438 315.152344 C 470.410156 304.757812 472.019531 286.289062 461.625 273.902344 L 315.03125 98.4375 C 309.457031 91.8125 301.234375 87.992188 292.578125 88.003906 Z M 292.578125 88.003906 " style=" stroke:none;fill-rule:nonzero;fill:rgb(64.313725%,69.411765%,100%);fill-opacity:1;" />
<path d="M 439.199219 585.457031 C 406.878906 585.421875 380.6875 559.230469 380.652344 526.910156 L 380.652344 292.726562 C 380.640625 260.394531 406.84375 234.171875 439.175781 234.160156 C 471.511719 234.148438 497.730469 260.347656 497.746094 292.683594 C 497.746094 292.695312 497.746094 292.710938 497.746094 292.726562 L 497.746094 526.910156 C 497.710938 559.230469 471.519531 585.421875 439.199219 585.457031 Z M 439.199219 263.453125 C 423.039062 263.476562 409.949219 276.570312 409.925781 292.726562 L 409.925781 526.910156 C 409.925781 543.078125 423.03125 556.183594 439.199219 556.183594 C 455.367188 556.183594 468.472656 543.078125 468.472656 526.910156 L 468.472656 292.726562 C 468.449219 276.570312 455.355469 263.476562 439.199219 263.453125 Z M 439.199219 263.453125 " style=" stroke:none;fill-rule:nonzero;fill:rgb(72.156863%,76.078431%,100%);fill-opacity:1;" />
<path d="M 146.472656 117.089844 L 239.3125 24.25 C 271.644531 -8.082031 324.070312 -8.082031 356.402344 24.25 C 388.738281 56.585938 388.738281 109.007812 356.402344 141.339844 L 263.5625 234.183594 Z M 146.472656 117.089844 " style=" stroke:none;fill-rule:nonzero;fill:rgb(26.27451%,36.862745%,53.333333%);fill-opacity:1;" />
<path d="M 348.269531 71.550781 C 335.894531 71.558594 324.855469 79.34375 320.699219 91 C 319.492188 94.371094 317.546875 97.425781 315.003906 99.945312 L 278.800781 136.148438 C 267.359375 147.570312 267.347656 166.105469 278.769531 177.546875 C 290.191406 188.988281 308.726562 189 320.167969 177.578125 C 320.179688 177.566406 320.1875 177.558594 320.199219 177.546875 L 356.402344 141.339844 L 356.503906 141.242188 L 356.535156 141.207031 L 356.703125 141.039062 L 356.742188 140.996094 L 356.945312 140.792969 L 357 140.734375 L 357.140625 140.59375 L 357.203125 140.527344 L 357.242188 140.488281 L 357.328125 140.398438 L 357.339844 140.390625 L 357.4375 140.289062 L 357.464844 140.257812 L 357.535156 140.1875 L 357.570312 140.148438 L 357.675781 140.042969 L 357.730469 139.984375 L 357.773438 139.941406 L 357.828125 139.882812 L 357.871094 139.839844 L 357.929688 139.777344 L 357.96875 139.734375 L 358.023438 139.675781 L 358.066406 139.632812 L 358.125 139.570312 L 358.164062 139.53125 L 358.238281 139.453125 L 358.261719 139.429688 L 358.355469 139.328125 L 358.390625 139.289062 L 358.449219 139.222656 L 358.550781 139.121094 L 358.585938 139.078125 L 358.644531 139.015625 L 358.683594 138.972656 L 358.738281 138.914062 L 358.78125 138.871094 L 358.832031 138.808594 L 358.875 138.765625 L 358.929688 138.707031 L 358.96875 138.664062 L 359.027344 138.597656 L 359.066406 138.558594 L 359.136719 138.480469 L 359.160156 138.453125 L 359.25 138.351562 L 359.28125 138.320312 L 359.347656 138.246094 L 359.378906 138.207031 L 359.441406 138.144531 L 359.480469 138.097656 L 359.535156 138.039062 L 359.574219 137.992188 L 359.625 137.9375 L 359.667969 137.886719 L 359.71875 137.828125 L 359.761719 137.78125 L 359.8125 137.722656 L 359.855469 137.675781 L 359.914062 137.613281 L 359.949219 137.574219 L 360.015625 137.496094 L 360.039062 137.46875 L 360.132812 137.363281 L 360.152344 137.34375 L 360.222656 137.261719 L 360.261719 137.21875 L 360.316406 137.15625 L 360.355469 137.109375 L 360.40625 137.050781 L 360.449219 137.003906 L 360.5 136.945312 L 360.539062 136.898438 L 360.59375 136.835938 L 360.628906 136.792969 L 360.6875 136.726562 L 360.71875 136.6875 L 360.8125 136.582031 L 360.878906 136.503906 L 360.902344 136.476562 L 360.996094 136.371094 L 361.011719 136.347656 L 361.085938 136.261719 L 361.117188 136.222656 L 361.175781 136.15625 L 361.214844 136.109375 L 361.265625 136.046875 L 361.300781 136.007812 L 361.355469 135.941406 L 361.390625 135.898438 L 361.445312 135.832031 L 361.480469 135.792969 L 361.535156 135.726562 L 361.570312 135.683594 L 361.628906 135.617188 L 361.660156 135.578125 L 361.726562 135.496094 L 361.75 135.46875 C 361.808594 135.398438 361.867188 135.328125 361.925781 135.253906 L 361.957031 135.21875 L 362.015625 135.148438 L 362.046875 135.109375 L 362.105469 135.039062 L 362.140625 134.996094 L 362.191406 134.929688 L 362.226562 134.886719 L 362.277344 134.824219 L 362.316406 134.773438 L 362.367188 134.714844 L 362.402344 134.667969 L 362.457031 134.605469 L 362.492188 134.558594 L 362.546875 134.492188 L 362.578125 134.453125 L 362.644531 134.367188 L 362.671875 134.332031 L 362.75 134.234375 L 362.773438 134.203125 L 362.835938 134.128906 L 362.867188 134.085938 L 362.921875 134.019531 L 362.957031 133.972656 L 363.007812 133.910156 L 363.042969 133.863281 L 363.09375 133.800781 L 363.128906 133.753906 L 363.179688 133.691406 L 363.214844 133.644531 L 363.265625 133.578125 L 363.300781 133.535156 L 363.355469 133.464844 L 363.382812 133.425781 L 363.457031 133.332031 L 363.46875 133.316406 L 363.554688 133.207031 L 363.636719 133.097656 L 363.667969 133.058594 L 363.722656 132.988281 L 363.753906 132.945312 L 363.804688 132.875 L 363.839844 132.835938 L 363.890625 132.765625 L 363.921875 132.722656 L 363.976562 132.652344 L 364.007812 132.613281 L 364.058594 132.542969 L 364.09375 132.5 L 364.144531 132.429688 L 364.175781 132.390625 L 364.238281 132.308594 L 364.257812 132.28125 L 364.339844 132.171875 L 364.359375 132.144531 L 364.421875 132.0625 L 364.453125 132.019531 L 364.503906 131.949219 L 364.535156 131.90625 L 364.585938 131.835938 L 364.617188 131.792969 L 364.671875 131.722656 L 364.703125 131.679688 L 364.75 131.613281 L 364.785156 131.570312 L 364.832031 131.5 L 364.867188 131.457031 L 364.917969 131.386719 L 364.945312 131.347656 L 365.015625 131.253906 L 365.027344 131.234375 L 365.109375 131.121094 L 365.191406 131.011719 L 365.210938 130.980469 L 365.269531 130.898438 L 365.296875 130.859375 L 365.347656 130.785156 L 365.378906 130.742188 L 365.429688 130.675781 L 365.460938 130.628906 L 365.507812 130.5625 L 365.539062 130.515625 L 365.589844 130.445312 L 365.621094 130.402344 L 365.675781 130.328125 L 365.761719 130.199219 L 365.777344 130.179688 C 365.832031 130.101562 365.882812 130.027344 365.9375 129.953125 L 365.957031 129.921875 L 366.015625 129.839844 L 366.039062 129.800781 L 366.09375 129.726562 L 366.121094 129.683594 L 366.171875 129.613281 L 366.199219 129.570312 L 366.25 129.496094 L 366.332031 129.378906 L 366.410156 129.261719 L 366.433594 129.230469 L 366.5 129.132812 L 366.507812 129.117188 C 366.558594 129.039062 366.613281 128.960938 366.664062 128.886719 L 366.679688 128.863281 L 366.742188 128.773438 L 366.765625 128.738281 L 366.816406 128.65625 L 366.972656 128.421875 L 366.996094 128.390625 L 367.050781 128.308594 L 367.070312 128.273438 L 367.132812 128.183594 L 367.144531 128.160156 L 367.222656 128.042969 C 367.273438 127.964844 367.324219 127.886719 367.375 127.808594 L 367.386719 127.792969 L 367.449219 127.691406 L 367.46875 127.667969 L 367.523438 127.578125 L 367.546875 127.542969 L 367.597656 127.460938 L 367.621094 127.425781 L 367.671875 127.347656 L 367.695312 127.308594 L 367.746094 127.226562 L 367.824219 127.109375 L 367.84375 127.078125 L 367.902344 126.980469 L 367.917969 126.960938 C 367.96875 126.882812 368.019531 126.800781 368.066406 126.722656 L 368.070312 126.71875 L 368.140625 126.609375 L 368.15625 126.582031 L 368.210938 126.492188 L 368.230469 126.460938 L 368.285156 126.375 L 368.308594 126.339844 L 368.359375 126.253906 L 368.378906 126.226562 L 368.433594 126.136719 L 368.449219 126.109375 L 368.507812 126.011719 L 368.523438 125.992188 L 368.585938 125.886719 L 368.59375 125.875 C 368.667969 125.753906 368.738281 125.632812 368.8125 125.511719 L 368.820312 125.5 L 368.882812 125.398438 L 368.898438 125.371094 L 368.953125 125.277344 L 368.96875 125.25 L 369.023438 125.160156 L 369.042969 125.132812 L 369.097656 125.035156 L 369.109375 125.015625 L 369.171875 124.914062 L 369.179688 124.894531 C 369.277344 124.734375 369.371094 124.574219 369.464844 124.414062 L 369.464844 124.410156 L 369.535156 124.292969 L 369.542969 124.277344 L 369.601562 124.175781 L 369.617188 124.152344 L 369.671875 124.054688 L 369.683594 124.035156 L 369.742188 123.933594 L 369.753906 123.914062 L 369.816406 123.804688 L 369.820312 123.796875 C 369.960938 123.550781 370.097656 123.304688 370.234375 123.058594 L 370.238281 123.054688 L 370.300781 122.941406 L 370.308594 122.929688 L 370.371094 122.816406 L 370.375 122.808594 C 370.554688 122.480469 370.734375 122.148438 370.914062 121.820312 L 370.914062 121.816406 L 370.980469 121.695312 C 372.871094 118.144531 374.496094 114.460938 375.847656 110.671875 C 381.269531 95.429688 373.308594 78.679688 358.070312 73.253906 C 354.921875 72.128906 351.609375 71.554688 348.269531 71.550781 Z M 348.269531 71.550781 " style=" stroke:none;fill-rule:nonzero;fill:rgb(8.627451%,22.352941%,41.176471%);fill-opacity:1;" />
<path d="M 439.199219 263.453125 L 468.472656 263.453125 C 484.636719 263.453125 497.742188 276.558594 497.742188 292.726562 C 497.742188 308.894531 484.636719 322 468.472656 322 L 439.199219 322 C 423.03125 322 409.925781 308.894531 409.925781 292.726562 C 409.925781 276.5625 423.03125 263.453125 439.199219 263.453125 Z M 439.199219 263.453125 " style=" stroke:none;fill-rule:nonzero;fill:rgb(26.27451%,36.862745%,53.333333%);fill-opacity:1;" />
<path d="M 158.039062 87.820312 C 130.78125 87.832031 104.164062 96.09375 81.691406 111.519531 C 57.886719 127.828125 28.605469 148.816406 15.585938 161.839844 C -16.523438 193.949219 2.941406 265.472656 59.0625 321.589844 C 115.183594 377.710938 186.707031 397.179688 218.8125 365.070312 C 231.835938 352.046875 252.824219 322.765625 269.132812 298.964844 C 284.558594 276.492188 292.824219 249.875 292.835938 222.613281 C 292.835938 148.167969 232.484375 87.820312 158.039062 87.820312 Z M 158.039062 87.820312 " style=" stroke:none;fill-rule:nonzero;fill:rgb(26.27451%,36.862745%,53.333333%);fill-opacity:1;" />
<path d="M 205.015625 131.726562 C 205.015625 123.644531 185.359375 117.089844 161.109375 117.089844 C 136.859375 117.089844 117.199219 123.644531 117.199219 131.726562 C 117.199219 139.8125 136.859375 146.363281 161.109375 146.363281 C 185.359375 146.363281 205.015625 139.8125 205.015625 131.726562 Z M 205.015625 131.726562 " style=" stroke:none;fill-rule:nonzero;fill:rgb(80.392157%,83.137255%,87.45098%);fill-opacity:1;" />
<path d="M 292.832031 222.035156 L 292.832031 221.863281 C 292.832031 221.820312 292.832031 221.773438 292.832031 221.726562 L 292.832031 221.554688 C 292.832031 221.515625 292.828125 221.476562 292.828125 221.4375 L 292.828125 221.417969 C 292.828125 221.375 292.828125 221.332031 292.828125 221.285156 L 292.828125 221.148438 C 292.828125 221.136719 292.828125 221.125 292.824219 221.113281 C 292.824219 221.023438 292.824219 220.933594 292.824219 220.839844 L 292.820312 220.8125 L 292.820312 220.675781 C 292.820312 220.628906 292.820312 220.582031 292.816406 220.535156 L 292.816406 220.527344 C 292.816406 220.484375 292.816406 220.441406 292.816406 220.398438 L 292.816406 220.371094 C 292.8125 220.332031 292.8125 220.292969 292.8125 220.253906 L 292.8125 220.230469 C 292.8125 220.1875 292.8125 220.140625 292.808594 220.09375 L 292.808594 220.078125 C 292.808594 220.039062 292.808594 220 292.808594 219.957031 L 292.804688 219.925781 C 292.804688 219.882812 292.804688 219.835938 292.804688 219.792969 C 292.800781 219.746094 292.800781 219.703125 292.800781 219.65625 L 292.800781 219.625 C 292.796875 219.585938 292.796875 219.550781 292.796875 219.511719 L 292.796875 219.484375 C 292.792969 219.390625 292.789062 219.300781 292.789062 219.210938 L 292.789062 219.1875 C 292.789062 219.148438 292.785156 219.109375 292.785156 219.070312 L 292.785156 219.042969 C 292.78125 218.996094 292.78125 218.953125 292.78125 218.90625 L 292.78125 218.894531 C 292.777344 218.855469 292.777344 218.8125 292.777344 218.773438 L 292.777344 218.738281 C 292.773438 218.699219 292.773438 218.664062 292.773438 218.625 L 292.769531 218.601562 C 292.769531 218.558594 292.769531 218.515625 292.765625 218.472656 C 292.765625 218.457031 292.765625 218.441406 292.765625 218.429688 C 292.765625 218.398438 292.761719 218.367188 292.761719 218.335938 L 292.761719 218.292969 C 292.757812 218.261719 292.757812 218.226562 292.757812 218.195312 C 292.757812 218.179688 292.757812 218.164062 292.753906 218.148438 C 292.753906 218.109375 292.753906 218.074219 292.75 218.039062 C 292.75 218.019531 292.75 217.992188 292.746094 217.976562 C 292.746094 217.953125 292.746094 217.933594 292.746094 217.910156 C 292.746094 217.890625 292.742188 217.867188 292.742188 217.84375 C 292.742188 217.820312 292.742188 217.800781 292.738281 217.777344 C 292.738281 217.738281 292.738281 217.699219 292.734375 217.660156 L 292.734375 217.605469 C 292.730469 217.578125 292.730469 217.554688 292.730469 217.527344 C 292.730469 217.511719 292.730469 217.496094 292.726562 217.480469 C 292.726562 217.457031 292.726562 217.429688 292.726562 217.402344 L 292.722656 217.386719 C 292.722656 217.324219 292.71875 217.265625 292.71875 217.203125 L 292.71875 217.179688 C 292.714844 217.144531 292.714844 217.117188 292.714844 217.082031 L 292.710938 217.066406 C 292.65625 215.730469 292.585938 214.394531 292.492188 213.066406 C 291.378906 197.773438 278.65625 185.929688 263.324219 185.914062 C 262.648438 185.914062 261.960938 185.9375 261.273438 185.988281 C 245.148438 187.101562 232.976562 201.082031 234.089844 217.207031 C 234.089844 217.210938 234.089844 217.210938 234.089844 217.210938 C 234.214844 218.992188 234.277344 220.792969 234.277344 222.613281 C 234.28125 238.058594 229.589844 253.144531 220.824219 265.867188 C 195.824219 302.355469 183.792969 316.753906 179.117188 321.867188 C 178.289062 321.957031 177.453125 322.003906 176.621094 321.996094 C 174.703125 321.980469 172.789062 321.828125 170.894531 321.535156 C 154.898438 319.191406 140.03125 330.257812 137.6875 346.253906 C 135.347656 362.214844 146.359375 377.058594 162.3125 379.449219 C 166.433594 380.066406 170.59375 380.425781 174.761719 380.523438 L 174.765625 380.523438 C 174.796875 380.523438 174.832031 380.523438 174.863281 380.523438 L 174.871094 380.523438 C 174.894531 380.523438 174.925781 380.523438 174.953125 380.527344 L 174.976562 380.527344 C 175.003906 380.527344 175.027344 380.527344 175.054688 380.527344 L 175.085938 380.527344 C 175.109375 380.527344 175.132812 380.527344 175.15625 380.53125 L 175.1875 380.53125 C 175.214844 380.53125 175.238281 380.53125 175.261719 380.53125 L 175.363281 380.53125 C 175.375 380.535156 175.390625 380.535156 175.402344 380.535156 L 175.464844 380.535156 C 175.480469 380.535156 175.496094 380.535156 175.507812 380.535156 L 175.613281 380.535156 L 175.675781 380.539062 L 175.828125 380.539062 C 175.847656 380.539062 175.867188 380.539062 175.886719 380.539062 L 176.039062 380.539062 L 176.09375 380.542969 L 176.515625 380.542969 C 176.550781 380.542969 176.585938 380.542969 176.621094 380.542969 C 176.652344 380.542969 176.683594 380.542969 176.714844 380.542969 L 177.136719 380.542969 C 177.15625 380.542969 177.175781 380.542969 177.191406 380.539062 L 177.519531 380.539062 C 177.546875 380.539062 177.570312 380.539062 177.597656 380.535156 L 177.71875 380.535156 C 177.746094 380.535156 177.777344 380.535156 177.804688 380.535156 L 177.835938 380.535156 C 177.855469 380.535156 177.878906 380.53125 177.902344 380.53125 L 177.929688 380.53125 C 177.953125 380.53125 177.976562 380.53125 177.996094 380.53125 L 178.027344 380.53125 C 178.050781 380.53125 178.074219 380.53125 178.097656 380.527344 L 178.1875 380.527344 C 178.199219 380.527344 178.210938 380.527344 178.222656 380.527344 C 178.246094 380.527344 178.265625 380.527344 178.289062 380.523438 L 178.3125 380.523438 C 178.339844 380.523438 178.363281 380.523438 178.390625 380.523438 L 178.410156 380.523438 C 178.4375 380.523438 178.464844 380.519531 178.488281 380.519531 L 178.503906 380.519531 C 178.632812 380.515625 178.765625 380.515625 178.894531 380.511719 L 178.902344 380.511719 C 178.929688 380.507812 178.960938 380.507812 178.988281 380.507812 L 179.003906 380.507812 C 179.03125 380.507812 179.058594 380.503906 179.085938 380.503906 L 179.097656 380.503906 C 179.125 380.503906 179.15625 380.5 179.1875 380.5 L 179.195312 380.5 C 179.226562 380.5 179.253906 380.5 179.28125 380.496094 L 179.292969 380.496094 C 179.324219 380.496094 179.355469 380.496094 179.386719 380.496094 L 179.390625 380.492188 C 185.6875 380.335938 191.933594 379.320312 197.957031 377.476562 L 197.976562 377.46875 C 197.996094 377.464844 198.015625 377.457031 198.039062 377.449219 C 198.050781 377.445312 198.066406 377.441406 198.082031 377.4375 L 198.117188 377.425781 C 198.132812 377.421875 198.152344 377.414062 198.167969 377.40625 L 198.195312 377.402344 C 198.214844 377.394531 198.230469 377.386719 198.25 377.382812 L 198.265625 377.378906 L 198.273438 377.375 L 198.34375 377.351562 L 198.367188 377.347656 L 198.433594 377.324219 L 198.457031 377.316406 C 198.476562 377.308594 198.503906 377.300781 198.527344 377.292969 L 198.546875 377.289062 L 198.628906 377.261719 L 198.632812 377.257812 C 198.695312 377.238281 198.753906 377.21875 198.816406 377.199219 L 198.828125 377.195312 C 198.851562 377.183594 198.878906 377.179688 198.902344 377.167969 L 198.933594 377.15625 C 198.953125 377.152344 198.972656 377.148438 198.988281 377.140625 L 199.03125 377.125 C 199.046875 377.121094 199.0625 377.113281 199.078125 377.113281 C 199.089844 377.105469 199.105469 377.101562 199.121094 377.097656 L 199.167969 377.082031 L 199.210938 377.066406 C 199.222656 377.0625 199.238281 377.058594 199.253906 377.050781 L 199.296875 377.039062 L 199.335938 377.023438 C 199.351562 377.019531 199.371094 377.011719 199.386719 377.007812 L 199.421875 376.996094 C 199.4375 376.988281 199.457031 376.980469 199.476562 376.976562 L 199.503906 376.964844 L 199.5625 376.945312 L 199.578125 376.941406 C 199.710938 376.894531 199.84375 376.847656 199.976562 376.800781 L 199.984375 376.796875 C 200.007812 376.785156 200.03125 376.777344 200.058594 376.769531 L 200.140625 376.742188 L 200.160156 376.734375 C 200.179688 376.726562 200.203125 376.71875 200.230469 376.710938 L 200.238281 376.707031 L 200.316406 376.679688 L 200.320312 376.675781 L 200.402344 376.648438 L 200.40625 376.644531 C 205.121094 374.949219 209.558594 372.566406 213.585938 369.582031 C 213.859375 369.375 214.132812 369.167969 214.402344 368.957031 L 214.410156 368.953125 L 214.472656 368.902344 L 214.476562 368.898438 C 214.5 368.882812 214.519531 368.867188 214.539062 368.847656 L 214.546875 368.847656 C 214.699219 368.722656 214.855469 368.601562 215.011719 368.476562 L 215.011719 368.472656 C 215.03125 368.457031 215.050781 368.441406 215.070312 368.425781 L 215.082031 368.414062 L 215.140625 368.371094 L 215.152344 368.359375 L 215.207031 368.316406 L 215.222656 368.304688 C 215.238281 368.289062 215.257812 368.273438 215.273438 368.261719 L 215.289062 368.246094 L 215.34375 368.203125 L 215.359375 368.191406 C 215.375 368.175781 215.394531 368.160156 215.410156 368.144531 L 215.421875 368.140625 C 215.441406 368.121094 215.460938 368.105469 215.480469 368.089844 C 215.566406 368.015625 215.65625 367.945312 215.742188 367.871094 L 215.746094 367.867188 C 215.761719 367.851562 215.78125 367.839844 215.796875 367.820312 L 215.816406 367.808594 C 215.832031 367.796875 215.84375 367.78125 215.859375 367.769531 L 215.882812 367.75 C 215.898438 367.738281 215.914062 367.726562 215.925781 367.710938 L 215.949219 367.695312 C 215.960938 367.679688 215.980469 367.667969 215.992188 367.65625 L 216.015625 367.636719 C 216.03125 367.621094 216.046875 367.609375 216.0625 367.597656 L 216.082031 367.578125 L 216.152344 367.519531 C 216.164062 367.507812 216.179688 367.496094 216.195312 367.480469 L 216.21875 367.464844 L 216.261719 367.425781 C 216.273438 367.417969 216.28125 367.410156 216.289062 367.402344 C 216.300781 367.390625 216.316406 367.378906 216.332031 367.363281 L 216.339844 367.355469 C 216.402344 367.304688 216.460938 367.253906 216.519531 367.203125 L 216.53125 367.191406 L 216.578125 367.148438 L 216.597656 367.132812 C 216.613281 367.121094 216.625 367.105469 216.640625 367.09375 L 216.664062 367.074219 C 216.679688 367.0625 216.691406 367.050781 216.703125 367.039062 L 216.734375 367.015625 C 216.746094 367.003906 216.757812 366.992188 216.769531 366.980469 C 216.78125 366.972656 216.789062 366.964844 216.800781 366.953125 L 216.835938 366.921875 L 216.867188 366.894531 L 216.90625 366.859375 L 216.933594 366.832031 L 216.972656 366.800781 C 216.980469 366.792969 216.992188 366.78125 217.003906 366.769531 C 217.015625 366.761719 217.027344 366.75 217.039062 366.742188 L 217.070312 366.710938 L 217.105469 366.679688 L 217.136719 366.652344 C 217.144531 366.640625 217.160156 366.628906 217.171875 366.617188 L 217.195312 366.597656 C 217.21875 366.578125 217.242188 366.554688 217.265625 366.535156 L 217.304688 366.5 L 217.335938 366.46875 C 217.347656 366.460938 217.355469 366.449219 217.371094 366.441406 C 217.378906 366.429688 217.390625 366.417969 217.402344 366.410156 L 217.433594 366.378906 C 217.445312 366.367188 217.457031 366.355469 217.46875 366.34375 C 217.480469 366.335938 217.488281 366.328125 217.5 366.316406 C 217.511719 366.308594 217.523438 366.296875 217.53125 366.285156 C 217.546875 366.277344 217.554688 366.265625 217.566406 366.253906 C 217.578125 366.246094 217.589844 366.234375 217.601562 366.222656 L 217.632812 366.195312 C 217.644531 366.183594 217.65625 366.171875 217.667969 366.164062 C 217.679688 366.152344 217.6875 366.144531 217.699219 366.132812 C 217.710938 366.125 217.722656 366.113281 217.734375 366.101562 C 217.742188 366.089844 217.753906 366.082031 217.765625 366.070312 L 217.796875 366.042969 L 217.835938 366.003906 L 217.863281 365.980469 C 217.878906 365.964844 217.890625 365.953125 217.902344 365.941406 L 217.929688 365.914062 C 217.945312 365.902344 217.957031 365.886719 217.972656 365.875 L 217.996094 365.855469 C 218.019531 365.832031 218.039062 365.8125 218.0625 365.789062 L 218.074219 365.777344 L 218.125 365.730469 C 218.132812 365.71875 218.144531 365.710938 218.152344 365.703125 L 218.191406 365.664062 C 218.203125 365.65625 218.210938 365.648438 218.222656 365.636719 C 218.234375 365.625 218.246094 365.613281 218.257812 365.601562 L 218.285156 365.574219 L 218.324219 365.539062 L 218.351562 365.507812 C 218.363281 365.496094 218.375 365.484375 218.386719 365.476562 L 218.417969 365.445312 C 218.429688 365.433594 218.441406 365.421875 218.453125 365.40625 L 218.484375 365.378906 C 218.496094 365.371094 218.507812 365.359375 218.519531 365.34375 L 218.546875 365.316406 C 218.558594 365.304688 218.570312 365.292969 218.585938 365.28125 C 218.59375 365.269531 218.605469 365.261719 218.613281 365.25 C 218.625 365.238281 218.636719 365.226562 218.648438 365.214844 L 218.679688 365.1875 C 218.691406 365.175781 218.707031 365.160156 218.71875 365.148438 C 218.726562 365.140625 218.734375 365.128906 218.742188 365.125 L 218.808594 365.058594 C 231.828125 352.039062 252.820312 322.753906 269.128906 298.953125 C 284.554688 276.476562 292.816406 249.863281 292.828125 222.601562 L 292.828125 222.144531 C 292.835938 222.117188 292.832031 222.078125 292.832031 222.035156 Z M 292.832031 222.035156 " style=" stroke:none;fill-rule:nonzero;fill:rgb(8.627451%,22.352941%,41.176471%);fill-opacity:1;" />
<path d="M 468.570312 351.273438 C 466.84375 351.273438 465.113281 351.203125 463.367188 351.042969 C 447.890625 349.738281 433.582031 342.289062 423.632812 330.363281 L 277.027344 154.898438 C 256.277344 130.121094 259.507812 93.222656 284.246094 72.425781 C 309.023438 51.691406 345.902344 54.90625 366.71875 79.613281 L 513.308594 255.09375 C 534.09375 279.863281 530.863281 316.789062 506.09375 337.574219 C 495.578125 346.398438 482.296875 351.246094 468.570312 351.273438 Z M 321.851562 88.003906 C 314.976562 87.996094 308.320312 90.414062 303.054688 94.835938 L 303.054688 94.851562 C 290.6875 105.25 289.078125 123.699219 299.453125 136.085938 L 446.046875 311.550781 C 451.027344 317.507812 458.179688 321.226562 465.914062 321.886719 C 473.648438 322.550781 481.335938 320.128906 487.296875 315.15625 C 499.671875 304.753906 501.28125 286.292969 490.898438 273.90625 L 344.304688 98.4375 C 338.730469 91.8125 330.507812 87.992188 321.851562 88.003906 Z M 321.851562 88.003906 " style=" stroke:none;fill-rule:nonzero;fill:rgb(87.45098%,89.803922%,100%);fill-opacity:1;" />
<path d="M 468.472656 585.457031 C 436.152344 585.421875 409.957031 559.230469 409.925781 526.910156 L 409.925781 292.726562 C 409.914062 260.394531 436.113281 234.171875 468.449219 234.160156 C 500.78125 234.148438 527.003906 260.347656 527.015625 292.683594 C 527.015625 292.695312 527.015625 292.710938 527.015625 292.726562 L 527.015625 526.910156 C 526.984375 559.230469 500.792969 585.421875 468.472656 585.457031 Z M 468.472656 263.453125 C 452.3125 263.476562 439.21875 276.570312 439.199219 292.726562 L 439.199219 526.910156 C 439.199219 543.078125 452.304688 556.183594 468.472656 556.183594 C 484.640625 556.183594 497.746094 543.078125 497.746094 526.910156 L 497.746094 292.726562 C 497.722656 276.570312 484.628906 263.476562 468.472656 263.453125 Z M 468.472656 263.453125 " style=" stroke:none;fill-rule:nonzero;fill:rgb(92.156863%,93.72549%,100%);fill-opacity:1;" />
<path d="M 497.746094 292.726562 C 497.746094 308.894531 484.636719 322 468.472656 322 C 452.304688 322 439.199219 308.894531 439.199219 292.726562 C 439.199219 276.5625 452.304688 263.453125 468.472656 263.453125 C 484.636719 263.453125 497.746094 276.5625 497.746094 292.726562 Z M 497.746094 292.726562 " style=" stroke:none;fill-rule:nonzero;fill:rgb(36.862745%,45.882353%,60%);fill-opacity:1;" />
<path d="M 175.332031 205.316406 C 119.210938 149.195312 47.6875 129.730469 15.582031 161.839844 C -16.527344 193.949219 2.9375 265.46875 59.058594 321.589844 C 115.179688 377.710938 186.703125 397.175781 218.808594 365.070312 C 250.917969 332.960938 231.453125 261.4375 175.332031 205.316406 Z M 175.332031 205.316406 " style=" stroke:none;fill-rule:nonzero;fill:rgb(49.019608%,56.078431%,67.45098%);fill-opacity:1;" />
<path d="M 176.628906 351.273438 C 148.386719 351.273438 110.367188 331.492188 79.765625 300.890625 C 56.507812 277.632812 39.269531 249.992188 32.480469 225.019531 C 27.292969 205.980469 28.722656 190.101562 36.285156 182.539062 C 40.871094 177.953125 48.089844 175.636719 57.765625 175.636719 C 86.011719 175.636719 124.03125 195.417969 154.632812 226.019531 C 177.886719 249.277344 195.125 276.921875 201.914062 301.890625 C 207.101562 320.929688 205.671875 336.808594 198.113281 344.371094 C 193.523438 348.957031 186.304688 351.273438 176.628906 351.273438 Z M 176.628906 351.273438 " style=" stroke:none;fill-rule:nonzero;fill:rgb(100%,100%,61.568627%);fill-opacity:1;" />
<path d="M 57.765625 175.636719 L 57.296875 175.636719 L 57.21875 175.640625 L 56.980469 175.640625 C 56.503906 175.648438 56.035156 175.660156 55.570312 175.675781 C 47.75 176.074219 41.6875 182.65625 41.929688 190.484375 C 42.171875 198.511719 48.738281 204.894531 56.769531 204.921875 C 56.832031 204.921875 56.902344 204.921875 56.96875 204.917969 L 57.769531 204.910156 C 74.316406 204.910156 105.207031 217.992188 133.933594 246.71875 C 153.410156 266.195312 168.261719 289.6875 173.671875 309.585938 C 174.488281 312.507812 175.082031 315.488281 175.457031 318.496094 C 176.394531 326.527344 183.660156 332.273438 191.691406 331.335938 C 199.71875 330.398438 205.46875 323.132812 204.53125 315.101562 C 204.515625 314.972656 204.5 314.84375 204.484375 314.714844 L 204.484375 314.710938 L 204.472656 314.625 L 204.472656 314.609375 L 204.460938 314.535156 L 204.457031 314.503906 L 204.449219 314.445312 L 204.445312 314.402344 L 204.441406 314.351562 L 204.433594 314.300781 L 204.425781 314.253906 L 204.417969 314.195312 L 204.414062 314.160156 L 204.40625 314.09375 L 204.402344 314.0625 L 204.390625 313.988281 L 204.386719 313.964844 L 204.378906 313.886719 L 204.375 313.863281 L 204.363281 313.777344 L 204.363281 313.769531 L 204.347656 313.671875 C 203.796875 309.695312 202.984375 305.757812 201.917969 301.890625 C 195.125 276.917969 177.890625 249.277344 154.632812 226.019531 C 124.03125 195.417969 86.011719 175.636719 57.765625 175.636719 Z M 57.765625 175.636719 " style=" stroke:none;fill-rule:nonzero;fill:rgb(100%,84.313725%,0%);fill-opacity:1;" />
<path d="M 189.796875 273.242188 C 180.425781 255.878906 168.582031 239.972656 154.632812 226.019531 C 140.734375 212.050781 124.90625 200.148438 107.625 190.679688 C 83.484375 212.023438 81.222656 248.898438 102.570312 273.035156 C 123.917969 297.171875 160.789062 299.433594 184.925781 278.089844 C 186.644531 276.570312 188.269531 274.949219 189.796875 273.242188 Z M 189.796875 273.242188 " style=" stroke:none;fill-rule:nonzero;fill:rgb(100%,91.764706%,12.941176%);fill-opacity:1;" />
<path d="M 351.378906 117.089844 C 351.378906 133.257812 338.273438 146.363281 322.109375 146.363281 C 305.941406 146.363281 292.835938 133.257812 292.835938 117.089844 C 292.835938 100.925781 305.941406 87.820312 322.109375 87.820312 C 338.273438 87.820312 351.378906 100.925781 351.378906 117.089844 Z M 351.378906 117.089844 " style=" stroke:none;fill-rule:nonzero;fill:rgb(36.862745%,45.882353%,60%);fill-opacity:1;" />
<path d="M 614.835938 585.457031 C 585.5625 585.457031 585.5625 571.277344 585.5625 556.183594 C 585.5625 526.910156 556.289062 497.636719 527.015625 497.636719 L 263.5625 497.636719 C 234.289062 497.636719 205.015625 526.910156 205.015625 556.183594 C 205.015625 556.183594 207.222656 585.457031 175.742188 585.457031 C 146.472656 585.457031 146.472656 614.730469 146.472656 614.730469 C 146.472656 614.730469 146.472656 644 175.742188 644 L 614.835938 644 C 644.105469 644 644.105469 614.730469 644.105469 614.730469 C 644.105469 614.730469 644.109375 585.457031 614.835938 585.457031 Z M 614.835938 585.457031 " style=" stroke:none;fill-rule:nonzero;fill:rgb(26.27451%,36.862745%,53.333333%);fill-opacity:1;" />
<path d="M 614.835938 585.457031 C 585.5625 585.457031 585.5625 571.277344 585.5625 556.183594 C 585.5625 526.910156 556.289062 497.636719 527.015625 497.636719 L 380.652344 497.636719 C 351.378906 497.636719 322.105469 526.910156 322.105469 556.183594 C 322.105469 556.183594 324.3125 585.457031 292.832031 585.457031 L 263.5625 585.457031 C 279.726562 585.457031 292.832031 598.5625 292.832031 614.730469 C 292.832031 630.894531 279.726562 644 263.5625 644 L 614.832031 644 C 644.105469 644 644.105469 614.730469 644.105469 614.730469 C 644.105469 614.730469 644.109375 585.457031 614.835938 585.457031 Z M 614.835938 585.457031 " style=" stroke:none;fill-rule:nonzero;fill:rgb(8.627451%,22.352941%,41.176471%);fill-opacity:1;" />
<path d="M 322.105469 102.457031 C 322.105469 110.539062 315.554688 117.089844 307.472656 117.089844 C 299.386719 117.089844 292.835938 110.539062 292.835938 102.457031 C 292.835938 94.371094 299.386719 87.820312 307.472656 87.820312 C 315.554688 87.820312 322.105469 94.371094 322.105469 102.457031 Z M 322.105469 102.457031 " style=" stroke:none;fill-rule:nonzero;fill:rgb(80.392157%,83.137255%,87.45098%);fill-opacity:1;" />
<path d="M 468.472656 278.09375 C 468.472656 286.175781 461.917969 292.726562 453.835938 292.726562 C 445.75 292.726562 439.199219 286.175781 439.199219 278.09375 C 439.199219 270.007812 445.75 263.457031 453.835938 263.457031 C 461.917969 263.457031 468.472656 270.007812 468.472656 278.09375 Z M 468.472656 278.09375 " style=" stroke:none;fill-rule:nonzero;fill:rgb(80.392157%,83.137255%,87.45098%);fill-opacity:1;" />
<path d="M 240.351562 52.484375 L 257.5 35.335938 C 265.582031 27.253906 278.6875 27.253906 286.773438 35.335938 C 294.855469 43.417969 294.855469 56.523438 286.773438 64.609375 L 269.625 81.753906 C 261.542969 89.839844 248.4375 89.839844 240.351562 81.753906 C 232.269531 73.671875 232.269531 60.566406 240.351562 52.484375 Z M 240.351562 52.484375 " style=" stroke:none;fill-rule:nonzero;fill:rgb(49.019608%,56.078431%,67.45098%);fill-opacity:1;" />
<path d="M 219.652344 556.183594 L 307.472656 556.183594 C 315.554688 556.183594 322.109375 562.734375 322.109375 570.816406 C 322.109375 578.902344 315.554688 585.453125 307.472656 585.453125 L 219.652344 585.453125 C 211.570312 585.453125 205.015625 578.902344 205.015625 570.816406 C 205.015625 562.734375 211.570312 556.183594 219.652344 556.183594 Z M 219.652344 556.183594 " style=" stroke:none;fill-rule:nonzero;fill:rgb(20%,32.156863%,49.019608%);fill-opacity:1;" />
<path d="M 278.199219 497.636719 L 336.746094 497.636719 C 344.828125 497.636719 351.378906 504.1875 351.378906 512.273438 C 351.378906 520.355469 344.828125 526.910156 336.746094 526.910156 L 278.199219 526.910156 C 270.117188 526.910156 263.5625 520.355469 263.5625 512.273438 C 263.5625 504.191406 270.117188 497.636719 278.199219 497.636719 Z M 278.199219 497.636719 " style=" stroke:none;fill-rule:nonzero;fill:rgb(49.019608%,56.078431%,67.45098%);fill-opacity:1;" />
<path d="M 366.015625 556.183594 L 570.925781 556.183594 C 579.007812 556.183594 585.5625 562.734375 585.5625 570.816406 C 585.5625 578.902344 579.007812 585.453125 570.925781 585.453125 L 366.015625 585.453125 C 357.933594 585.453125 351.378906 578.902344 351.378906 570.816406 C 351.378906 562.734375 357.933594 556.183594 366.015625 556.183594 Z M 366.015625 556.183594 " style=" stroke:none;fill-rule:nonzero;fill:rgb(0%,15.294118%,33.333333%);fill-opacity:1;" />
<path d="M 395.289062 497.636719 L 512.378906 497.636719 C 520.464844 497.636719 527.015625 504.1875 527.015625 512.273438 C 527.015625 520.355469 520.464844 526.910156 512.378906 526.910156 L 395.289062 526.910156 C 387.207031 526.910156 380.652344 520.355469 380.652344 512.273438 C 380.652344 504.191406 387.207031 497.636719 395.289062 497.636719 Z M 395.289062 497.636719 " style=" stroke:none;fill-rule:nonzero;fill:rgb(20%,32.156863%,49.019608%);fill-opacity:1;" />
</g>
</svg>