<svg id="fb" xmlns="http://www.w3.org/2000/svg" viewBox="0 0 138.63 138.63"><defs><style>.cls-1{fill:#395398;}.cls-2{fill:#fff;}</style></defs><title>fb_logo</title><path class="cls-1" d="M138.63,69.32a69.32,69.32,0,1,0-69.31,69.31h.59V90.26H53.22V70.93H69.91V56.68c0-16.54,10.1-25.55,24.85-25.55a138.62,138.62,0,0,1,14.92.76V49.18H99.44c-8,0-9.57,3.82-9.57,9.41V70.93H109l-2.5,19.33H89.87v45.27A69.35,69.35,0,0,0,138.63,69.32Z"/><path class="cls-2" d="M106.51,90.26,109,70.93H89.87V58.59c0-5.59,1.55-9.41,9.57-9.41h10.24V31.89a138.62,138.62,0,0,0-14.92-.76c-14.75,0-24.85,9-24.85,25.55V70.93H53.22V90.26H69.91v48.36a69.3,69.3,0,0,0,20-3.09V90.26Z"/></svg>