<svg xmlns="http://www.w3.org/2000/svg" height="644pt" version="1.1" viewBox="-29 0 644 644.216" width="644pt">
<g id="surface1">
<path d="M 304.949219 99.945312 C 321.117188 83.777344 347.328125 83.777344 363.496094 99.945312 L 514.882812 251.332031 C 531.050781 267.496094 531.050781 293.707031 514.882812 309.875 C 498.714844 326.042969 472.503906 326.042969 456.335938 309.875 L 304.949219 158.488281 C 288.78125 142.320312 288.78125 116.109375 304.949219 99.945312 Z M 304.949219 99.945312 " style=" stroke:none;fill-rule:nonzero;fill:rgb(36.862745%,45.882353%,60%);fill-opacity:1;" />
<path d="M 190.371094 497.636719 C 174.203125 497.636719 161.097656 484.53125 161.097656 468.363281 C 161.097656 452.195312 174.203125 439.089844 190.371094 439.089844 C 304.171875 439.089844 380.644531 356.746094 380.644531 234.179688 C 380.644531 218.015625 393.75 204.90625 409.917969 204.90625 C 426.082031 204.90625 439.191406 218.011719 439.191406 234.179688 C 439.1875 389.292969 336.875 497.636719 190.371094 497.636719 Z M 190.371094 497.636719 " style=" stroke:none;fill-rule:nonzero;fill:rgb(0%,15.294118%,33.333333%);fill-opacity:1;" />
<path d="M 242.851562 225.609375 L 459.886719 8.574219 C 471.320312 -2.859375 489.855469 -2.859375 501.285156 8.574219 L 518.433594 25.722656 C 529.867188 37.152344 529.863281 55.6875 518.433594 67.121094 L 301.398438 284.152344 C 289.964844 295.585938 271.433594 295.585938 260 284.152344 L 242.851562 267.007812 C 231.421875 255.574219 231.421875 237.039062 242.851562 225.609375 Z M 242.851562 225.609375 " style=" stroke:none;fill-rule:nonzero;fill:rgb(0%,15.294118%,33.333333%);fill-opacity:1;" />
<path d="M 242.851562 172.085938 L 377.089844 37.847656 C 388.523438 26.414062 407.058594 26.414062 418.488281 37.847656 L 489.160156 108.515625 C 500.589844 119.949219 500.589844 138.484375 489.160156 149.914062 L 354.921875 284.152344 C 343.488281 295.585938 324.957031 295.585938 313.523438 284.152344 L 242.851562 213.484375 C 231.421875 202.050781 231.421875 183.515625 242.851562 172.085938 Z M 242.851562 172.085938 " style=" stroke:none;fill-rule:nonzero;fill:rgb(26.27451%,36.862745%,53.333333%);fill-opacity:1;" />
<path d="M 461.996094 106.40625 C 454.234375 106.394531 446.78125 109.480469 441.300781 114.980469 L 317.105469 239.171875 C 305.671875 250.605469 305.671875 269.136719 317.101562 280.570312 C 328.535156 292.003906 347.070312 292.003906 358.5 280.574219 L 366.203125 272.871094 L 366.234375 272.84375 L 366.316406 272.757812 C 366.355469 272.71875 366.398438 272.675781 366.4375 272.636719 L 367.484375 271.589844 L 367.503906 271.566406 L 367.535156 271.539062 L 367.648438 271.425781 C 367.699219 271.375 367.746094 271.324219 367.796875 271.277344 L 367.867188 271.207031 C 367.921875 271.152344 367.980469 271.089844 368.039062 271.03125 L 368.042969 271.03125 L 368.371094 270.703125 C 368.386719 270.6875 368.410156 270.664062 368.425781 270.648438 L 368.707031 270.367188 C 368.761719 270.3125 368.808594 270.265625 368.863281 270.210938 L 368.894531 270.179688 C 368.941406 270.132812 368.992188 270.082031 369.039062 270.035156 L 369.347656 269.726562 C 369.390625 269.683594 369.433594 269.640625 369.476562 269.597656 L 369.582031 269.492188 L 370.101562 268.96875 L 370.207031 268.863281 L 370.371094 268.703125 L 370.441406 268.628906 C 370.574219 268.5 370.699219 268.375 370.828125 268.246094 L 370.894531 268.179688 C 371.175781 267.898438 371.464844 267.609375 371.753906 267.320312 L 371.839844 267.234375 C 371.980469 267.089844 372.125 266.949219 372.269531 266.804688 L 372.273438 266.800781 C 372.421875 266.652344 372.570312 266.503906 372.722656 266.351562 L 372.769531 266.300781 C 372.917969 266.152344 373.070312 266.003906 373.21875 265.851562 L 373.257812 265.8125 C 373.328125 265.746094 373.402344 265.667969 373.472656 265.597656 L 373.511719 265.558594 C 373.566406 265.503906 373.621094 265.453125 373.675781 265.394531 L 373.992188 265.078125 C 374.066406 265.003906 374.132812 264.9375 374.207031 264.863281 L 374.261719 264.8125 C 374.328125 264.742188 374.398438 264.671875 374.46875 264.605469 L 374.507812 264.566406 C 374.570312 264.5 374.636719 264.433594 374.703125 264.371094 L 374.777344 264.292969 C 374.925781 264.144531 375.078125 263.996094 375.226562 263.84375 L 375.902344 263.167969 L 376.019531 263.054688 L 376.042969 263.027344 C 376.121094 262.949219 376.199219 262.871094 376.28125 262.792969 L 376.316406 262.757812 C 376.46875 262.601562 376.632812 262.441406 376.789062 262.28125 L 376.871094 262.203125 L 376.964844 262.109375 C 377.003906 262.066406 377.042969 262.027344 377.085938 261.984375 L 377.105469 261.964844 C 377.179688 261.890625 377.253906 261.816406 377.328125 261.746094 L 377.40625 261.664062 C 377.480469 261.589844 377.550781 261.519531 377.625 261.445312 L 377.644531 261.425781 C 377.683594 261.386719 377.71875 261.351562 377.757812 261.3125 L 378.5 260.570312 C 378.664062 260.40625 378.824219 260.246094 378.992188 260.082031 L 379.035156 260.039062 C 379.210938 259.859375 379.390625 259.679688 379.570312 259.5 L 380.113281 258.960938 L 381.277344 257.796875 L 381.289062 257.78125 C 381.660156 257.414062 382.035156 257.035156 382.414062 256.660156 L 382.488281 256.585938 C 383.257812 255.8125 384.042969 255.027344 384.839844 254.230469 L 384.84375 254.230469 L 387.265625 251.808594 L 387.34375 251.726562 C 390.660156 248.410156 394.160156 244.910156 397.777344 241.292969 L 397.824219 241.25 C 434.207031 204.867188 482.695312 156.375 482.695312 156.375 C 494.128906 144.941406 494.128906 126.410156 482.695312 114.976562 C 477.207031 109.488281 469.761719 106.40625 461.996094 106.40625 Z M 461.996094 106.40625 " style=" stroke:none;fill-rule:nonzero;fill:rgb(20%,32.156863%,49.019608%);fill-opacity:1;" />
<path d="M 87.914062 351.273438 C 58.644531 351.273438 58.644531 380.546875 58.644531 380.546875 C 58.644531 380.546875 58.644531 409.816406 87.914062 409.816406 C 87.914062 409.816406 146.460938 409.816406 146.460938 468.363281 L 146.460938 556.179688 L 292.824219 556.179688 L 292.824219 468.363281 C 292.824219 468.363281 292.824219 409.816406 351.371094 409.816406 C 367.539062 409.816406 380.644531 396.710938 380.644531 380.546875 C 380.644531 364.378906 367.539062 351.273438 351.371094 351.273438 Z M 87.914062 351.273438 " style=" stroke:none;fill-rule:nonzero;fill:rgb(26.27451%,36.862745%,53.333333%);fill-opacity:1;" />
<path d="M 175.734375 351.273438 C 191.902344 351.289062 204.992188 364.410156 204.976562 380.574219 C 204.960938 396.71875 191.878906 409.800781 175.734375 409.816406 C 175.734375 409.816406 234.28125 409.816406 234.28125 468.363281 L 234.28125 556.179688 L 292.824219 556.179688 L 292.824219 468.363281 C 292.824219 468.363281 292.824219 409.816406 351.371094 409.816406 C 367.539062 409.816406 380.644531 396.710938 380.644531 380.546875 C 380.644531 364.378906 367.539062 351.273438 351.371094 351.273438 Z M 175.734375 351.273438 " style=" stroke:none;fill-rule:nonzero;fill:rgb(8.627451%,22.352941%,41.176471%);fill-opacity:1;" />
<path d="M 278.1875 497.636719 C 262.023438 497.636719 248.914062 484.53125 248.914062 468.363281 C 248.914062 452.195312 262.019531 439.089844 278.1875 439.089844 C 391.992188 439.089844 468.460938 356.746094 468.460938 234.179688 C 468.460938 218.015625 481.566406 204.90625 497.734375 204.90625 C 513.902344 204.90625 527.007812 218.011719 527.007812 234.179688 C 527.007812 389.292969 424.695312 497.636719 278.1875 497.636719 Z M 278.1875 497.636719 " style=" stroke:none;fill-rule:nonzero;fill:rgb(20%,32.156863%,49.019608%);fill-opacity:1;" />
<path d="M 472.234375 380.546875 C 456.074219 380.535156 442.984375 367.429688 442.992188 351.269531 C 442.996094 346.777344 444.03125 342.347656 446.019531 338.320312 C 460.914062 308.105469 468.460938 273.074219 468.460938 234.179688 C 468.476562 218.015625 481.597656 204.921875 497.765625 204.9375 C 513.90625 204.957031 526.988281 218.039062 527.007812 234.179688 C 527.007812 282.121094 517.429688 325.871094 498.503906 364.222656 C 493.578125 374.226562 483.386719 380.558594 472.234375 380.546875 Z M 472.234375 380.546875 " style=" stroke:none;fill-rule:nonzero;fill:rgb(0%,15.294118%,33.333333%);fill-opacity:1;" />
<path d="M 205.007812 585.453125 L 205.007812 526.910156 L 250.460938 436 C 258.484375 419.953125 274.882812 409.816406 292.824219 409.816406 C 310.765625 409.816406 327.164062 419.953125 335.1875 436 L 380.640625 526.910156 L 380.640625 585.453125 Z M 205.007812 585.453125 " style=" stroke:none;fill-rule:nonzero;fill:rgb(80.392157%,83.137255%,87.45098%);fill-opacity:1;" />
<path d="M 263.554688 526.910156 C 263.554688 543.078125 250.445312 556.183594 234.28125 556.183594 C 218.113281 556.183594 205.007812 543.078125 205.007812 526.910156 C 205.007812 510.742188 218.113281 497.636719 234.28125 497.636719 C 250.445312 497.636719 263.554688 510.742188 263.554688 526.910156 Z M 263.554688 526.910156 " style=" stroke:none;fill-rule:nonzero;fill:rgb(67.843137%,72.54902%,79.215686%);fill-opacity:1;" />
<path d="M 380.644531 585.453125 L 380.644531 526.910156 L 338.359375 442.34375 C 333.175781 440.296875 327.667969 439.195312 322.097656 439.089844 C 304.15625 439.089844 287.757812 449.226562 279.734375 465.273438 L 219.644531 585.453125 Z M 380.644531 585.453125 " style=" stroke:none;fill-rule:nonzero;fill:rgb(49.019608%,56.078431%,67.45098%);fill-opacity:1;" />
<path d="M 292.824219 497.636719 L 351.371094 497.636719 C 367.535156 497.636719 380.640625 510.742188 380.640625 526.90625 C 380.640625 543.074219 367.535156 556.179688 351.371094 556.179688 L 292.824219 556.179688 C 276.65625 556.179688 263.550781 543.074219 263.550781 526.90625 C 263.550781 510.742188 276.65625 497.636719 292.824219 497.636719 Z M 292.824219 497.636719 " style=" stroke:none;fill-rule:nonzero;fill:rgb(36.862745%,45.882353%,60%);fill-opacity:1;" />
<path d="M 363.496094 99.945312 C 379.664062 83.777344 405.875 83.777344 422.042969 99.945312 L 573.429688 251.332031 C 589.59375 267.496094 589.59375 293.707031 573.429688 309.875 C 557.261719 326.042969 531.050781 326.042969 514.882812 309.875 L 363.496094 158.488281 C 347.328125 142.320312 347.328125 116.109375 363.496094 99.945312 Z M 363.496094 99.945312 " style=" stroke:none;fill-rule:nonzero;fill:rgb(67.843137%,72.54902%,79.215686%);fill-opacity:1;" />
<path d="M 556.28125 263.453125 C 556.28125 279.621094 543.171875 292.726562 527.007812 292.726562 C 510.839844 292.726562 497.734375 279.621094 497.734375 263.453125 C 497.734375 247.285156 510.839844 234.179688 527.007812 234.179688 C 543.171875 234.179688 556.28125 247.285156 556.28125 263.453125 Z M 556.28125 263.453125 " style=" stroke:none;fill-rule:nonzero;fill:rgb(49.019608%,56.078431%,67.45098%);fill-opacity:1;" />
<path d="M 497.734375 585.453125 C 466.253906 585.453125 451.699219 574.050781 444.972656 560.539062 C 434.871094 540.25 414.867188 526.910156 392.203125 526.910156 L 134.898438 526.910156 C 112.238281 526.910156 92.234375 540.25 82.128906 560.539062 C 75.402344 574.050781 60.851562 585.453125 29.371094 585.453125 C 0.0976562 585.453125 0.0976562 614.726562 0.0976562 614.726562 C 0.0976562 614.726562 0.0976562 644 29.371094 644 L 497.734375 644 C 527.007812 644 527.007812 614.726562 527.007812 614.726562 C 527.007812 614.726562 527.007812 585.453125 497.734375 585.453125 Z M 497.734375 585.453125 " style=" stroke:none;fill-rule:nonzero;fill:rgb(80.392157%,83.137255%,87.45098%);fill-opacity:1;" />
<path d="M 556.28125 234.183594 C 556.28125 266.515625 530.066406 292.726562 497.734375 292.726562 C 465.398438 292.726562 439.1875 266.515625 439.1875 234.183594 C 439.1875 201.847656 465.398438 175.636719 497.734375 175.636719 C 530.066406 175.636719 556.28125 201.847656 556.28125 234.183594 Z M 556.28125 234.183594 " style=" stroke:none;fill-rule:nonzero;fill:rgb(26.27451%,36.862745%,53.333333%);fill-opacity:1;" />
<path d="M 497.734375 175.636719 L 497.117188 175.636719 L 497.039062 175.640625 L 496.714844 175.640625 L 496.644531 175.644531 L 496.484375 175.644531 C 496.183594 175.652344 495.878906 175.660156 495.582031 175.671875 C 487.742188 176.050781 481.648438 182.636719 481.882812 190.480469 C 482.121094 198.507812 488.683594 204.894531 496.710938 204.917969 C 496.777344 204.917969 496.84375 204.917969 496.914062 204.917969 L 497.730469 204.90625 C 499.019531 204.886719 500.296875 204.703125 501.53125 204.355469 C 502.675781 205.015625 503.902344 205.519531 505.179688 205.855469 C 520.816406 209.972656 530.15625 225.988281 526.039062 241.625 C 522.652344 254.484375 511.027344 263.445312 497.730469 263.449219 C 496.601562 263.449219 495.472656 263.386719 494.351562 263.261719 C 493.796875 263.199219 493.238281 263.167969 492.679688 263.167969 C 484.59375 263.175781 478.050781 269.738281 478.0625 277.820312 C 478.070312 285.257812 483.65625 291.503906 491.042969 292.347656 C 491.902344 292.445312 492.765625 292.523438 493.632812 292.582031 L 493.636719 292.582031 L 493.730469 292.589844 L 493.746094 292.589844 L 493.832031 292.597656 L 493.847656 292.597656 L 493.9375 292.601562 L 493.949219 292.605469 L 494.046875 292.609375 L 494.050781 292.609375 C 494.121094 292.613281 494.1875 292.617188 494.257812 292.625 L 494.261719 292.625 L 494.359375 292.628906 L 494.382812 292.628906 L 494.457031 292.632812 L 494.488281 292.636719 L 494.558594 292.640625 L 494.59375 292.640625 L 494.660156 292.644531 L 494.691406 292.648438 L 494.761719 292.652344 L 494.796875 292.652344 L 494.859375 292.65625 L 494.894531 292.660156 L 494.96875 292.660156 L 494.996094 292.664062 L 495.09375 292.667969 L 495.109375 292.667969 L 495.191406 292.671875 L 495.234375 292.671875 L 495.292969 292.675781 L 495.335938 292.675781 L 495.394531 292.679688 L 495.4375 292.679688 L 495.492188 292.683594 L 495.539062 292.683594 L 495.59375 292.6875 L 495.640625 292.6875 L 495.695312 292.691406 L 495.742188 292.691406 L 495.800781 292.695312 L 495.839844 292.695312 L 495.914062 292.699219 L 495.941406 292.699219 L 496.035156 292.703125 L 496.179688 292.703125 L 496.238281 292.707031 L 496.382812 292.707031 L 496.441406 292.710938 L 496.582031 292.710938 L 496.644531 292.714844 L 497.023438 292.714844 L 497.085938 292.71875 L 497.734375 292.71875 C 530.066406 292.71875 556.28125 266.507812 556.28125 234.171875 L 556.28125 233.78125 C 556.277344 233.757812 556.277344 233.734375 556.277344 233.710938 L 556.277344 233.433594 L 556.273438 233.394531 L 556.273438 233.21875 C 556.273438 233.191406 556.269531 233.160156 556.269531 233.132812 L 556.269531 233.046875 L 556.265625 233.007812 L 556.265625 232.867188 L 556.261719 232.832031 L 556.261719 232.746094 L 556.257812 232.675781 L 556.257812 232.570312 L 556.253906 232.539062 L 556.253906 232.449219 L 556.25 232.394531 L 556.25 232.359375 L 556.246094 232.304688 L 556.246094 232.203125 L 556.242188 232.183594 L 556.242188 232.097656 L 556.238281 232.074219 L 556.238281 232.011719 L 556.234375 231.980469 L 556.234375 231.921875 L 556.230469 231.890625 L 556.230469 231.832031 L 556.226562 231.804688 L 556.222656 231.730469 L 556.222656 231.714844 L 556.21875 231.625 L 556.21875 231.617188 L 556.214844 231.539062 L 556.214844 231.507812 L 556.210938 231.449219 L 556.210938 231.417969 L 556.207031 231.359375 L 556.203125 231.328125 L 556.203125 231.269531 L 556.199219 231.242188 L 556.195312 231.160156 L 556.195312 231.128906 L 556.191406 231.066406 L 556.191406 231.039062 L 556.1875 230.980469 L 556.183594 230.945312 L 556.179688 230.890625 L 556.179688 230.859375 L 556.175781 230.804688 L 556.171875 230.769531 L 556.164062 230.597656 L 556.160156 230.574219 L 556.15625 230.511719 L 556.15625 230.476562 L 556.152344 230.421875 L 556.148438 230.390625 C 556.148438 230.371094 556.148438 230.347656 556.144531 230.328125 L 556.144531 230.304688 L 556.140625 230.226562 L 556.136719 230.21875 L 556.132812 230.128906 L 556.132812 230.117188 L 556.128906 230.042969 L 556.125 230.015625 L 556.121094 229.953125 L 556.121094 229.925781 L 556.117188 229.867188 L 556.113281 229.835938 L 556.109375 229.761719 L 556.109375 229.753906 L 556.101562 229.664062 L 556.097656 229.648438 C 556.097656 229.625 556.09375 229.601562 556.09375 229.574219 L 556.09375 229.550781 L 556.085938 229.488281 L 556.085938 229.460938 L 556.078125 229.398438 L 556.078125 229.371094 L 556.074219 229.308594 L 556.070312 229.285156 C 556.066406 229.226562 556.058594 229.164062 556.054688 229.109375 L 556.054688 229.089844 L 556.046875 229.023438 L 556.046875 228.996094 L 556.039062 228.9375 L 556.039062 228.90625 L 556.03125 228.847656 L 556.03125 228.820312 L 556.023438 228.746094 L 556.023438 228.730469 C 556.019531 228.703125 556.015625 228.671875 556.011719 228.644531 L 556.011719 228.625 C 556.007812 228.605469 556.007812 228.578125 556.003906 228.558594 L 556.003906 228.53125 L 555.996094 228.46875 L 555.996094 228.441406 C 555.992188 228.421875 555.992188 228.402344 555.988281 228.382812 L 555.984375 228.355469 L 555.980469 228.292969 L 555.976562 228.265625 L 555.96875 228.183594 L 555.964844 228.160156 C 555.964844 228.140625 555.960938 228.117188 555.960938 228.097656 L 555.957031 228.066406 L 555.949219 228.007812 L 555.945312 227.976562 L 555.941406 227.921875 L 555.9375 227.890625 L 555.933594 227.828125 L 555.929688 227.804688 L 555.917969 227.71875 L 555.917969 227.710938 L 555.910156 227.636719 L 555.90625 227.605469 L 555.898438 227.546875 L 555.894531 227.515625 L 555.890625 227.460938 L 555.886719 227.429688 L 555.878906 227.371094 L 555.875 227.34375 C 555.867188 227.285156 555.863281 227.226562 555.855469 227.171875 L 555.851562 227.152344 L 555.84375 227.085938 L 555.839844 227.058594 L 555.832031 227 L 555.828125 226.972656 L 555.832031 226.925781 L 555.828125 226.902344 L 555.820312 226.828125 L 555.820312 226.816406 L 555.808594 226.726562 L 555.804688 226.714844 L 555.796875 226.640625 L 555.792969 226.621094 L 555.785156 226.554688 L 555.78125 226.527344 L 555.773438 226.46875 L 555.769531 226.441406 C 555.765625 226.421875 555.765625 226.394531 555.757812 226.375 L 555.757812 226.355469 C 555.753906 226.328125 555.75 226.296875 555.746094 226.269531 C 555.742188 226.238281 555.738281 226.210938 555.734375 226.183594 L 555.730469 226.160156 L 555.722656 226.097656 L 555.714844 226.070312 L 555.707031 226.011719 L 555.703125 225.984375 L 555.695312 225.921875 L 555.691406 225.898438 L 555.683594 225.820312 L 555.679688 225.8125 C 555.675781 225.785156 555.671875 225.753906 555.667969 225.726562 L 555.664062 225.703125 L 555.65625 225.644531 L 555.652344 225.613281 L 555.640625 225.554688 L 555.636719 225.527344 L 555.628906 225.464844 L 555.625 225.441406 L 555.613281 225.367188 L 555.609375 225.355469 C 555.605469 225.328125 555.601562 225.300781 555.597656 225.269531 L 555.59375 225.25 L 555.582031 225.183594 L 555.578125 225.160156 L 555.570312 225.097656 L 555.566406 225.070312 L 555.558594 225.011719 L 555.554688 224.984375 L 555.542969 224.917969 L 555.539062 224.898438 C 555.53125 224.84375 555.519531 224.785156 555.511719 224.730469 L 555.507812 224.703125 L 555.496094 224.644531 L 555.492188 224.617188 L 555.480469 224.558594 L 555.46875 224.464844 L 555.460938 224.445312 L 555.433594 224.273438 L 555.433594 224.257812 L 555.417969 224.1875 L 555.414062 224.167969 L 555.402344 224.101562 L 555.398438 224.082031 L 555.386719 224.015625 L 555.382812 223.992188 C 555.371094 223.9375 555.363281 223.878906 555.351562 223.824219 L 555.347656 223.800781 L 555.335938 223.738281 L 555.332031 223.714844 L 555.320312 223.652344 L 555.316406 223.628906 L 555.304688 223.5625 L 555.300781 223.542969 L 555.289062 223.472656 L 555.285156 223.457031 L 555.269531 223.371094 L 555.269531 223.367188 L 555.253906 223.289062 L 555.25 223.261719 L 555.238281 223.207031 L 555.230469 223.175781 L 555.222656 223.121094 L 555.214844 223.089844 L 555.203125 223.027344 L 555.199219 223.007812 L 555.183594 222.921875 L 555.183594 222.914062 L 555.167969 222.839844 L 555.160156 222.8125 L 555.152344 222.757812 L 555.144531 222.726562 L 555.132812 222.671875 L 555.128906 222.640625 L 555.117188 222.585938 L 555.109375 222.554688 L 555.097656 222.5 L 555.09375 222.464844 L 555.078125 222.390625 L 555.070312 222.359375 L 555.0625 222.308594 L 555.054688 222.273438 L 555.042969 222.226562 L 555.035156 222.1875 L 555.027344 222.140625 L 555.019531 222.109375 L 555.007812 222.050781 L 555 222.023438 L 554.984375 221.941406 L 554.980469 221.929688 L 554.964844 221.859375 L 554.960938 221.832031 L 554.949219 221.773438 L 554.941406 221.746094 L 554.929688 221.691406 L 554.925781 221.660156 L 554.910156 221.605469 L 554.90625 221.578125 L 554.886719 221.492188 L 554.867188 221.410156 L 554.863281 221.386719 L 554.851562 221.328125 L 554.84375 221.300781 L 554.832031 221.242188 L 554.824219 221.21875 L 554.8125 221.15625 L 554.808594 221.132812 C 554.800781 221.105469 554.796875 221.085938 554.792969 221.0625 L 554.761719 220.9375 L 554.75 220.882812 L 554.742188 220.851562 L 554.730469 220.800781 L 554.722656 220.769531 L 554.710938 220.714844 L 554.703125 220.6875 C 554.699219 220.664062 554.695312 220.640625 554.6875 220.621094 L 554.683594 220.605469 L 554.664062 220.519531 L 554.660156 220.503906 L 554.644531 220.4375 L 554.636719 220.410156 L 554.625 220.355469 L 554.617188 220.328125 L 554.605469 220.273438 L 554.582031 220.179688 L 554.578125 220.160156 L 554.554688 220.078125 L 554.554688 220.070312 L 554.535156 219.996094 L 554.53125 219.972656 L 554.515625 219.914062 L 554.507812 219.882812 L 554.496094 219.828125 L 554.488281 219.800781 L 554.472656 219.742188 L 554.46875 219.71875 C 554.460938 219.695312 554.453125 219.667969 554.445312 219.644531 L 554.445312 219.636719 C 554.4375 219.609375 554.433594 219.582031 554.425781 219.558594 L 554.417969 219.53125 L 554.402344 219.472656 L 554.398438 219.449219 L 554.382812 219.390625 L 554.375 219.363281 C 554.371094 219.34375 554.363281 219.324219 554.359375 219.304688 L 554.355469 219.28125 L 554.335938 219.210938 L 554.332031 219.199219 L 554.308594 219.113281 L 554.304688 219.101562 L 554.289062 219.035156 L 554.28125 219.003906 L 554.265625 218.953125 L 554.257812 218.921875 L 554.246094 218.867188 L 554.238281 218.839844 L 554.21875 218.777344 L 554.214844 218.761719 C 554.207031 218.734375 554.203125 218.703125 554.191406 218.675781 L 554.191406 218.664062 L 554.171875 218.597656 L 554.148438 218.515625 L 554.140625 218.484375 L 554.125 218.433594 L 554.117188 218.402344 L 554.09375 218.320312 C 554.082031 218.265625 554.066406 218.214844 554.050781 218.160156 L 554.027344 218.078125 L 554.015625 218.050781 L 554.003906 218 L 553.996094 217.96875 L 553.972656 217.886719 L 553.953125 217.824219 L 553.949219 217.804688 C 553.941406 217.777344 553.933594 217.75 553.925781 217.722656 L 553.917969 217.703125 L 553.902344 217.644531 L 553.890625 217.613281 L 553.878906 217.5625 L 553.867188 217.53125 L 553.855469 217.484375 L 553.84375 217.449219 L 553.828125 217.390625 L 553.820312 217.371094 L 553.796875 217.289062 L 553.792969 217.269531 L 553.773438 217.207031 L 553.765625 217.179688 L 553.75 217.128906 L 553.738281 217.097656 L 553.714844 217.015625 L 553.699219 216.964844 L 553.6875 216.9375 L 553.667969 216.867188 L 553.660156 216.832031 L 553.640625 216.777344 L 553.628906 216.742188 L 553.617188 216.699219 L 553.578125 216.582031 L 553.5625 216.53125 L 553.554688 216.503906 L 553.535156 216.441406 L 553.527344 216.417969 L 553.503906 216.34375 L 553.496094 216.320312 L 553.480469 216.265625 L 553.46875 216.234375 L 553.453125 216.183594 L 553.445312 216.15625 L 553.425781 216.105469 L 553.417969 216.074219 L 553.398438 216.015625 L 553.390625 215.996094 L 553.359375 215.902344 L 553.339844 215.835938 L 553.328125 215.808594 L 553.3125 215.757812 L 553.285156 215.675781 L 553.277344 215.648438 L 553.253906 215.589844 L 553.25 215.566406 L 553.222656 215.488281 L 553.214844 215.464844 L 553.195312 215.410156 L 553.183594 215.378906 L 553.167969 215.328125 L 553.15625 215.296875 L 553.140625 215.25 L 553.128906 215.21875 L 553.113281 215.167969 L 553.101562 215.136719 L 553.074219 215.0625 C 553.066406 215.035156 553.054688 215.007812 553.046875 214.980469 L 553.039062 214.960938 L 553.019531 214.902344 L 553.007812 214.875 L 552.992188 214.824219 L 552.980469 214.796875 L 552.960938 214.742188 L 552.953125 214.714844 L 552.929688 214.644531 L 552.925781 214.636719 L 552.898438 214.558594 L 552.890625 214.535156 L 552.867188 214.480469 L 552.859375 214.453125 L 552.839844 214.402344 L 552.828125 214.371094 L 552.808594 214.320312 L 552.800781 214.292969 L 552.78125 214.238281 L 552.773438 214.214844 L 552.742188 214.136719 L 552.730469 214.105469 L 552.714844 214.0625 L 552.703125 214.023438 L 552.6875 213.984375 L 552.675781 213.945312 L 552.644531 213.867188 L 552.628906 213.824219 L 552.617188 213.789062 L 552.597656 213.738281 L 552.582031 213.695312 L 552.5625 213.636719 L 552.550781 213.609375 L 552.53125 213.558594 L 552.519531 213.527344 L 552.503906 213.480469 L 552.488281 213.449219 L 552.472656 213.40625 L 552.460938 213.367188 L 552.445312 213.324219 L 552.425781 213.277344 L 552.402344 213.21875 L 552.390625 213.183594 L 552.375 213.140625 L 552.359375 213.105469 L 552.34375 213.0625 L 552.328125 213.023438 L 552.316406 212.988281 L 552.269531 212.871094 L 552.242188 212.800781 L 552.226562 212.761719 L 552.214844 212.722656 L 552.183594 212.644531 L 552.167969 212.609375 L 552.152344 212.566406 L 552.140625 212.53125 L 552.121094 212.488281 L 552.109375 212.453125 L 552.089844 212.40625 L 552.066406 212.347656 L 552.050781 212.304688 L 552.035156 212.269531 L 552.019531 212.226562 L 552.003906 212.1875 L 551.988281 212.152344 L 551.972656 212.113281 L 551.957031 212.078125 L 551.941406 212.035156 L 551.921875 211.992188 L 551.910156 211.960938 L 551.878906 211.890625 L 551.832031 211.773438 L 551.820312 211.742188 L 551.800781 211.699219 L 551.785156 211.664062 L 551.769531 211.621094 L 551.757812 211.59375 C 551.734375 211.539062 551.710938 211.484375 551.6875 211.433594 L 551.675781 211.402344 L 551.65625 211.351562 L 551.648438 211.332031 L 551.625 211.28125 L 551.613281 211.253906 L 551.59375 211.207031 L 551.582031 211.179688 L 551.5625 211.132812 L 551.554688 211.117188 L 551.511719 211.015625 L 551.5 210.992188 L 551.480469 210.945312 L 551.46875 210.917969 L 551.445312 210.875 L 551.433594 210.84375 L 551.414062 210.796875 L 551.402344 210.773438 L 551.382812 210.722656 L 551.375 210.710938 L 551.332031 210.605469 L 551.320312 210.582031 L 551.300781 210.535156 L 551.285156 210.507812 L 551.265625 210.464844 L 551.253906 210.433594 L 551.234375 210.390625 L 551.21875 210.359375 L 551.203125 210.316406 L 551.183594 210.28125 C 551.171875 210.246094 551.15625 210.214844 551.140625 210.183594 L 551.136719 210.175781 L 551.117188 210.125 L 551.082031 210.054688 L 551.070312 210.027344 L 551.050781 209.980469 L 551.039062 209.957031 L 551.015625 209.90625 L 551.003906 209.882812 C 550.980469 209.828125 550.953125 209.773438 550.929688 209.71875 L 550.917969 209.691406 L 550.894531 209.648438 L 550.882812 209.621094 L 550.863281 209.570312 L 550.816406 209.476562 C 550.789062 209.414062 550.761719 209.355469 550.730469 209.296875 L 550.730469 209.289062 C 550.722656 209.273438 550.714844 209.257812 550.707031 209.242188 L 550.695312 209.214844 L 550.660156 209.144531 L 550.636719 209.09375 L 550.628906 209.074219 C 550.621094 209.054688 550.613281 209.039062 550.601562 209.023438 L 550.597656 209.011719 L 550.511719 208.828125 L 550.503906 208.816406 L 550.476562 208.761719 L 550.46875 208.742188 L 550.445312 208.691406 L 550.433594 208.667969 L 550.410156 208.617188 L 550.316406 208.429688 L 550.308594 208.410156 C 550.300781 208.394531 550.292969 208.378906 550.28125 208.359375 L 550.273438 208.339844 L 550.25 208.292969 L 550.238281 208.265625 L 550.210938 208.21875 L 550.203125 208.199219 L 550.175781 208.148438 L 550.175781 208.140625 L 550.113281 208.015625 L 550.109375 208.011719 L 550.074219 207.941406 L 550.046875 207.890625 L 550.035156 207.871094 L 550.011719 207.820312 L 550 207.800781 L 549.976562 207.746094 L 549.972656 207.742188 C 549.941406 207.679688 549.90625 207.617188 549.875 207.550781 L 549.871094 207.546875 L 549.839844 207.488281 L 549.835938 207.476562 L 549.804688 207.417969 L 549.800781 207.410156 L 549.773438 207.351562 L 549.769531 207.34375 L 549.667969 207.15625 L 549.667969 207.148438 L 549.640625 207.097656 L 549.628906 207.078125 L 549.601562 207.023438 L 549.59375 207.011719 L 549.5625 206.953125 L 549.5625 206.949219 C 549.515625 206.863281 549.472656 206.78125 549.425781 206.691406 L 549.421875 206.6875 L 549.390625 206.628906 L 549.386719 206.617188 L 549.355469 206.558594 L 549.351562 206.550781 C 549.292969 206.445312 549.234375 206.335938 549.179688 206.230469 L 549.175781 206.226562 C 549.164062 206.207031 549.152344 206.183594 549.144531 206.167969 L 549.140625 206.160156 C 549.09375 206.074219 549.046875 205.988281 549 205.902344 L 548.996094 205.902344 L 548.964844 205.84375 L 548.960938 205.835938 L 548.929688 205.777344 L 548.921875 205.765625 C 548.863281 205.660156 548.804688 205.554688 548.746094 205.453125 L 548.742188 205.449219 L 548.710938 205.386719 L 548.703125 205.382812 C 548.632812 205.253906 548.5625 205.128906 548.488281 205 L 548.484375 204.992188 L 548.449219 204.933594 L 548.449219 204.929688 C 548.386719 204.824219 548.324219 204.71875 548.261719 204.613281 L 548.261719 204.609375 C 548.25 204.589844 548.238281 204.570312 548.226562 204.550781 L 548.222656 204.546875 C 548.160156 204.441406 548.097656 204.335938 548.035156 204.230469 L 548.035156 204.226562 C 548.019531 204.207031 548.007812 204.1875 547.996094 204.164062 C 541.886719 193.957031 532.824219 185.84375 522.007812 180.894531 L 522.003906 180.894531 L 521.933594 180.859375 C 521.847656 180.820312 521.757812 180.78125 521.667969 180.742188 L 521.664062 180.738281 L 521.605469 180.714844 L 521.59375 180.707031 L 521.539062 180.683594 L 521.523438 180.675781 L 521.464844 180.648438 L 521.457031 180.648438 C 521.371094 180.609375 521.277344 180.570312 521.191406 180.53125 L 521.1875 180.527344 L 521.128906 180.5 L 521.109375 180.496094 L 521.054688 180.472656 L 520.984375 180.4375 L 520.972656 180.433594 L 520.78125 180.351562 L 520.773438 180.347656 L 520.71875 180.324219 L 520.699219 180.316406 L 520.644531 180.292969 L 520.625 180.285156 L 520.574219 180.261719 L 520.554688 180.253906 L 520.375 180.175781 L 520.359375 180.171875 L 520.3125 180.152344 L 520.28125 180.140625 L 520.238281 180.121094 L 520.207031 180.109375 L 520.160156 180.089844 L 520.132812 180.074219 L 520.085938 180.058594 L 520.046875 180.039062 L 519.984375 180.015625 L 519.941406 179.996094 L 519.902344 179.980469 L 519.867188 179.96875 L 519.824219 179.949219 L 519.789062 179.933594 L 519.75 179.921875 L 519.707031 179.902344 L 519.671875 179.890625 L 519.621094 179.867188 L 519.597656 179.859375 L 519.523438 179.828125 L 519.5 179.820312 L 519.417969 179.785156 L 519.367188 179.765625 L 519.339844 179.753906 L 519.285156 179.734375 L 519.261719 179.722656 L 519.105469 179.660156 L 519.09375 179.65625 L 519.027344 179.632812 L 519.003906 179.621094 L 518.949219 179.601562 L 518.925781 179.59375 L 518.863281 179.570312 L 518.84375 179.5625 L 518.777344 179.535156 L 518.765625 179.53125 C 518.710938 179.511719 518.660156 179.492188 518.605469 179.46875 L 518.597656 179.46875 L 518.527344 179.441406 L 518.507812 179.433594 L 518.441406 179.410156 L 518.429688 179.402344 L 518.351562 179.375 C 518.269531 179.34375 518.183594 179.3125 518.101562 179.28125 L 518.09375 179.277344 L 518.019531 179.253906 L 518.011719 179.25 L 517.933594 179.21875 L 517.929688 179.21875 C 517.820312 179.179688 517.707031 179.136719 517.59375 179.097656 C 515.941406 178.5 514.253906 177.976562 512.53125 177.527344 C 510.101562 176.894531 507.546875 176.898438 505.121094 177.542969 C 503.027344 176.34375 500.664062 175.6875 498.253906 175.636719 C 498.074219 175.636719 497.894531 175.636719 497.71875 175.636719 Z M 497.734375 175.636719 " style=" stroke:none;fill-rule:nonzero;fill:rgb(8.627451%,22.352941%,41.176471%);fill-opacity:1;" />
<path d="M 527.007812 234.183594 C 527.007812 250.347656 513.902344 263.453125 497.734375 263.453125 C 481.566406 263.453125 468.460938 250.347656 468.460938 234.183594 C 468.460938 218.015625 481.566406 204.910156 497.734375 204.910156 C 513.902344 204.910156 527.007812 218.015625 527.007812 234.183594 Z M 527.007812 234.183594 " style=" stroke:none;fill-rule:nonzero;fill:rgb(36.862745%,45.882353%,60%);fill-opacity:1;" />
<path d="M 497.734375 219.546875 C 497.734375 227.628906 491.179688 234.183594 483.097656 234.183594 C 475.015625 234.183594 468.460938 227.628906 468.460938 219.546875 C 468.460938 211.460938 475.015625 204.910156 483.097656 204.910156 C 491.179688 204.910156 497.734375 211.460938 497.734375 219.546875 Z M 497.734375 219.546875 " style=" stroke:none;fill-rule:nonzero;fill:rgb(67.843137%,72.54902%,79.215686%);fill-opacity:1;" />
<path d="M 351.371094 468.363281 C 351.371094 484.53125 338.265625 497.636719 322.097656 497.636719 C 305.929688 497.636719 292.824219 484.53125 292.824219 468.363281 C 292.824219 452.195312 305.929688 439.089844 322.097656 439.089844 C 338.265625 439.089844 351.371094 452.195312 351.371094 468.363281 Z M 351.371094 468.363281 " style=" stroke:none;fill-rule:nonzero;fill:rgb(8.627451%,22.352941%,41.176471%);fill-opacity:1;" />
<path d="M 322.097656 453.726562 C 322.097656 461.8125 315.542969 468.363281 307.460938 468.363281 C 299.378906 468.363281 292.824219 461.8125 292.824219 453.726562 C 292.824219 445.644531 299.378906 439.089844 307.460938 439.089844 C 315.542969 439.089844 322.097656 445.644531 322.097656 453.726562 Z M 322.097656 453.726562 " style=" stroke:none;fill-rule:nonzero;fill:rgb(89.803922%,90.980392%,93.72549%);fill-opacity:1;" />
<path d="M 497.734375 585.453125 C 466.253906 585.453125 451.699219 574.050781 444.972656 560.539062 C 434.871094 540.25 414.867188 526.910156 392.203125 526.910156 L 339.808594 526.910156 C 317.144531 526.910156 297.140625 540.25 287.039062 560.539062 C 280.3125 574.050781 265.757812 585.453125 234.277344 585.453125 L 205.007812 585.453125 C 221.171875 585.453125 234.28125 598.558594 234.28125 614.726562 C 234.28125 630.894531 221.175781 644 205.007812 644 L 497.734375 644 C 527.007812 644 527.007812 614.726562 527.007812 614.726562 C 527.007812 614.726562 527.007812 585.453125 497.734375 585.453125 Z M 497.734375 585.453125 " style=" stroke:none;fill-rule:nonzero;fill:rgb(49.019608%,56.078431%,67.45098%);fill-opacity:1;" />
<path d="M 102.550781 556.179688 L 219.644531 556.179688 C 227.726562 556.179688 234.277344 562.734375 234.277344 570.816406 C 234.277344 578.902344 227.726562 585.453125 219.644531 585.453125 L 102.550781 585.453125 C 94.46875 585.453125 87.914062 578.902344 87.914062 570.816406 C 87.914062 562.734375 94.46875 556.179688 102.550781 556.179688 Z M 102.550781 556.179688 " style=" stroke:none;fill-rule:nonzero;fill:rgb(67.843137%,72.54902%,79.215686%);fill-opacity:1;" />
<path d="M 307.460938 556.179688 L 424.550781 556.179688 C 432.636719 556.179688 439.1875 562.734375 439.1875 570.816406 C 439.1875 578.902344 432.636719 585.453125 424.550781 585.453125 L 307.460938 585.453125 C 299.378906 585.453125 292.824219 578.902344 292.824219 570.816406 C 292.824219 562.734375 299.378906 556.179688 307.460938 556.179688 Z M 307.460938 556.179688 " style=" stroke:none;fill-rule:nonzero;fill:rgb(36.862745%,45.882353%,60%);fill-opacity:1;" />
<path d="M 161.097656 409.816406 L 190.371094 409.816406 C 198.453125 409.816406 205.007812 416.371094 205.007812 424.453125 C 205.007812 432.539062 198.453125 439.089844 190.371094 439.089844 L 161.097656 439.089844 C 153.015625 439.089844 146.460938 432.539062 146.460938 424.453125 C 146.460938 416.371094 153.015625 409.816406 161.097656 409.816406 Z M 161.097656 409.816406 " style=" stroke:none;fill-rule:nonzero;fill:rgb(20%,32.156863%,49.019608%);fill-opacity:1;" />
<path d="M 73.28125 351.273438 L 161.097656 351.273438 C 169.183594 351.273438 175.734375 357.824219 175.734375 365.910156 C 175.734375 373.992188 169.183594 380.546875 161.097656 380.546875 L 73.28125 380.546875 C 65.195312 380.546875 58.644531 373.992188 58.644531 365.910156 C 58.644531 357.824219 65.195312 351.273438 73.28125 351.273438 Z M 73.28125 351.273438 " style=" stroke:none;fill-rule:nonzero;fill:rgb(36.862745%,45.882353%,60%);fill-opacity:1;" />
<path d="M 248.917969 351.273438 L 336.734375 351.273438 C 344.816406 351.273438 351.371094 357.824219 351.371094 365.910156 C 351.371094 373.992188 344.816406 380.546875 336.734375 380.546875 L 248.917969 380.546875 C 240.832031 380.546875 234.28125 373.992188 234.28125 365.910156 C 234.28125 357.824219 240.832031 351.273438 248.917969 351.273438 Z M 248.917969 351.273438 " style=" stroke:none;fill-rule:nonzero;fill:rgb(26.27451%,36.862745%,53.333333%);fill-opacity:1;" />
<path d="M 386.707031 93.878906 C 394.789062 85.796875 407.894531 85.796875 415.980469 93.878906 L 462.398438 140.300781 C 470.484375 148.382812 470.484375 161.488281 462.398438 169.574219 C 454.316406 177.65625 441.210938 177.65625 433.128906 169.574219 L 386.707031 123.152344 C 378.621094 115.070312 378.621094 101.964844 386.707031 93.878906 Z M 386.707031 93.878906 " style=" stroke:none;fill-rule:nonzero;fill:rgb(89.803922%,90.980392%,93.72549%);fill-opacity:1;" />
<path d="M 269.617188 169.574219 L 286.761719 152.425781 C 294.847656 144.34375 307.953125 144.34375 316.035156 152.425781 C 324.117188 160.507812 324.117188 173.613281 316.035156 181.699219 L 298.886719 198.84375 C 290.804688 206.929688 277.699219 206.929688 269.617188 198.84375 C 261.53125 190.761719 261.53125 177.65625 269.617188 169.574219 Z M 269.617188 169.574219 " style=" stroke:none;fill-rule:nonzero;fill:rgb(89.803922%,90.980392%,93.72549%);fill-opacity:1;" />
<path d="M 445.25 23.210938 L 462.398438 6.0625 C 470.480469 -2.019531 483.585938 -2.019531 491.671875 6.0625 C 499.753906 14.144531 499.753906 27.25 491.671875 35.335938 L 474.523438 52.484375 C 466.441406 60.566406 453.335938 60.566406 445.25 52.484375 C 437.167969 44.398438 437.167969 31.292969 445.25 23.210938 Z M 445.25 23.210938 " style=" stroke:none;fill-rule:nonzero;fill:rgb(26.27451%,36.862745%,53.333333%);fill-opacity:1;" />
<path d="M 44.007812 585.453125 L 190.371094 585.453125 C 198.453125 585.453125 205.007812 592.007812 205.007812 600.089844 C 205.007812 608.175781 198.453125 614.726562 190.371094 614.726562 L 44.007812 614.726562 C 35.921875 614.726562 29.371094 608.175781 29.371094 600.089844 C 29.371094 592.007812 35.921875 585.453125 44.007812 585.453125 Z M 44.007812 585.453125 " style=" stroke:none;fill-rule:nonzero;fill:rgb(89.803922%,90.980392%,93.72549%);fill-opacity:1;" />
<path d="M 278.1875 585.453125 L 483.097656 585.453125 C 491.179688 585.453125 497.734375 592.007812 497.734375 600.089844 C 497.734375 608.175781 491.179688 614.726562 483.097656 614.726562 L 278.1875 614.726562 C 270.105469 614.726562 263.550781 608.175781 263.550781 600.089844 C 263.550781 592.007812 270.105469 585.453125 278.1875 585.453125 Z M 278.1875 585.453125 " style=" stroke:none;fill-rule:nonzero;fill:rgb(67.843137%,72.54902%,79.215686%);fill-opacity:1;" />
<path d="M 292.824219 424.453125 C 292.824219 432.539062 286.273438 439.089844 278.1875 439.089844 C 270.105469 439.089844 263.550781 432.539062 263.550781 424.453125 C 263.550781 416.371094 270.105469 409.816406 278.1875 409.816406 C 286.273438 409.816406 292.824219 416.371094 292.824219 424.453125 Z M 292.824219 424.453125 " style=" stroke:none;fill-rule:nonzero;fill:rgb(89.803922%,90.980392%,93.72549%);fill-opacity:1;" />
</g>
</svg>