<svg width="24" height="24" viewBox="0 0 24 24" fill="none" xmlns="http://www.w3.org/2000/svg">
<path d="M22 12.0022C22.0004 10.091 21.4532 8.2198 20.4231 6.61003C19.393 5.00026 17.9232 3.71938 16.1877 2.91906C14.4522 2.11874 12.5237 1.8325 10.6305 2.09422C8.73739 2.35595 6.9589 3.15468 5.50564 4.39585C4.05237 5.63701 2.98521 7.26863 2.43049 9.0975C1.87578 10.9264 1.85676 12.8759 2.37568 14.7152C2.8946 16.5546 3.92973 18.2067 5.35849 19.476C6.78726 20.7453 8.54983 21.5786 10.4375 21.8772V14.8922H7.89875V12.0022H10.4375V9.79843C10.3828 9.28399 10.442 8.76382 10.6108 8.2748C10.7796 7.78577 11.0539 7.33986 11.4142 6.96866C11.7745 6.59746 12.2121 6.31007 12.6959 6.12684C13.1797 5.94362 13.6979 5.86905 14.2137 5.90843C14.9638 5.91828 15.7121 5.98346 16.4525 6.10343V8.56718H15.1925C14.9779 8.53911 14.7597 8.55967 14.554 8.62733C14.3484 8.69498 14.1607 8.80801 14.0046 8.95804C13.8486 9.10807 13.7283 9.29127 13.6526 9.49408C13.577 9.69689 13.5479 9.91411 13.5675 10.1297V12.0047H16.3412L15.8975 14.8947H13.5625V21.8834C15.9153 21.5112 18.058 20.3114 19.6048 18.4999C21.1516 16.6884 22.001 14.3842 22 12.0022Z" fill="#7A7D85"/>
</svg>
