<svg width="80" height="81" viewBox="0 0 80 81" fill="none" xmlns="http://www.w3.org/2000/svg">
<path opacity="0.25" fill-rule="evenodd" clip-rule="evenodd" d="M80 40.2363C80 18.1449 62.0914 0.236328 40 0.236328C17.9086 0.236328 0 18.1449 0 40.2363C0 62.3277 17.9086 80.2363 40 80.2363C62.0914 80.2363 80 62.3277 80 40.2363ZM6.66667 40.2363C6.66667 21.8268 21.5905 6.90299 40 6.90299C58.4095 6.90299 73.3333 21.8268 73.3333 40.2363C73.3333 58.6458 58.4095 73.5697 40 73.5697C21.5905 73.5697 6.66667 58.6458 6.66667 40.2363Z" fill="#be5272"/>
<path d="M38.5581 0C48.8922 0 59.4006 3.13648 66.5631 10.5872C67.9283 12.0073 67.9283 14.3097 66.5631 15.7298C65.1979 17.1498 62.9846 17.1498 61.6194 15.7298C55.7551 9.62946 47.0189 7.27273 38.5581 7.27273C21.1826 7.27273 7.09686 21.9252 7.09686 40C7.09686 58.0748 21.1826 72.7273 38.5581 72.7273C40.4888 72.7273 42.0538 74.3553 42.0538 76.3636C42.0538 78.3719 40.4888 80 38.5581 80C17.3213 80 0.105469 62.0914 0.105469 40C0.105469 17.9086 17.3213 0 38.5581 0Z" fill="#be5272"/>
</svg>
