<svg width="418" height="218" viewBox="0 0 418 218" fill="none" xmlns="http://www.w3.org/2000/svg">
<rect width="418" height="218" fill="#FFD3E2"/>
<path d="M184.07 122.038L179.129 106.074H182.202L185.496 117.951L189.111 106.074H192.025L195.604 117.951L198.867 106.074H201.972L197.03 122.038H194.179L190.536 110.128L186.921 122.038H184.07Z" fill="#404145"/>
<path d="M201.165 114.056C201.165 109.273 204.618 105.821 209.401 105.821C214.184 105.821 217.605 109.273 217.605 114.056C217.605 118.839 214.184 122.291 209.401 122.291C204.618 122.291 201.165 118.839 201.165 114.056ZM214.469 114.056C214.469 110.794 212.411 108.512 209.401 108.512C206.36 108.512 204.301 110.794 204.301 114.056C204.301 117.317 206.36 119.599 209.401 119.599C212.411 119.599 214.469 117.318 214.469 114.056Z" fill="#404145"/>
<path d="M228.07 108.734H225.758C222.843 108.734 221.893 111.332 221.893 114.816V122.038H218.82V106.074H221.893V109.146C222.622 107.024 223.888 106.074 226.138 106.074H228.07V108.734Z" fill="#404145"/>
<path d="M239.458 122.039L233.724 114.405L231.728 116.238V122.035H228.629V99.3906H231.728V112.441L238.665 106.074H242.656L235.943 112.315L243.261 122.039H239.458Z" fill="#404145"/>
<path d="M242.045 116.843H244.928C245.118 118.681 246.448 119.726 248.506 119.726C250.344 119.726 251.516 118.744 251.516 117.572C251.516 113.327 242.456 117.223 242.456 110.414C242.456 107.657 244.801 105.821 248.126 105.821C251.741 105.821 254.209 107.816 254.367 110.825H251.484C251.262 108.988 249.489 108.259 248.126 108.259C246.479 108.259 245.371 109.086 245.371 110.319C245.371 114.278 254.494 110.224 254.494 117.508C254.494 120.423 252.118 122.291 248.503 122.291C244.769 122.291 242.266 120.201 242.045 116.843Z" fill="#404145"/>
<path d="M256.026 128.5V106.074H259.098V108.449C260.048 106.866 261.981 105.821 264.198 105.821C269.013 105.821 271.769 109.305 271.769 114.056C271.769 118.807 268.886 122.291 264.04 122.291C261.918 122.291 260.012 121.31 259.098 119.789V128.5H256.026ZM268.664 114.056C268.664 110.73 266.702 108.512 263.755 108.512C260.777 108.512 258.845 110.73 258.845 114.056C258.845 117.381 260.777 119.599 263.755 119.599C266.701 119.599 268.664 117.382 268.664 114.056V114.056Z" fill="#404145"/>
<path d="M286.01 111.744V122.038H282.937V119.44C282.177 121.15 280.149 122.291 277.742 122.291C274.479 122.291 272.326 120.328 272.326 117.476C272.326 114.404 274.764 112.503 278.534 112.503H281.86C282.583 112.503 282.937 112.123 282.937 111.553C282.937 109.621 281.543 108.29 279.072 108.29C276.855 108.29 275.239 109.684 275.148 111.299H272.297C272.55 108.163 275.402 105.82 279.17 105.82C283.285 105.821 286.01 108.196 286.01 111.744ZM282.937 115.038V114.658H278.819C276.729 114.658 275.366 115.735 275.366 117.413C275.366 118.871 276.57 119.853 278.344 119.853C281.258 119.853 282.937 117.984 282.937 115.038V115.038Z" fill="#404145"/>
<path d="M286.994 114.056C286.994 109.654 289.877 105.821 294.913 105.821C298.651 105.821 301.881 108.037 302.325 111.649H299.253C298.967 109.843 297.13 108.512 294.976 108.512C291.774 108.512 290.193 110.984 290.193 114.056C290.193 117.127 291.808 119.599 294.976 119.599C297.161 119.599 298.777 118.463 299.284 116.653H302.325C301.818 120.011 298.967 122.291 294.913 122.291C289.877 122.291 286.994 118.459 286.994 114.056Z" fill="#404145"/>
<path d="M317.703 114.595H305.508C305.762 117.603 307.725 119.663 310.513 119.663C312.856 119.663 314.377 118.649 314.821 116.843C315.707 117.097 316.911 117.477 317.671 117.698C316.784 120.518 314.092 122.291 310.513 122.291C305.572 122.291 302.499 118.396 302.499 113.961C302.499 109.495 305.288 105.821 310.196 105.821C315.137 105.821 317.766 109.332 317.766 113.39C317.766 113.803 317.73 114.31 317.703 114.595ZM314.662 112.345C314.472 109.907 312.825 108.291 310.196 108.291C307.693 108.291 306.078 109.685 305.603 112.345H314.662Z" fill="#404145"/>
<path d="M176.033 110.377H173.253C171.463 110.377 170.504 111.719 170.504 113.957V122.042H165.231V110.377H162.995C161.205 110.377 160.246 111.719 160.246 113.957V122.042H154.973V106.063H160.246V108.492C161.109 106.606 162.291 106.063 164.049 106.063H170.504V108.492C171.367 106.606 172.549 106.063 174.307 106.063H176.033V110.377ZM153.819 115.298H142.829C143.117 117.088 144.235 118.111 146.12 118.111C147.527 118.111 148.517 117.535 148.837 116.513L153.503 117.823C152.352 120.604 149.508 122.298 146.12 122.298C140.4 122.298 137.779 117.857 137.779 114.053C137.779 110.313 140.08 105.839 145.801 105.839C151.873 105.839 153.886 110.377 153.886 113.732C153.886 114.468 153.854 114.947 153.819 115.298ZM148.705 112.2C148.578 110.825 147.587 109.547 145.798 109.547C144.136 109.547 143.146 110.282 142.825 112.2H148.705ZM128.572 122.043H133.207L138.99 106.064H133.689L130.877 115.359L128 106.064H122.731L128.572 122.043ZM106.968 122.043H112.21V110.377H117.196V122.042H122.404V106.063H112.21V105.072C112.21 103.985 112.976 103.316 114.191 103.316H117.196V99H113.332C109.529 99 106.971 101.333 106.971 104.753V106.063H104V110.377H106.971L106.968 122.043Z" fill="#404145"/>
<path d="M323.291 120.275V120.313C323.291 120.833 323.084 121.332 322.716 121.7C322.348 122.068 321.849 122.275 321.329 122.275V122.275C320.808 122.275 320.309 122.068 319.941 121.7C319.573 121.332 319.366 120.833 319.366 120.313V120.275C319.366 119.755 319.573 119.256 319.941 118.888C320.309 118.52 320.808 118.313 321.329 118.313V118.313C321.849 118.313 322.348 118.52 322.716 118.888C323.084 119.256 323.291 119.755 323.291 120.275V120.275Z" fill="#404145"/>
</svg>
