<svg width="16" height="17" viewBox="0 0 16 17" fill="none" xmlns="http://www.w3.org/2000/svg">
<path fill-rule="evenodd" clip-rule="evenodd" d="M8.28124 12.375C8.1979 12.4583 8.10415 12.5 7.99999 12.5C7.89582 12.5 7.80207 12.4583 7.71874 12.375L3.125 7.74999C3.04166 7.68749 3 7.60415 3 7.49999C3 7.39582 3.03125 7.30207 3.09375 7.21874L3.71875 6.59374C3.80208 6.53124 3.89583 6.49999 4 6.49999C4.10416 6.49999 4.18749 6.54165 4.24999 6.62499L7.18749 9.65623V1.875C7.18749 1.77083 7.22395 1.68229 7.29686 1.60937C7.36978 1.53646 7.45832 1.5 7.56249 1.5H8.43748C8.54165 1.5 8.63019 1.53646 8.70311 1.60937C8.77603 1.68229 8.81248 1.77083 8.81248 1.875V9.65623L11.75 6.62499C11.8125 6.54165 11.8958 6.49999 12 6.49999C12.1041 6.49999 12.1979 6.53124 12.2812 6.59374L12.875 7.21874C12.9583 7.30207 13 7.39582 13 7.49999C13 7.60415 12.9687 7.68749 12.9062 7.74999L8.28124 12.375ZM13.625 13.875C13.7291 13.875 13.8177 13.9114 13.8906 13.9843C13.9635 14.0573 14 14.1458 14 14.25V15.125C14 15.2291 13.9635 15.3177 13.8906 15.3906C13.8177 15.4635 13.7291 15.5 13.625 15.5H2.375C2.27083 15.5 2.18229 15.4635 2.10937 15.3906C2.03646 15.3177 2 15.2291 2 15.125V14.25C2 14.1458 2.03646 14.0573 2.10937 13.9843C2.18229 13.9114 2.27083 13.875 2.375 13.875H13.625Z" fill="white"/>
</svg>
