<svg id="OBJECTS" xmlns="http://www.w3.org/2000/svg" xmlns:xlink="http://www.w3.org/1999/xlink" viewBox="0 0 222.58 209.81">
  <defs>
    <style type="text/css">

      .backCircle_animate{ animation-name:back_rotate; animation-duration: 9s; animation-iteration-count:infinite;animation-direction:alternate; transform-origin: 50% 50%;}

        @keyframes back_rotate{   
          0%{transform: rotate(0deg);}
          100%{transform: rotate(360deg);}
        }

      .cls-1 {
        fill: none;
      }

      .cls-2 {
        fill: #7a4ca5;
      }

      .cls-3 {
        fill: url(#linear-gradient);
      }

      .cls-4 {
        fill: url(#linear-gradient-2);
      }

      .cls-5 {
        fill: url(#linear-gradient-3);
      }

      .cls-6 {
        fill: url(#linear-gradient-4);
      }

      .cls-7 {
        fill: url(#linear-gradient-5);
      }

      .cls-8 {
        fill: url(#linear-gradient-6);
      }

      .cls-9 {
        fill: url(#linear-gradient-7);
      }

      .cls-10 {
        fill: url(#linear-gradient-8);
      }

      .cls-11 {
        fill: url(#linear-gradient-9);
      }

      .cls-12 {
        fill: url(#linear-gradient-10);
      }

      .cls-13 {
        fill: url(#linear-gradient-11);
      }

      .cls-14 {
        fill: url(#linear-gradient-12);
      }

      .cls-15 {
        fill: url(#linear-gradient-13);
      }

      .cls-16 {
        fill: url(#linear-gradient-14);
      }

      .cls-17 {
        fill: url(#linear-gradient-15);
      }

      .cls-18 {
        fill: url(#linear-gradient-16);
      }

      .cls-19 {
        fill: url(#linear-gradient-17);
      }

      .cls-20 {
        fill: url(#linear-gradient-18);
      }

      .cls-21 {
        fill: url(#linear-gradient-19);
      }

      .cls-22 {
        fill: url(#linear-gradient-20);
      }

      .cls-23 {
        fill: url(#linear-gradient-21);
      }

      .cls-24 {
        fill: url(#linear-gradient-22);
      }

      .cls-25 {
        fill: url(#linear-gradient-23);
      }

      .cls-26 {
        fill: url(#linear-gradient-24);
      }

      .cls-27 {
        fill: url(#linear-gradient-25);
      }

      .cls-28 {
        fill: url(#linear-gradient-26);
      }

      .cls-29 {
        fill: url(#linear-gradient-27);
      }

      .cls-30 {
        opacity: 0.43;
        fill: url(#linear-gradient-28);
      }

      .cls-105, .cls-30, .cls-32, .cls-33, .cls-37, .cls-56, .cls-57, .cls-74, .cls-89 {
        isolation: isolate;
      }

      .cls-31 {
        fill: url(#linear-gradient-29);
      }

      .cls-32 {
        fill: #46cccc;
        opacity: 0.4;
      }

      .cls-33, .cls-37, .cls-50 {
        fill: #7bcaff;
      }

      .cls-33, .cls-49, .cls-56, .cls-57 {
        opacity: 0.6;
      }

      .cls-34 {
        fill: #3a7bd8;
      }

      .cls-35 {
        fill: #eff4f4;
      }

      .cls-36 {
        fill: #a9c3ea;
      }

      .cls-37 {
        opacity: 0.5;
      }

      .cls-38 {
        fill: url(#linear-gradient-30);
      }

      .cls-39 {
        fill: #edf4fc;
      }

      .cls-40 {
        fill: #baf4d5;
      }

      .cls-41 {
        fill: #d1d9fe;
      }

      .cls-42 {
        fill: #a6edc8;
      }

      .cls-43 {
        fill: #ffc550;
      }

      .cls-44 {
        fill: #d3d3d3;
      }

      .cls-45 {
        fill: #f2f2f2;
      }

      .cls-46 {
        fill: #f9f4ea;
      }

      .cls-47 {
        fill: #bbceff;
      }

      .cls-48 {
        fill: #f6f3ff;
      }

      .cls-51 {
        fill: url(#linear-gradient-31);
      }

      .cls-52 {
        fill: url(#linear-gradient-32);
      }

      .cls-53 {
        fill: url(#linear-gradient-33);
      }

      .cls-54 {
        fill: url(#linear-gradient-34);
      }

      .cls-55 {
        fill: url(#linear-gradient-35);
      }

      .cls-56 {
        fill: url(#linear-gradient-36);
      }

      .cls-57 {
        fill: url(#linear-gradient-37);
      }

      .cls-58 {
        fill: #d8d8d8;
      }

      .cls-59 {
        fill: url(#linear-gradient-38);
      }

      .cls-60 {
        fill: url(#linear-gradient-39);
      }

      .cls-61 {
        fill: #4e11f4;
      }

      .cls-62 {
        fill: #ffaf84;
      }

      .cls-63 {
        fill: url(#linear-gradient-40);
      }

      .cls-64 {
        fill: url(#linear-gradient-41);
      }

      .cls-65 {
        fill: url(#linear-gradient-42);
      }

      .cls-66 {
        fill: url(#linear-gradient-43);
      }

      .cls-67 {
        fill: url(#linear-gradient-44);
      }

      .cls-68 {
        fill: url(#linear-gradient-45);
      }

      .cls-69 {
        fill: url(#linear-gradient-46);
      }

      .cls-70 {
        fill: url(#linear-gradient-47);
      }

      .cls-71 {
        fill: url(#linear-gradient-48);
      }

      .cls-72 {
        fill: url(#linear-gradient-49);
      }

      .cls-73 {
        clip-path: url(#clip-path);
      }

      .cls-105, .cls-74, .cls-89 {
        opacity: 0.3;
      }

      .cls-74 {
        fill: url(#linear-gradient-50);
      }

      .cls-75 {
        fill: url(#linear-gradient-51);
      }

      .cls-76 {
        fill: url(#linear-gradient-52);
      }

      .cls-77 {
        fill: #3a1549;
      }

      .cls-78 {
        fill: url(#linear-gradient-53);
      }

      .cls-79 {
        fill: url(#linear-gradient-54);
      }

      .cls-80 {
        fill: url(#linear-gradient-55);
      }

      .cls-81 {
        fill: url(#linear-gradient-56);
      }

      .cls-82 {
        fill: url(#linear-gradient-57);
      }

      .cls-83 {
        fill: url(#linear-gradient-58);
      }

      .cls-84 {
        fill: url(#linear-gradient-59);
      }

      .cls-85 {
        fill: url(#linear-gradient-60);
      }

      .cls-86 {
        fill: url(#linear-gradient-61);
      }

      .cls-87 {
        fill: url(#linear-gradient-62);
      }

      .cls-88 {
        clip-path: url(#clip-path-2);
      }

      .cls-89 {
        fill: url(#linear-gradient-63);
      }

      .cls-90 {
        fill: url(#linear-gradient-64);
      }

      .cls-91 {
        fill: url(#linear-gradient-65);
      }

      .cls-92 {
        fill: url(#linear-gradient-66);
      }

      .cls-93 {
        fill: #ed9169;
      }

      .cls-94 {
        fill: url(#linear-gradient-67);
      }

      .cls-95 {
        fill: url(#linear-gradient-68);
      }

      .cls-96 {
        fill: url(#linear-gradient-69);
      }

      .cls-97 {
        fill: url(#linear-gradient-70);
      }

      .cls-98 {
        fill: url(#linear-gradient-71);
      }

      .cls-99 {
        fill: url(#linear-gradient-72);
      }

      .cls-100 {
        fill: url(#linear-gradient-73);
      }

      .cls-101 {
        fill: url(#linear-gradient-74);
      }

      .cls-102 {
        fill: url(#linear-gradient-75);
      }

      .cls-103 {
        fill: url(#linear-gradient-76);
      }

      .cls-104 {
        clip-path: url(#clip-path-3);
      }

      .cls-105 {
        fill: url(#linear-gradient-77);
      }

      .cls-106 {
        fill: url(#linear-gradient-78);
      }
    </style>
    <linearGradient id="linear-gradient" x1="6.32" y1="50.72" x2="30.96" y2="71.23" gradientTransform="matrix(0.99, -0.13, -0.13, -0.99, 88.9, 111.91)" gradientUnits="userSpaceOnUse">
      <stop offset="0" stop-color="#36078b"/>
      <stop offset="1" stop-color="#16b1ff"/>
    </linearGradient>
    <linearGradient id="linear-gradient-2" x1="2.53" y1="27.78" x2="-7.85" y2="89.56" xlink:href="#linear-gradient"/>
    <linearGradient id="linear-gradient-3" x1="16.73" y1="67.93" x2="4.27" y2="48.65" gradientTransform="matrix(0.99, -0.13, -0.13, -0.99, 88.9, 111.91)" gradientUnits="userSpaceOnUse">
      <stop offset="0" stop-color="#f70f47"/>
      <stop offset="1" stop-color="#ffb41d"/>
    </linearGradient>
    <linearGradient id="linear-gradient-4" x1="2.47" y1="9.74" x2="2.47" y2="58.7" xlink:href="#linear-gradient"/>
    <linearGradient id="linear-gradient-5" x1="3.65" y1="76.38" x2="-8.81" y2="57.1" xlink:href="#linear-gradient"/>
    <linearGradient id="linear-gradient-6" x1="51.7" y1="170.34" x2="55.98" y2="170.34" gradientTransform="matrix(1, 0, 0, -1, 18.67, 211.42)" xlink:href="#linear-gradient"/>
    <linearGradient id="linear-gradient-7" x1="-0.85" y1="32.47" x2="20.28" y2="82.89" gradientTransform="matrix(0.99, -0.13, -0.13, -0.99, 88.9, 111.91)" gradientUnits="userSpaceOnUse">
      <stop offset="0" stop-color="blue"/>
      <stop offset="0.09" stop-color="#0909ff"/>
      <stop offset="0.23" stop-color="#2323ff"/>
      <stop offset="0.41" stop-color="#4d4dff"/>
      <stop offset="0.62" stop-color="#8787ff"/>
      <stop offset="0.86" stop-color="#d0d0ff"/>
      <stop offset="1" stop-color="#fff"/>
    </linearGradient>
    <linearGradient id="linear-gradient-8" x1="4.85" y1="30.09" x2="25.98" y2="80.5" xlink:href="#linear-gradient"/>
    <linearGradient id="linear-gradient-9" x1="6.8" y1="74.34" x2="-5.66" y2="55.07" xlink:href="#linear-gradient"/>
    <linearGradient id="linear-gradient-10" x1="351.42" y1="500.13" x2="359.39" y2="508.67" gradientTransform="matrix(0.91, 0.41, 0.41, -0.91, -353.51, 387.51)" xlink:href="#linear-gradient"/>
    <linearGradient id="linear-gradient-11" x1="275.1" y1="103.24" x2="283.08" y2="111.78" gradientTransform="matrix(1, 0.04, 0.04, -1, -111.2, 163.26)" xlink:href="#linear-gradient"/>
    <linearGradient id="linear-gradient-12" x1="-10.87" y1="-308.75" x2="-3.65" y2="-301.01" gradientTransform="matrix(0.91, -0.41, -0.41, -0.91, 49.67, -214.93)" xlink:href="#linear-gradient"/>
    <linearGradient id="linear-gradient-13" x1="-439.4" y1="-545.76" x2="-432.92" y2="-538.81" gradientTransform="matrix(0.64, -0.77, -0.77, -0.64, 27.49, -616.87)" xlink:href="#linear-gradient"/>
    <linearGradient id="linear-gradient-14" x1="326.28" y1="305.31" x2="354.88" y2="335.96" gradientTransform="matrix(0.97, 0.22, 0.22, -0.97, -218.89, 284.75)" xlink:href="#linear-gradient"/>
    <linearGradient id="linear-gradient-15" x1="136.71" y1="138.31" x2="173.87" y2="162.73" gradientTransform="matrix(1, 0, 0, -1, 18.67, 211.42)" gradientUnits="userSpaceOnUse">
      <stop offset="0.48" stop-color="#36078b"/>
      <stop offset="1" stop-color="#16b1ff"/>
    </linearGradient>
    <linearGradient id="linear-gradient-16" x1="-1813.41" y1="750.75" x2="-1791.64" y2="774.08" gradientTransform="matrix(-0.81, -0.59, 0.59, -0.81, -1737.49, -403.78)" xlink:href="#linear-gradient"/>
    <linearGradient id="linear-gradient-17" x1="151.71" y1="130.85" x2="145.1" y2="178.39" xlink:href="#linear-gradient-15"/>
    <linearGradient id="linear-gradient-18" x1="228.24" y1="250.8" x2="268.28" y2="293.7" gradientTransform="matrix(0.99, 0.15, 0.15, -0.99, -79.43, 263.47)" xlink:href="#linear-gradient"/>
    <linearGradient id="linear-gradient-19" x1="138.5" y1="137.25" x2="197.46" y2="181.47" xlink:href="#linear-gradient-15"/>
    <linearGradient id="linear-gradient-20" x1="273.62" y1="589.81" x2="302.51" y2="620.77" gradientTransform="matrix(0.89, 0.46, 0.46, -0.89, -329.88, 461.08)" xlink:href="#linear-gradient"/>
    <linearGradient id="linear-gradient-21" x1="142.39" y1="136.98" x2="192.32" y2="153.22" xlink:href="#linear-gradient-15"/>
    <linearGradient id="linear-gradient-22" x1="178.03" y1="166.24" x2="185.24" y2="171.65" gradientTransform="matrix(1, 0, 0, -1, 18.67, 211.42)" xlink:href="#linear-gradient"/>
    <linearGradient id="linear-gradient-23" x1="182.82" y1="172.94" x2="188.27" y2="178.34" gradientTransform="matrix(1, 0, 0, -1, 18.67, 211.42)" xlink:href="#linear-gradient"/>
    <linearGradient id="linear-gradient-24" x1="168.41" y1="175.47" x2="171.22" y2="181.64" gradientTransform="matrix(1, 0, 0, -1, 18.67, 211.42)" xlink:href="#linear-gradient"/>
    <linearGradient id="linear-gradient-25" x1="175.9" y1="180.87" x2="179.07" y2="185.1" gradientTransform="matrix(1, 0, 0, -1, 18.67, 211.42)" xlink:href="#linear-gradient"/>
    <linearGradient id="linear-gradient-26" x1="264.94" y1="518.43" x2="264.94" y2="506.25" gradientTransform="matrix(0.91, 0.41, 0.41, -0.91, -286.02, 433.98)" gradientUnits="userSpaceOnUse">
      <stop offset="0" stop-color="#2c27ce"/>
      <stop offset="1" stop-color="#ef1d68"/>
    </linearGradient>
    <linearGradient id="linear-gradient-27" x1="264.94" y1="515.32" x2="264.94" y2="520.63" xlink:href="#linear-gradient-26"/>
    <linearGradient id="linear-gradient-28" x1="64.66" y1="113.84" x2="210.59" y2="113.84" gradientTransform="matrix(1, 0, 0, -1, -7.88, 207.68)" gradientUnits="userSpaceOnUse">
      <stop offset="0" stop-color="#2c27ce"/>
      <stop offset="0.38" stop-color="#2c29cf"/>
      <stop offset="0.53" stop-color="#2b30d1"/>
      <stop offset="0.65" stop-color="#293dd6"/>
      <stop offset="0.75" stop-color="#264edc"/>
      <stop offset="0.83" stop-color="#2265e4"/>
      <stop offset="0.91" stop-color="#1e81ee"/>
      <stop offset="0.97" stop-color="#18a2fa"/>
      <stop offset="1" stop-color="#16b1ff"/>
    </linearGradient>
    <linearGradient id="linear-gradient-29" x1="59.67" y1="112.72" x2="199.74" y2="112.72" gradientTransform="matrix(1, 0, 0, -1, -7.88, 207.68)" gradientUnits="userSpaceOnUse">
      <stop offset="0.35" stop-color="#36078b"/>
      <stop offset="1" stop-color="#16b1ff"/>
    </linearGradient>
    <linearGradient id="linear-gradient-30" x1="75.74" y1="118.61" x2="80.47" y2="114" gradientTransform="matrix(1, 0, 0, -1, 18.67, 211.42)" gradientUnits="userSpaceOnUse">
      <stop offset="0" stop-color="#fea600"/>
      <stop offset="1" stop-color="#ef1829"/>
    </linearGradient>
    <linearGradient id="linear-gradient-31" x1="135.19" y1="146.28" x2="148.83" y2="128.88" gradientTransform="matrix(1, 0, 0, -1, -7.88, 207.68)" xlink:href="#linear-gradient-30"/>
    <linearGradient id="linear-gradient-32" x1="120.42" y1="128.86" x2="115.75" y2="115.53" xlink:href="#linear-gradient-30"/>
    <linearGradient id="linear-gradient-33" x1="94.52" y1="72.61" x2="-11.73" y2="51.11" gradientTransform="matrix(0.26, 0.96, 0.96, -0.26, 37.8, 26.55)" xlink:href="#linear-gradient-30"/>
    <linearGradient id="linear-gradient-34" x1="95.1" y1="68.75" x2="-11.15" y2="47.25" gradientTransform="matrix(0.26, 0.96, 0.96, -0.26, 41.1, 30.94)" xlink:href="#linear-gradient-30"/>
    <linearGradient id="linear-gradient-35" x1="148.4" y1="70.06" x2="130.86" y2="66.51" gradientTransform="matrix(0.26, 0.96, 0.96, -0.26, 55.68, 26.39)" xlink:href="#linear-gradient-30"/>
    <linearGradient id="linear-gradient-36" x1="90.65" y1="91.75" x2="-15.6" y2="70.24" gradientTransform="matrix(0.26, 0.96, 0.96, -0.26, -9.42, 69.47)" xlink:href="#linear-gradient-30"/>
    <linearGradient id="linear-gradient-37" x1="89.47" y1="97.61" x2="-16.79" y2="76.11" gradientTransform="matrix(0.26, 0.96, 0.96, -0.26, -22.28, 79.29)" xlink:href="#linear-gradient-30"/>
    <linearGradient id="linear-gradient-38" x1="202.36" y1="198.63" x2="215.57" y2="174.99" gradientTransform="matrix(0.99, 0.16, 0.16, -0.99, -62.92, 309.45)" xlink:href="#linear-gradient"/>
    <linearGradient id="linear-gradient-39" x1="209.52" y1="202.62" x2="222.73" y2="178.99" gradientTransform="matrix(0.99, 0.16, 0.16, -0.99, -62.92, 309.45)" xlink:href="#linear-gradient"/>
    <linearGradient id="linear-gradient-40" x1="200.32" y1="210.4" x2="200.32" y2="184.67" gradientTransform="matrix(0.99, 0.16, 0.16, -0.99, -62.92, 309.45)" xlink:href="#linear-gradient"/>
    <linearGradient id="linear-gradient-41" x1="206.56" y1="210.4" x2="206.56" y2="184.67" gradientTransform="matrix(0.99, 0.16, 0.16, -0.99, -62.92, 309.45)" xlink:href="#linear-gradient"/>
    <linearGradient id="linear-gradient-42" x1="202.47" y1="187.73" x2="212.2" y2="125.86" gradientTransform="matrix(0.99, 0.16, 0.16, -0.99, -62.92, 309.45)" gradientUnits="userSpaceOnUse">
      <stop offset="0" stop-color="blue"/>
      <stop offset="1" stop-color="#9e005d"/>
    </linearGradient>
    <linearGradient id="linear-gradient-43" x1="73.33" y1="-71" x2="82.68" y2="-130.47" gradientTransform="matrix(0.99, -0.17, -0.17, -0.99, 74.3, 101.76)" xlink:href="#linear-gradient-42"/>
    <linearGradient id="linear-gradient-44" x1="206.28" y1="188.33" x2="216.01" y2="126.46" xlink:href="#linear-gradient-42"/>
    <linearGradient id="linear-gradient-45" x1="165.84" y1="116.96" x2="175.58" y2="55.08" gradientTransform="matrix(1, 0.07, 0.07, -1, -21.93, 259.84)" xlink:href="#linear-gradient-42"/>
    <linearGradient id="linear-gradient-46" x1="196.41" y1="186.78" x2="206.15" y2="124.91" xlink:href="#linear-gradient-42"/>
    <linearGradient id="linear-gradient-47" x1="145.8" y1="927.56" x2="145.8" y2="901.83" gradientTransform="matrix(0.57, 0.82, 0.82, -0.57, -669.75, 546.04)" xlink:href="#linear-gradient"/>
    <linearGradient id="linear-gradient-48" x1="200.21" y1="221.67" x2="210.9" y2="209.15" xlink:href="#linear-gradient-42"/>
    <linearGradient id="linear-gradient-49" x1="201.14" y1="222.4" x2="211.79" y2="209.93" xlink:href="#linear-gradient-42"/>
    <clipPath id="clip-path" transform="translate(-7.88 -13.76)">
      <path class="cls-1" d="M178,140a8.27,8.27,0,0,0-1.54-.54c.06-.56.11-1.12.15-1.63a1.4,1.4,0,0,0,0-.41,3.25,3.25,0,0,0,1.31-1.55,5.36,5.36,0,0,0,.74-1.24,2.79,2.79,0,0,0,.68-.77c.47-.78.53-1.61.16-1.9.32-1.45.36-2.63-.25-3.38a1.7,1.7,0,0,0,0-.22c.12-1.42-2-2.4-2.25-3.06,0,0-.12,1,.27,1.24a18,18,0,0,1-3.57-1.91s.42,1,.93,1.24a22.89,22.89,0,0,1-3.76-1.38,10.93,10.93,0,0,0,1.61,1.92,11,11,0,0,1-3.82-.62A7.08,7.08,0,0,0,171,129l0,.08a16.58,16.58,0,0,0-.4,1.62.7.7,0,0,0-.65-.25c-.48.11-.7,1-.48,1.88a2.34,2.34,0,0,0,.79,1.35,10.32,10.32,0,0,0,.06,1.36c.12,1.09.7,2.72,1.94,3a2.29,2.29,0,0,0-.07.28c0,.13-.05.28-.08.43a12.11,12.11,0,0,0-3.4.12,4.8,4.8,0,0,0-3.11,1.45c-.15.26-.31.52-.45.77a5.89,5.89,0,0,0-.76,1.31c-1.47,2.59-2.61,4.75-3.41,6.08-2-.51-8.19-.31-10.09-.56l-.17-.12h0a3.76,3.76,0,0,0-.35-.34c-.29-.24-2-1.68-2.29-1.38s-.1.5.13.84c-2-.61-4.51-1.13-4.55-.26-.06,1.55,2.48,2.51,3.34,2.75a5.86,5.86,0,0,0,3.23.38c.64.65,1.51,1.15,3.71,1.84a36.61,36.61,0,0,0,7.82,1.76c-1.22,6-2.12,11.48-2.12,11.48a85.58,85.58,0,0,0-2,9.22h0c-1.13,5.6-3,15-3.52,17.17a10.86,10.86,0,0,0-.23,1.29,6,6,0,0,0-.17,1.2c-.15,5,.63,14.76-.6,24.34a.68.68,0,0,0,.14.44,1.06,1.06,0,0,0-.17.2,5.32,5.32,0,0,1-2.18,1.6c-1.17.5-3.64.73-2.26,1.17a8.46,8.46,0,0,0,3.78.05,18,18,0,0,1,2.55-.15c1.26,0,1.27-.08,1.1-1.45a2.44,2.44,0,0,0-.24-.75c.75-7.12,4.53-19.07,3.5-25.29,1.87-4.17,5-13.06,6.31-17,0,4.22,1.16,15,1.83,19.66a1.92,1.92,0,0,0,.09.32,6,6,0,0,0,.32.9c1.88,4.35,6.59,15.09,8.07,20.14-.12.54-.08.8-.15,1.2-.09.56-.62.77-.94,1.23s-.87,1.24,1.22,1.28c2.25.05,3.57,0,3.19-1.25a12.07,12.07,0,0,1-.4-1.6l.16-.1c.19-.18,0-.69,0-1.11-.42-3.24-2.95-18.15-6-22.88,0-.15,0-.27,0-.43.06-3,1.45-19.24,1.54-21.51a25,25,0,0,0,.32-5.47,42.84,42.84,0,0,1,1.47-8,21,21,0,0,0,2.87-1.05,1,1,0,0,0,.52-.54l0,0c.43-.89,1.1-3,1.33-8.39.05-1.3.06-2.3,0-3.1A5.24,5.24,0,0,0,178,140Z"/>
    </clipPath>
    <linearGradient id="linear-gradient-50" x1="-488.02" y1="1980.91" x2="-416.14" y2="1936.75" gradientTransform="matrix(0.4, -0.87, 0.54, 0.47, -681.16, -1155.24)" xlink:href="#linear-gradient-42"/>
    <linearGradient id="linear-gradient-51" x1="-322.89" y1="1247.03" x2="-322.89" y2="1223.33" gradientTransform="matrix(-0.06, 1.07, 1.01, 0.12, -1205.39, 317.81)" gradientUnits="userSpaceOnUse">
      <stop offset="0" stop-color="#36078b"/>
      <stop offset="1" stop-color="#168d68"/>
    </linearGradient>
    <linearGradient id="linear-gradient-52" x1="-262.17" y1="1264.37" x2="-262.17" y2="1231.81" gradientTransform="matrix(-0.09, 1, 1, 0.09, -1216.8, 287.95)" xlink:href="#linear-gradient-51"/>
    <linearGradient id="linear-gradient-53" x1="-1611.45" y1="68.21" x2="-1611.45" y2="20.37" gradientTransform="translate(-1543.39 211.42) rotate(180)" xlink:href="#linear-gradient-51"/>
    <linearGradient id="linear-gradient-54" x1="-1612.66" y1="-30.3" x2="-1612.66" y2="37.71" gradientTransform="translate(-1543.39 211.42) rotate(180)" xlink:href="#linear-gradient"/>
    <linearGradient id="linear-gradient-55" x1="-1604.45" y1="-30.3" x2="-1604.45" y2="37.71" gradientTransform="translate(-1543.39 211.42) rotate(180)" xlink:href="#linear-gradient"/>
    <linearGradient id="linear-gradient-56" x1="-1607.77" y1="-30.3" x2="-1607.77" y2="37.71" gradientTransform="translate(-1543.39 211.42) rotate(180)" xlink:href="#linear-gradient"/>
    <linearGradient id="linear-gradient-57" x1="-1800.41" y1="30.1" x2="-1800.41" y2="98.12" gradientTransform="matrix(-0.92, -0.38, 0.38, -0.92, -1601.98, -447.18)" xlink:href="#linear-gradient"/>
    <linearGradient id="linear-gradient-58" x1="-1148.66" y1="372.38" x2="-1148.66" y2="427.28" gradientTransform="matrix(-0.04, 1, -1, -0.04, 462.64, 1331.59)" xlink:href="#linear-gradient"/>
    <linearGradient id="linear-gradient-59" x1="-1575.57" y1="112.9" x2="-1569.9" y2="116.82" gradientTransform="translate(-1543.39 211.42) rotate(180)" gradientUnits="userSpaceOnUse">
      <stop offset="0" stop-color="#2c27ce"/>
      <stop offset="0.65" stop-color="#ef1d68"/>
      <stop offset="1" stop-color="#efba92"/>
    </linearGradient>
    <linearGradient id="linear-gradient-60" x1="68.91" y1="78.83" x2="76.59" y2="62.83" gradientTransform="matrix(1, 0, 0, -1, 18.67, 211.42)" xlink:href="#linear-gradient-51"/>
    <linearGradient id="linear-gradient-61" x1="58.21" y1="75.51" x2="69.23" y2="53.15" gradientTransform="matrix(1, 0, 0, -1, 18.67, 211.42)" xlink:href="#linear-gradient-51"/>
    <linearGradient id="linear-gradient-62" x1="48.72" y1="85.17" x2="43.47" y2="72.42" gradientTransform="matrix(1, 0, 0, -1, 18.67, 211.42)" xlink:href="#linear-gradient-59"/>
    <clipPath id="clip-path-2" transform="translate(-7.88 -13.76)">
      <path class="cls-1" d="M97.32,133.82c.45-.56.76-1.12.44-1.4s-2,1.32-2.24,1.59a2.44,2.44,0,0,0-.39.46.7.7,0,0,0-.39.49c-2.53.34-7.84,1.2-9.44,1.89a2.12,2.12,0,0,0-.57.36c-1.43.12-7.41-.61-12.84-1h0a12.91,12.91,0,0,0-3-.5c0-.15,0-.31,0-.45a2.83,2.83,0,0,0,0-.29c1.29-.07,2.15-1.63,2.44-2.71a12.49,12.49,0,0,0,.28-1.38,2.34,2.34,0,0,0,1-1.24c.37-.9.29-1.8-.19-2a.73.73,0,0,0-.69.16c0-.54-.07-1.1-.15-1.71,0-.1,0-.2-.07-.3l0-.38c1.2-.46,1.4-2.36.4-3.31a4.61,4.61,0,0,0,.15-1.73,3.7,3.7,0,0,0,1.31-2.25c.16-.9.28-3.58-1-4.55s-2.86,5.53-3,6.35a.74.74,0,0,0,.2.72c-.21.48-.46,1.07-.72,1.72-1.34.19-5.07.48-5,1.6-1.21.53-1.44,1.89-1.33,3.71-.43.24-.5,1.09-.14,2a2.85,2.85,0,0,0,.56.89,6.34,6.34,0,0,0,.56,1.38A3.11,3.11,0,0,0,64,133c-1,1.2-2.29,2.68-3.7,4.39a5,5,0,0,0-.85,1l-.24.3a2.88,2.88,0,0,0-.43,1.52,10.67,10.67,0,0,0,.48,5,54.35,54.35,0,0,1,2.37,18.92,25.64,25.64,0,0,0-.55,5.6c-.26,2.31-1.44,19-1.86,22.06,0,.12,0,.22,0,.33s0,0,0,0c-2.35,5.27-2.16,22.1-2,25.45a3.33,3.33,0,0,0,.07,1,6.46,6.46,0,0,1-.44,2.17c-.39,1.25,1,1.33,3.28,1.28,2.15,0,1.6-.8,1.25-1.32s-.87-.68-1-1.26c-.07-.41,0-.67-.15-1.2h0c.4-4.9,3.4-18.8,4.63-23.79a6.26,6.26,0,0,0,.17-1.31c1.65-5.62,4.28-15.57,4.55-18.68,0-.23,0-.46,0-.69h7.86c.43,0,.86-.05,1.3-.1,2.27-.32,4.92-.58,7.52-.92-2.3,6.16-3.94,14.66-5.9,19.78a.33.33,0,0,0,.16.41,2,2,0,0,0-.28.9c-.11,1.42-.1,1.63,1.2,1.57a19.14,19.14,0,0,1,2.62-.11,8.77,8.77,0,0,0,3.88-.24c1.38-.52-1.16-.64-2.38-1.09a6,6,0,0,1-2.16-1.34s0,0,0,0c3.15-8.94,8-17.18,10.37-21.95a4.5,4.5,0,0,0,.82-2.72,2.43,2.43,0,0,0-.64-1.74l0,0-.18-.16c-.74-.72-2-1.19-4-1.1-2.19.09-8.2.09-12.26.1v-.87s-.09-13.73-1-22h1.53c5.53,0,7.74-.61,8.66-1l0,0a42,42,0,0,0,6-2.5c2.37-1.15,3.11-1.18,3.68-1.7a3.81,3.81,0,0,0,2.6,0c.85-.34,3.21-1.62,3.38-3.2C102.35,132.74,99.44,133.28,97.32,133.82Z"/>
    </clipPath>
    <linearGradient id="linear-gradient-63" x1="-1805.27" y1="-466.38" x2="-1733.4" y2="-510.54" gradientTransform="matrix(-0.4, -0.87, -0.54, 0.47, -923.52, -1155.24)" xlink:href="#linear-gradient-42"/>
    <linearGradient id="linear-gradient-64" x1="11.4" y1="92.77" x2="6.33" y2="69.45" gradientTransform="matrix(1, 0, 0, -1, 18.67, 211.42)" xlink:href="#linear-gradient-26"/>
    <linearGradient id="linear-gradient-65" x1="15.27" y1="69.15" x2="28.02" y2="67.9" gradientTransform="matrix(1, 0, 0, -1, 18.67, 211.42)" xlink:href="#linear-gradient"/>
    <linearGradient id="linear-gradient-66" x1="3.07" y1="2.83" x2="3.38" y2="12.14" gradientTransform="matrix(1, 0, 0, -1, 18.67, 211.42)" xlink:href="#linear-gradient-59"/>
    <linearGradient id="linear-gradient-67" x1="7.44" y1="71.76" x2="12.32" y2="50.01" gradientTransform="matrix(1, 0, 0, -1, 18.67, 211.42)" xlink:href="#linear-gradient"/>
    <linearGradient id="linear-gradient-68" x1="11.25" y1="33.1" x2="11.92" y2="-26.57" gradientTransform="matrix(1, 0, 0, -1, 18.67, 211.42)" gradientUnits="userSpaceOnUse">
      <stop offset="0" stop-color="#f70f47"/>
      <stop offset="1" stop-color="#9e005d"/>
    </linearGradient>
    <linearGradient id="linear-gradient-69" x1="4.28" y1="33.02" x2="4.95" y2="-26.65" xlink:href="#linear-gradient-68"/>
    <linearGradient id="linear-gradient-70" x1="7.08" y1="33.05" x2="7.75" y2="-26.62" xlink:href="#linear-gradient-68"/>
    <linearGradient id="linear-gradient-71" x1="15.92" y1="33.15" x2="16.59" y2="-26.52" xlink:href="#linear-gradient-68"/>
    <linearGradient id="linear-gradient-72" x1="14.66" y1="33.13" x2="15.33" y2="-26.53" xlink:href="#linear-gradient-68"/>
    <linearGradient id="linear-gradient-73" x1="3.66" y1="69.42" x2="1.16" y2="53.79" gradientTransform="matrix(1, 0, 0, -1, 18.67, 211.42)" xlink:href="#linear-gradient"/>
    <linearGradient id="linear-gradient-74" x1="18.43" y1="2.31" x2="18.74" y2="11.63" gradientTransform="matrix(1, 0, 0, -1, 18.67, 211.42)" xlink:href="#linear-gradient-59"/>
    <linearGradient id="linear-gradient-75" x1="-69.11" y1="-28.16" x2="-74.17" y2="-51.47" gradientTransform="matrix(0.99, -0.16, -0.16, -0.99, 90.88, 79.58)" xlink:href="#linear-gradient-26"/>
    <linearGradient id="linear-gradient-76" x1="-66.13" y1="-28.8" x2="-71.2" y2="-52.11" gradientTransform="matrix(0.99, -0.16, -0.16, -0.99, 90.88, 79.58)" xlink:href="#linear-gradient-26"/>
    <clipPath id="clip-path-3" transform="translate(-7.88 -13.76)">
      <path class="cls-1" d="M52.43,138.74a4.31,4.31,0,0,0-1.82.89,6.17,6.17,0,0,0-1.67,1.09.42.42,0,0,0-.27,0c-.82.37-6.58,1.53-8.92,2.26l-.07,0c-1.13-.32-4.22-1.81-8.38-3.66a17.4,17.4,0,0,0-.19-2.6,3.88,3.88,0,0,0,.73-1.85,17.09,17.09,0,0,0-.42-5.09c.35.57.1-1.61-.61-2.51A4.4,4.4,0,0,0,28.56,126a3.45,3.45,0,0,0-1.62-.21,4.11,4.11,0,0,0-2.91.92,7.14,7.14,0,0,0-2.78,6.87,16.5,16.5,0,0,1-.53,7.29,15.18,15.18,0,0,0-.54,2.11c-.25.37-.5.77-.8,1.24-2.57,4.11-3.28,6.08-3.5,7a1,1,0,0,0,.41,1l.09.14a20.62,20.62,0,0,0,4.67,4.79,14.31,14.31,0,0,1,2.05,2.14,1.08,1.08,0,0,0,.29.7c.21.2.61.17,1.06.05,0,.11-.05.22-.07.33-.08.34-.74,3.06-.77,3.35a21.83,21.83,0,0,0-.44,4.56c-.2,1.89-1.13,15.47-1.46,18,0,.1,0,.18,0,.27l0,0c-1.84,4.29-1.7,18-1.6,20.74a.26.26,0,0,0,.1.24,1.64,1.64,0,0,0,0,.54,5.59,5.59,0,0,1-.35,1.8c-.31,1,.76,1.15,2.57,1.11s1.26-.72,1-1.14-.68-.56-.75-1a9.49,9.49,0,0,0-.12-1v0c.39-3.73,2.67-15.32,3.63-19.38a5.5,5.5,0,0,0,.14-1.07c1.2-4.22,3-11.43,3.48-14.52.59,3.47,2,11.32,2.93,15-1.28,5.12,1.13,15.56,1.28,21.58l0,0s0,.08,0,.13c-.13,1.14-.13,1.21.89,1.21a12.76,12.76,0,0,1,2,.13,6.69,6.69,0,0,0,3,0c1.11-.37-.88-.57-1.82-1a4.27,4.27,0,0,1-1.76-1.33.9.9,0,0,0-.15-.19c-.08-8,.8-16,1-20.13a5.88,5.88,0,0,0,0-.73,9.77,9.77,0,0,0,0-1.21c-.14-1.87-.45-9.87-.65-14.64a73.88,73.88,0,0,0-.45-7.88c-.12-2.43-2.89-10.07-1-15,.78-2.06.46-2.91-.16-3.9a21.5,21.5,0,0,0,4.4,1,1.43,1.43,0,0,0,.74,0,20.65,20.65,0,0,0,6.26-2.37c2-1,2.78-.77,3.13-1.32a1.6,1.6,0,0,0,1.34-.27c.87-.79.87-.67.61-1.81a.8.8,0,0,0-.11-.25.62.62,0,0,0,.17-.11C51.8,139.31,53,138.69,52.43,138.74ZM19,151.18c.55-.85,1.52-2.17,2.76-3.85a5.11,5.11,0,0,0,2,.56,42.19,42.19,0,0,1,1.13,5.22,15.42,15.42,0,0,1,0,4.5c-.24.06-.49.13-.78.19h0C23,156.47,20.46,152.89,19,151.18Z"/>
    </clipPath>
    <linearGradient id="linear-gradient-77" x1="-1789.75" y1="-430.75" x2="-1714.03" y2="-477.27" gradientTransform="matrix(-0.4, -0.87, -0.54, 0.47, -923.52, -1155.24)" xlink:href="#linear-gradient-42"/>
    <linearGradient id="linear-gradient-78" x1="67.92" y1="33.14" x2="67.92" y2="-1.86" gradientTransform="matrix(1, 0, 0, -1, 18.67, 211.42)" xlink:href="#linear-gradient-3"/>
  </defs>
  <title>test</title>
  <ellipse id="backCircle" class="cls-2 backCircle_animate" cx="50%" cy="50%" rx="100.16" ry="90.48" />

  <g>
    <path class="cls-3" d="M90.91,40.24c3.18-1.48,4.82.75,4.74,2.64-.1,2.68-1.48,3.16,2.3,5,2.8,1.33,3.87,4.7,1.19,6.82-3.74,3,.84,4.26,2,6.21,2.52,4-.54,5.5-5.43,8.31s-9.13,2.35-13.28-.53c-3.07-2.14-5.07-4.74-3.77-7.5,1.88-4,6.08-2,4.1-5.36-1.18-2-1.79-6,3-7S86.32,42.36,90.91,40.24Z" transform="translate(-7.88 -13.76)"/>
    <path class="cls-4" d="M70.3,36C66,35.69,65.08,39,66,41.1c1.28,3,3.08,3-.5,6.69-2.63,2.74-2.4,7.07,1.59,8.35,5.58,1.78.88,5.25.33,8-1.16,5.71,3,6.08,9.83,7.2,7,1.15,11.51-1.25,15-6.36,2.6-3.78,3.78-7.63,1.08-10.24-3.87-3.75-7.84.33-7-4.38.49-2.82-.52-7.63-6.46-6.69S76.48,36.47,70.3,36Z" transform="translate(-7.88 -13.76)"/>
    <path class="cls-5" d="M81.41,64.12c-3.5,6.89-4.32,11.38,1.21,11.2S93.35,60.14,88.94,58C85.82,56.44,83.07,60.84,81.41,64.12Z" transform="translate(-7.88 -13.76)"/>
    <path class="cls-6" d="M82.28,90.73l12.4-1.64A3.17,3.17,0,0,0,97.44,86L98,69a.64.64,0,0,0-.62-.65h-.1l-22.85,3a.64.64,0,0,0-.54.71.3.3,0,0,0,0,.1l4.93,16.33A3.19,3.19,0,0,0,82.28,90.73Z" transform="translate(-7.88 -13.76)"/>
    <path class="cls-7" d="M73,53.78c4,.66,7.44,1.85,5.1,3.31s-11.51-1-10.5-2.7C68.3,53.18,71.08,53.46,73,53.78Z" transform="translate(-7.88 -13.76)"/>
    <path class="cls-8" d="M71.11,41.48c1.21,2.31,2.28,3.43,3.32,1.86s-2.06-5.94-3.53-5.15C69.87,38.75,70.54,40.37,71.11,41.48Z" transform="translate(-7.88 -13.76)"/>
    <path class="cls-9" d="M92.09,43.58c-.63,2.54-.56,4.08,1.25,3.6s2.4-5.82.77-6.2C93,40.71,92.4,42.37,92.09,43.58Z" transform="translate(-7.88 -13.76)"/>
    <path class="cls-10" d="M98.1,54.46c1.48-1.72,2-2.94.44-3.28s-4.13,3.57-3,4.5C96.29,56.33,97.39,55.28,98.1,54.46Z" transform="translate(-7.88 -13.76)"/>
    <path class="cls-11" d="M78.74,52.29c-1.59-.31-2.54-.22-2.19.88s3.68,1.3,3.86.29C80.55,52.74,79.5,52.44,78.74,52.29Z" transform="translate(-7.88 -13.76)"/>
  </g>
  <g>
    <path class="cls-12" d="M170.34,72.58c-1.45-2.23,3-5,7.9-3.25a10.46,10.46,0,0,1-1.75,4C175.37,74.71,172.38,75.7,170.34,72.58Z" transform="translate(-7.88 -13.76)"/>
    <path class="cls-13" d="M167.46,71.66c-2.17-1.54.92-5.76,6.16-5.92a10.59,10.59,0,0,1-.18,4.34C172.92,71.8,170.49,73.81,167.46,71.66Z" transform="translate(-7.88 -13.76)"/>
    <path class="cls-14" d="M165.65,71.22c-2.38-.36-1.59-5,2.58-7.28a9.24,9.24,0,0,1,1.62,3.58C170.12,69.12,169,71.73,165.65,71.22Z" transform="translate(-7.88 -13.76)"/>
    <path class="cls-15" d="M165,70.27c-2.07.64-3.27-3.44-.79-6.9a8.48,8.48,0,0,1,2.72,2.26C167.76,66.82,167.87,69.38,165,70.27Z" transform="translate(-7.88 -13.76)"/>
    <path class="cls-16" d="M165.17,58.53c-6.65-6.84,7-19.72,25.56-16.88,0,0,.05,8.49-3.43,15.2C184.33,62.58,174.48,68.11,165.17,58.53Z" transform="translate(-7.88 -13.76)"/>
    <path class="cls-17" d="M188.18,42.9a16.14,16.14,0,0,0-5.57,2.27,14,14,0,0,0-1.26.8,14.71,14.71,0,0,0-1.21.86l-1.15,1-.57.48-.52.53A40.58,40.58,0,0,0,174,53.25l-1.76,2.42-1.55,2.57c-.26.43-.55.84-.78,1.29l-.69,1.34-1.4,2.67-2.47,5.56c-.72,1.9-1.53,3.78-2.2,5.71s-1.35,3.87-2.14,5.8l-.14,0,1.53-6c.55-2,1.26-3.92,1.88-5.88s1.52-3.82,2.28-5.74l1.38-2.77.69-1.38c.23-.46.53-.88.79-1.33L171,54.86l1.86-2.47a33.41,33.41,0,0,1,4.27-4.47l.57-.52.63-.46,1.24-.92c.41-.31.88-.54,1.32-.81a11.93,11.93,0,0,1,1.36-.74,15,15,0,0,1,5.92-1.71Z" transform="translate(-7.88 -13.76)"/>
    <path class="cls-18" d="M173.79,53.09c7.25.38,7.79-13.89-3.16-23.11,0,0-4.88,4.24-7,9.6C161.86,44.15,163.64,52.56,173.79,53.09Z" transform="translate(-7.88 -13.76)"/>
    <path class="cls-19" d="M171.29,32a40.72,40.72,0,0,1,1.16,6.29c.1,1.07.18,2.13.21,3.2s.08,2.14.08,3.21a79.12,79.12,0,0,1-1.24,12.76c-.22,1.05-.47,2.09-.71,3.13l-.37,1.56L170,63.71l-.88,3.08c-.34,1-.7,2-1.08,3l-.55,1.5-.63,1.48-1.26,2.93c-.43,1-1,1.9-1.46,2.84s-1,1.88-1.52,2.8l-.1,0c.84-1.94,1.74-3.85,2.53-5.81l1.12-3,.56-1.49.48-1.51,1-3,.82-3.06.41-1.53.34-1.55c.22-1,.45-2.06.66-3.1a90.06,90.06,0,0,0,1.46-12.59,60,60,0,0,0-.68-12.63Z" transform="translate(-7.88 -13.76)"/>
    <path class="cls-20" d="M180.36,47.6c-10-8.84,7.65-28.27,33.88-26.29,0,0,1,11.84-3.17,21.58C207.54,51.2,194.38,60,180.36,47.6Z" transform="translate(-7.88 -13.76)"/>
    <path class="cls-21" d="M210.85,23.3A71.35,71.35,0,0,0,203,28.75c-1.25,1-2.53,1.93-3.72,3l-1.81,1.55-1.73,1.63L194,36.54l-1.67,1.69-1.68,1.69c-.56.56-1.06,1.17-1.59,1.76-1,1.2-2.18,2.3-3.15,3.55l-3,3.68c-1,1.25-1.89,2.54-2.83,3.81-.47.64-1,1.26-1.4,1.92l-1.3,2c-.87,1.32-1.78,2.62-2.62,4s-1.6,2.74-2.44,4.1l-1.23,2L170,68.86l-2.22,4.25c-1.5,2.83-2.7,5.8-4.21,8.66l-.16,0,1.73-4.5L166,75c.29-.75.57-1.5.93-2.22l2-4.38,1-2.19,1.16-2.12,2.31-4.23c.81-1.39,1.7-2.73,2.55-4.09l1.29-2c.45-.67.94-1.31,1.4-2,1-1.3,1.88-2.61,2.85-3.9a103.18,103.18,0,0,1,13.3-14,72.37,72.37,0,0,1,16-10.73Z" transform="translate(-7.88 -13.76)"/>
    <path class="cls-22" d="M182.17,61.18c-4.77-8.37,11.82-17.52,29.27-10,0,0-2.1,8.31-7.2,14C199.89,70,188.86,72.9,182.17,61.18Z" transform="translate(-7.88 -13.76)"/>
    <path class="cls-23" d="M208.65,51.7A38.6,38.6,0,0,0,202,53.44l-1.63.54-1.6.63c-1.07.4-2.1.9-3.13,1.39a69.58,69.58,0,0,0-11.75,7l-2.75,2c-.94.66-1.76,1.46-2.64,2.18s-1.78,1.45-2.58,2.27-1.65,1.59-2.5,2.37-1.63,1.61-2.43,2.44l-2.38,2.51c-1.57,1.7-3,3.49-4.63,5.19l-.1-.07c1.41-1.85,2.78-3.72,4.22-5.54l2.27-2.64c.77-.87,1.5-1.78,2.34-2.58,1.64-1.64,3.24-3.34,5-4.82.88-.75,1.71-1.58,2.65-2.26l2.76-2.13a65.34,65.34,0,0,1,12.1-6.86,43.13,43.13,0,0,1,13.43-3.51Z" transform="translate(-7.88 -13.76)"/>
    <path class="cls-24" d="M194,40.77a11.7,11.7,0,0,1,3.39-.23,19.34,19.34,0,0,1,3.3.5,17.83,17.83,0,0,1,3.16,1.15,9.76,9.76,0,0,1,2.8,2l0,.1a33.16,33.16,0,0,0-6.2-2.06,61.37,61.37,0,0,0-6.42-1.31Z" transform="translate(-7.88 -13.76)"/>
    <path class="cls-25" d="M198.77,35.09a8.62,8.62,0,0,1,2.78-.7,13.69,13.69,0,0,1,2.79,0,13,13,0,0,1,2.74.63,7.52,7.52,0,0,1,2.52,1.43l0,.11a27.11,27.11,0,0,0-5.35-1,52.13,52.13,0,0,0-5.44-.37Z" transform="translate(-7.88 -13.76)"/>
    <path class="cls-26" d="M188.29,36.5a14.54,14.54,0,0,1,0-3.55c.06-.52.11-1,.13-1.54a8.33,8.33,0,0,0-.09-1.73l.08-.07a4.41,4.41,0,0,1,1,3.44,12.18,12.18,0,0,1-1,3.5Z" transform="translate(-7.88 -13.76)"/>
    <path class="cls-27" d="M195.34,31.13a10.74,10.74,0,0,1,.65-2.67c.16-.38.28-.76.4-1.14a4.76,4.76,0,0,0,.26-1.3l.07,0a3.34,3.34,0,0,1,0,2.75,10.29,10.29,0,0,1-1.36,2.45Z" transform="translate(-7.88 -13.76)"/>
    <g>
      <path class="cls-28" d="M168.7,85.91l-10-4.53a1.09,1.09,0,0,1-.58-1.31L162,67.86a1.07,1.07,0,0,1,1.35-.7l.12,0L176.22,73a1.09,1.09,0,0,1,.54,1.43l-.06.11-6.63,11A1.08,1.08,0,0,1,168.7,85.91Z" transform="translate(-7.88 -13.76)"/>
      <path class="cls-29" d="M176.47,75.87l-15.33-7a.69.69,0,0,1-.39-.83l.59-2.11a.7.7,0,0,1,.87-.49l.1,0,15.94,7.23a.7.7,0,0,1,.35.94.47.47,0,0,1,0,.1l-1.19,1.83A.72.72,0,0,1,176.47,75.87Z" transform="translate(-7.88 -13.76)"/>
    </g>
  </g>
  <g>
    <polygon class="cls-30" points="202.72 38.63 202.72 149.06 56.78 147.76 56.78 48.44 202.72 38.63"/>
    <polygon class="cls-31" points="191.86 44.95 191.86 144.99 51.8 144.99 51.8 53.83 191.86 44.95"/>
    <polygon class="cls-32" points="88.32 111.02 118.13 110.33 118.13 69.37 88.32 70.87 88.32 111.02"/>
    <g>
      <polygon class="cls-33" points="92.58 96.32 57.83 97.47 57.83 60.39 92.58 58.35 92.58 96.32"/>
      <path class="cls-34" d="M93.85,91.5c0,6.54-4.94,12-11,12.26S72.07,98.94,72.07,92.49s4.82-11.93,10.81-12.25S93.85,85,93.85,91.5Z" transform="translate(-7.88 -13.76)"/>
      <path class="cls-35" d="M91.17,91.62A9.59,9.59,0,0,1,87.78,99a8.68,8.68,0,0,1-2,1.25,7.92,7.92,0,0,1-1,.37,6.23,6.23,0,0,1-.62.15,7.86,7.86,0,0,1-1.28.16,7.75,7.75,0,0,1-2.44-.3,8.38,8.38,0,0,1-5.76-8.24,9.7,9.7,0,0,1,.81-3.9,9.27,9.27,0,0,1,2.84-3.66,10,10,0,0,1,.89-.61,8.08,8.08,0,0,1,2.15-.89,7.73,7.73,0,0,1,9.25,5.09A9.06,9.06,0,0,1,91.17,91.62Z" transform="translate(-7.88 -13.76)"/>
      <path class="cls-36" d="M82.88,93a1,1,0,0,1-1-1V86.29a1,1,0,0,1,2,0V92A1,1,0,0,1,82.88,93Z" transform="translate(-7.88 -13.76)"/>
      <path class="cls-36" d="M82.88,93a1,1,0,0,1-.6-1.83l2.75-2a1,1,0,1,1,1.2,1.63h0l-2.75,2A1,1,0,0,1,82.88,93Z" transform="translate(-7.88 -13.76)"/>
    </g>
    <polygon class="cls-37" points="187.56 138.59 48.57 139.16 48.57 49.12 187.56 39.83 187.56 138.59"/>
    <g>
      <g>
        <path class="cls-38" d="M112.34,107.6a9.26,9.26,0,0,1-10.6-1.95,10.11,10.11,0,0,1-2.63-5l4.75-1.3a4.73,4.73,0,0,0,5.44,3.88,4.8,4.8,0,0,0,1.22-.38Z" transform="translate(-7.88 -13.76)"/>
        <path class="cls-39" d="M115.69,105.15l-.24.25-3.38-3.69a5.66,5.66,0,0,0,1.58-3.91,4.86,4.86,0,0,0-4.67-5h-.3a5.2,5.2,0,0,0-4.43,3.11l-4.36-2.1a10.9,10.9,0,0,1,1.85-2.85,9.49,9.49,0,0,1,13.37-1.16c.2.16.39.34.58.52A10.92,10.92,0,0,1,115.69,105.15Z" transform="translate(-7.88 -13.76)"/>
        <path class="cls-40" d="M103.74,98.2a5.17,5.17,0,0,0,.12,1.11l-4.75,1.3a11.13,11.13,0,0,1,.78-6.85l4.36,2.11A5.65,5.65,0,0,0,103.74,98.2Z" transform="translate(-7.88 -13.76)"/>
        <path class="cls-41" d="M115.45,105.4a10.17,10.17,0,0,1-3.11,2.2l-1.82-4.79a5.15,5.15,0,0,0,1.55-1.1Z" transform="translate(-7.88 -13.76)"/>
      </g>
      <polygon class="cls-42" points="109.85 96.46 109.85 95.44 107.91 95.5 107.91 96.52 109.85 96.46"/>
      <polygon class="cls-42" points="113.31 96.35 113.31 95.32 111.35 95.39 111.35 96.41 113.31 96.35"/>
      <polygon class="cls-42" points="116.77 96.24 116.77 95.21 114.81 95.27 114.81 96.3 116.77 96.24"/>
      <g>
        <path class="cls-39" d="M123.3,91a1.76,1.76,0,0,0-1.9.5,2,2,0,0,0-.48.94l.86.16a1,1,0,0,1,.87-.77.7.7,0,0,1,.32,0Z" transform="translate(-7.88 -13.76)"/>
        <path class="cls-43" d="M123.89,91.35l0,0-.6.7a.93.93,0,0,1,.28.67,1,1,0,0,1-.88,1,.84.84,0,0,1-.8-.49l-.79.45a1.69,1.69,0,0,0,2.26.8,1.72,1.72,0,0,0,.57-.43A1.93,1.93,0,0,0,123.89,91.35Z" transform="translate(-7.88 -13.76)"/>
        <path class="cls-43" d="M121.76,92.76a.65.65,0,0,1,0-.2l-.86-.16a1.87,1.87,0,0,0,.14,1.21l.79-.44A1,1,0,0,1,121.76,92.76Z" transform="translate(-7.88 -13.76)"/>
        <path class="cls-40" d="M123.85,91.31a1.77,1.77,0,0,0-.55-.35l-.33.88a1,1,0,0,1,.28.17Z" transform="translate(-7.88 -13.76)"/>
      </g>
      <g>
        <path class="cls-40" d="M121,104.75a1.69,1.69,0,0,0,1.62,1.07,1.73,1.73,0,0,0,1-.33l-.48-.76a.85.85,0,0,1-1.1-.08.88.88,0,0,1-.18-.29Z" transform="translate(-7.88 -13.76)"/>
        <path class="cls-41" d="M120.88,104v.06l.88-.06a1,1,0,0,1,.26-.7.85.85,0,0,1,1.2-.09l0,0a1,1,0,0,1,.21,1l.84.27a2,2,0,0,0,.09-.6,1.73,1.73,0,0,0-1.68-1.79h-.09A1.89,1.89,0,0,0,120.88,104Z" transform="translate(-7.88 -13.76)"/>
        <path class="cls-39" d="M123.27,104.6a.64.64,0,0,1-.15.13l.48.76a1.94,1.94,0,0,0,.72-1l-.84-.27A.91.91,0,0,1,123.27,104.6Z" transform="translate(-7.88 -13.76)"/>
        <path class="cls-43" d="M120.88,104.09a1.86,1.86,0,0,0,.14.66l.81-.39a1,1,0,0,1-.07-.33Z" transform="translate(-7.88 -13.76)"/>
      </g>
      <g>
        <path class="cls-41" d="M123.34,100a1.93,1.93,0,0,0,1.07-1.75,1.81,1.81,0,0,0-.28-1l-.74.53a1,1,0,0,1-.12,1.16.83.83,0,0,1-.28.21Z" transform="translate(-7.88 -13.76)"/>
        <path class="cls-40" d="M122.64,100.2h.06l0-.93A.83.83,0,0,1,122,99a1,1,0,0,1,0-1.32.86.86,0,0,1,.91-.26l.28-.89a1.57,1.57,0,0,0-.57-.07,1.9,1.9,0,0,0-1.76,1.93,1.73,1.73,0,0,0,1.67,1.78Z" transform="translate(-7.88 -13.76)"/>
        <path class="cls-43" d="M123.27,97.66a.44.44,0,0,1,.12.15l.74-.53a1.69,1.69,0,0,0-.92-.72l-.28.89A.81.81,0,0,1,123.27,97.66Z" transform="translate(-7.88 -13.76)"/>
        <path class="cls-39" d="M122.7,100.19a1.6,1.6,0,0,0,.64-.17l-.35-.84a.9.9,0,0,1-.32.09Z" transform="translate(-7.88 -13.76)"/>
      </g>
    </g>
    <g>
      <polygon class="cls-44" points="191.86 44.95 51.8 53.83 51.8 40.68 191.86 30.52 191.86 44.95"/>
      <polygon class="cls-45" points="189.02 42.11 54.16 50.92 54.16 46.57 189.02 37.35 189.02 42.11"/>
      <polygon class="cls-46" points="56.22 44.96 54.16 45.11 54.16 42.85 56.22 42.7 56.22 44.96"/>
      <polygon class="cls-46" points="59.91 44.71 57.83 44.85 57.83 42.59 59.91 42.44 59.91 44.71"/>
      <polygon class="cls-46" points="63.61 44.45 61.53 44.6 61.53 42.33 63.61 42.18 63.61 44.45"/>
    </g>
    <g>
      <polygon class="cls-37" points="113.89 130.75 182.47 130.1 182.47 50.74 113.89 54.86 113.89 130.75"/>
      <path class="cls-47" d="M130.89,85.73a1.81,1.81,0,0,1-1.24-.5,2,2,0,0,1-.58-1.39V73.45a2,2,0,0,1,1.86-2l61.18-3.52a1.9,1.9,0,0,1,2,1.78.66.66,0,0,1,0,.14V80.65a2.1,2.1,0,0,1-2,2.09l-61.18,3Zm61.33-16.92h-.06L131,72.33a1.1,1.1,0,0,0-1,1.12V83.84a1,1,0,0,0,.3.73.91.91,0,0,0,.65.24l61.17-3a1.19,1.19,0,0,0,1.12-1.18V69.82a1,1,0,0,0-.31-.74A1,1,0,0,0,192.22,68.81Z" transform="translate(-7.88 -13.76)"/>
      <path class="cls-47" d="M130.91,103.38a1.8,1.8,0,0,1-1.26-.51,1.93,1.93,0,0,1-.58-1.39V91.09a2,2,0,0,1,1.87-2l61.17-2.81a1.93,1.93,0,0,1,1.44.53,2,2,0,0,1,.6,1.41V99a2.11,2.11,0,0,1-2,2.08L131,103.38Zm61.3-16.2h-.05L131,90a1.08,1.08,0,0,0-1,1.1v10.39a1,1,0,0,0,.3.73.87.87,0,0,0,.65.25l61.18-2.26A1.16,1.16,0,0,0,193.23,99V88.21a1,1,0,0,0-.31-.75,1,1,0,0,0-.71-.28Z" transform="translate(-7.88 -13.76)"/>
      <path class="cls-47" d="M130.92,121a1.84,1.84,0,0,1-1.27-.52,2,2,0,0,1-.58-1.4V108.73a2,2,0,0,1,1.87-2l61.18-2.09a2,2,0,0,1,1.43.55,1.94,1.94,0,0,1,.6,1.41v10.83a2.07,2.07,0,0,1-2,2.06L131,121Zm61.27-15.48h0L131,107.65a1.06,1.06,0,0,0-1,1.08v10.39a1,1,0,0,0,.3.74.94.94,0,0,0,.65.26l61.18-1.55a1.13,1.13,0,0,0,1.1-1.14V106.6a1,1,0,0,0-.31-.75,1,1,0,0,0-.72-.29Z" transform="translate(-7.88 -13.76)"/>
      <path class="cls-47" d="M130.94,138.69a1.83,1.83,0,0,1-1.29-.53,2,2,0,0,1-.58-1.4V126.37a2,2,0,0,1,1.88-2L192.12,123a2.11,2.11,0,0,1,1.43.56,2,2,0,0,1,.59,1.43v10.83a2,2,0,0,1-2,2l-61.17.83Zm0-.91v0l61.18-.83a1.13,1.13,0,0,0,1.1-1.12V125a1.06,1.06,0,0,0-.32-.77,1.14,1.14,0,0,0-.76-.3L131,125.3a1,1,0,0,0-1,1.07v10.39a1.09,1.09,0,0,0,.3.75A.86.86,0,0,0,131,137.78Z" transform="translate(-7.88 -13.76)"/>
      <polygon class="cls-37" points="152.39 98.45 178.84 97.65 178.84 95.53 152.39 96.36 152.39 98.45"/>
      <polygon class="cls-37" points="160.93 101.92 178.84 101.42 178.84 99.3 160.93 99.82 160.93 101.92"/>
      <polygon class="cls-37" points="154.48 102.09 158.88 101.97 158.88 99.88 154.48 100.01 154.48 102.09"/>
      <polygon class="cls-37" points="152.39 62.88 178.84 61.47 178.84 59.35 152.39 60.8 152.39 62.88"/>
      <polygon class="cls-37" points="162.99 66.05 178.84 65.24 178.84 63.12 162.99 63.95 162.99 66.05"/>
      <polygon class="cls-37" points="144.54 66.99 160.93 66.15 160.93 64.05 144.54 64.91 144.54 66.99"/>
      <polygon class="cls-37" points="168.17 116.15 178.84 115.95 178.84 113.83 168.17 114.05 168.17 116.15"/>
      <polygon class="cls-37" points="155.7 116.38 166.2 116.19 166.2 114.08 155.7 114.29 155.7 116.38"/>
      <polygon class="cls-37" points="160.93 120.01 178.84 119.72 178.84 117.6 160.93 117.92 160.93 120.01"/>
      <polygon class="cls-37" points="141.68 120.33 158.88 120.05 158.88 117.95 141.68 118.25 141.68 120.33"/>
    </g>
    <path class="cls-48" d="M134.05,100.23l61.43-2.38A1.63,1.63,0,0,0,197,96.23V85.38a1.49,1.49,0,0,0-1.46-1.49h-.1l-61.43,2.92a1.55,1.55,0,0,0-1.44,1.56V98.79a1.4,1.4,0,0,0,1.36,1.44Z" transform="translate(-7.88 -13.76)"/>
    <g class="cls-49">
      <polygon class="cls-50" points="159.38 75.35 185.81 74.16 185.81 72.58 159.38 73.79 159.38 75.35"/>
      <polygon class="cls-50" points="159.38 78.12 185.81 76.97 185.81 75.39 159.38 76.56 159.38 78.12"/>
      <polygon class="cls-50" points="173.98 80.28 185.81 79.79 185.81 78.21 173.98 78.71 173.98 80.28"/>
    </g>
    <polygon class="cls-51" points="137.06 81.89 143.91 81.61 143.91 74.51 137.06 74.82 137.06 81.89"/>
    <polygon class="cls-33" points="129.16 82.22 135.94 81.94 135.94 74.87 129.16 75.19 129.16 82.22"/>
  </g>
  <g>
    <g>
      <path class="cls-52" d="M71,127.75l97,26.43a2.46,2.46,0,0,0,3-1.72l4.47-16.4a2.46,2.46,0,0,0-1.72-3L76.74,106.63a2.44,2.44,0,0,0-3,1.72l-4.48,16.4A2.46,2.46,0,0,0,71,127.75Z" transform="translate(-7.88 -13.76)"/>
      <g class="cls-49">
        <rect class="cls-53" x="148" y="110.33" width="2.49" height="42.35" transform="matrix(0.26, -0.96, 0.96, 0.26, -24.77, 227.15)"/>
        <rect class="cls-54" x="146.86" y="114.55" width="2.49" height="42.36" transform="translate(-29.67 229.17) rotate(-74.75)"/>
        <rect class="cls-55" x="157.05" y="133.74" width="2.49" height="18.78" transform="translate(-29.32 244.44) rotate(-74.75)"/>
      </g>
      <rect class="cls-56" x="91.81" y="116.33" width="11.45" height="11.45" transform="translate(-53.75 170.3) rotate(-74.75)"/>
      <rect class="cls-57" x="78.95" y="112.83" width="11.45" height="11.45" transform="translate(-59.85 155.31) rotate(-74.75)"/>
    </g>
    <g>
      <path class="cls-58" d="M181.41,221.32c0,.64-7.72,1.16-17.24,1.16s-17.23-.52-17.23-1.16,7.71-1.16,17.23-1.16S181.41,220.68,181.41,221.32Z" transform="translate(-7.88 -13.76)"/>
      <g>
        <g>
          <path class="cls-59" d="M166.23,159.6c1.13.57,2.18.37,5.14.19,4.26-.25,5.25-.58,7.8-1.67,1.66-.71-.39-4.24-2.8-3.91-2,.28-8.71,3.69-10,3.85C165.59,158.17,165.32,159.14,166.23,159.6Z" transform="translate(-7.88 -13.76)"/>
          <path class="cls-60" d="M179.7,157.56c.44-.88,1.1-3,1.33-8.39a35.14,35.14,0,0,0-.13-5.71,2.19,2.19,0,0,0-2.22-2.16,1.81,1.81,0,0,0-.52.07c-1.37.69-2.75,2.55-2.72,3.5.18,5.35.65,9.46.46,10.76C175.63,157.54,179.19,158.61,179.7,157.56Z" transform="translate(-7.88 -13.76)"/>
          <path class="cls-61" d="M176,217.64a7.37,7.37,0,0,0-.19,1.4c-.1.57-.63.77-.94,1.23s-.88,1.24,1.22,1.29,3.57,0,3.19-1.25a6.16,6.16,0,0,1-.43-2.16,1.31,1.31,0,0,0-.26-1.06C178.31,216.85,176.3,216.42,176,217.64Z" transform="translate(-7.88 -13.76)"/>
          <path class="cls-61" d="M153.05,218.66a5.17,5.17,0,0,1-2.18,1.6c-1.16.5-3.63.73-2.26,1.17a8.46,8.46,0,0,0,3.78,0,18.09,18.09,0,0,1,2.55-.15c1.26,0,1.27-.08,1.1-1.45C155.81,218,153.62,217.6,153.05,218.66Z" transform="translate(-7.88 -13.76)"/>
          <path class="cls-62" d="M178.6,133.58c-.65,2.48-.81,3-2.07,3.88a6,6,0,0,1-4.2.55c-1.28-.2-1.89-1.89-2-3a15.62,15.62,0,0,1,.68-6,4.1,4.1,0,0,1,4.17-2.51C177,126.81,180.18,127.53,178.6,133.58Z" transform="translate(-7.88 -13.76)"/>
          <path class="cls-63" d="M162.37,153.26c.84-.51,2.54-1.94,5.63-6.35a34.76,34.76,0,0,0,3-4.89,2.2,2.2,0,0,0-1.18-3.24c-1.53-.15-3.69.67-4.18,1.49-2.73,4.61-4.54,8.33-5.4,9.33C159,151.06,161.37,153.87,162.37,153.26Z" transform="translate(-7.88 -13.76)"/>
          <path class="cls-62" d="M176.62,137.82c-.07.88-.16,1.9-.27,2.81a2.43,2.43,0,0,1-2.48,2.11h-.14c-1.09-.18-2.21-1.36-1.95-2.43.18-.7.31-1.41.42-2a2.85,2.85,0,0,1,2.3-2.36h0a1.8,1.8,0,0,1,2.1,1.43A1.55,1.55,0,0,1,176.62,137.82Z" transform="translate(-7.88 -13.76)"/>
          <path class="cls-64" d="M180,149.36a53,53,0,0,0-5.14,17.84l-15.21-2.39s2.33-14.22,4.57-21.86a5.89,5.89,0,0,1,3.91-4,10.82,10.82,0,0,1,4.2-.26l2.81.44A11,11,0,0,1,178,140C182,141.92,181.74,145.7,180,149.36Z" transform="translate(-7.88 -13.76)"/>
          <path class="cls-65" d="M173.29,176.5s1.82-3,1.53-9.3l-15.21-2.39a88.05,88.05,0,0,0-2,9.22Z" transform="translate(-7.88 -13.76)"/>
          <g>
            <path class="cls-66" d="M167.85,197.7c-2-4.74,2.85-6.45,5.05-3.15,3.1,4.68,5.65,19.7,6.07,22.94.06.43.22.94,0,1.12a3.5,3.5,0,0,1-1.56.53c-.57.07-1.13.17-1.3-.52C175,214,169.83,202.29,167.85,197.7Z" transform="translate(-7.88 -13.76)"/>
            <path class="cls-67" d="M165.64,176c.43-6.24,3.62-10.63,7.12-8a5.26,5.26,0,0,1,1.75,4.55c0,1.65-1.48,18.56-1.55,21.65-.13,7-5.23,4.28-5.51,2.3C166.72,191.48,165.41,179.38,165.64,176Z" transform="translate(-7.88 -13.76)"/>
          </g>
          <path class="cls-68" d="M155.78,219.3c.73-7.3,4.79-19.88,3.44-26-.86-3.88-5.39-4.31-5.54.36-.15,5,.63,14.76-.6,24.34C153,219,155.68,220.15,155.78,219.3Z" transform="translate(-7.88 -13.76)"/>
          <path class="cls-69" d="M158.85,194.81c-.9,1.79-6.38,3.16-4.77-3.61.72-3,4-19.7,4.37-21.31s1-3.92,1.89-4.09c4.29-.84,7.47,4.61,5.45,10.52C164.44,180.28,160.7,191.09,158.85,194.81Z" transform="translate(-7.88 -13.76)"/>
          <path class="cls-62" d="M171.23,131.89c.22.92,0,1.77-.48,1.88s-1.06-.54-1.28-1.47,0-1.77.49-1.88S171,131,171.23,131.89Z" transform="translate(-7.88 -13.76)"/>
          <path class="cls-62" d="M177.78,132.92c-.49.81-.54,1.68-.12,1.94s1.18-.2,1.67-1,.54-1.68.12-1.94S178.28,132.1,177.78,132.92Z" transform="translate(-7.88 -13.76)"/>
          <path class="cls-70" d="M149.67,149.12c.78,1,1.41,1.57,4.24,2.45a35.85,35.85,0,0,0,8,1.78c1.8.14,1.57-4.17-.76-4.88-2-.6-9.45-.3-10.65-.67C149.69,147.55,149,148.32,149.67,149.12Z" transform="translate(-7.88 -13.76)"/>
          <path class="cls-62" d="M150.72,147.75c-.72-.38-7-2.54-7.08-1.15-.06,1.55,2.48,2.51,3.33,2.75,1.65.48,3,.8,3.7.09C151.15,148.93,151.41,148.11,150.72,147.75Z" transform="translate(-7.88 -13.76)"/>
          <path class="cls-62" d="M150.34,147.4c-.29-.24-2-1.68-2.29-1.38-.45.46.63,1.46,1.33,2.12.39.36,1.15.59,1.4.24S150.8,147.79,150.34,147.4Z" transform="translate(-7.88 -13.76)"/>
        </g>
        <path class="cls-71" d="M173.32,127.41c-1.6.66-2.06,1.37-2.3,3.18s0,5,3.25,6.22,4.51-2,5.07-4.2.7-4-.92-4.63C176,127,174.28,127,173.32,127.41Z" transform="translate(-7.88 -13.76)"/>
        <path class="cls-72" d="M179.28,128.35c.12-1.42-2-2.4-2.25-3.06,0,0-.12,1,.27,1.24a18,18,0,0,1-3.57-1.91s.42,1,.93,1.24a22.89,22.89,0,0,1-3.76-1.38,10.93,10.93,0,0,0,1.61,1.92,11,11,0,0,1-3.82-.62s1.14,3.2,3.34,3.58S179.07,130.93,179.28,128.35Z" transform="translate(-7.88 -13.76)"/>
      </g>
      <g class="cls-73">
        <path class="cls-74" d="M199,126.88c-11.55-1.93-28,5.79-31.28,17.87-3.39,12.33,5.88,18.23-1.72,35.3-6,13.5.89,28.31,2.52,40,1.78,12.83,41-12.18,45.46-31.43,2.68-11.51,2.25-31.42-14.4-28.43S215.62,129.67,199,126.88Z" transform="translate(-7.88 -13.76)"/>
      </g>
    </g>
    <g>
      <path class="cls-58" d="M53.91,221.87c0,.65,12.56,1.19,28.06,1.19s28.06-.54,28.06-1.19S97.47,220.68,82,220.68,53.91,221.21,53.91,221.87Z" transform="translate(-7.88 -13.76)"/>
      <g>
        <g>
          <path class="cls-62" d="M69.4,119.93c.18-.82,1.89-7.22,3-6.35s1.14,3.65,1,4.55A3.41,3.41,0,0,1,70.78,121C70.06,121,69.24,120.71,69.4,119.93Z" transform="translate(-7.88 -13.76)"/>
          <path class="cls-75" d="M71.91,119.78c.52,1.16,0,1.37-.25,4.63a33.09,33.09,0,0,1-1.47,8.18c-.61,1.72-4.19-.42-3.86-2.89.29-2.09,3.2-9,3.77-10.13a1,1,0,0,1,1.39-.32A1.06,1.06,0,0,1,71.91,119.78Z" transform="translate(-7.88 -13.76)"/>
          <path class="cls-76" d="M70.54,131c-.19,1-1,3.14-4.07,7.71a35.72,35.72,0,0,1-3.63,4.61c-1.25,1.37-3.11.91-3.54,0-.7-1.41-.69-3.79-.08-4.55,3.45-4.29,6.36-7.37,7-8.56C67.18,128.47,70.76,129.78,70.54,131Z" transform="translate(-7.88 -13.76)"/>
          <path class="cls-77" d="M60.15,218.1a7.68,7.68,0,0,1,.2,1.44c.1.57.65.78,1,1.25s.9,1.28-1.25,1.32-3.67,0-3.28-1.28a6.49,6.49,0,0,0,.44-2.21,1.37,1.37,0,0,1,.26-1.09C57.75,217.29,59.81,216.85,60.15,218.1Z" transform="translate(-7.88 -13.76)"/>
          <path class="cls-77" d="M83.25,192.52A5.37,5.37,0,0,0,85.57,194c1.22.46,3.76.58,2.38,1.1a8.77,8.77,0,0,1-3.88.24,17.67,17.67,0,0,0-2.62.11c-1.29,0-1.3-.16-1.2-1.57C80.4,192,82.62,191.46,83.25,192.52Z" transform="translate(-7.88 -13.76)"/>
          <path class="cls-62" d="M63.17,129.48c.26,2.62.34,3.2,1.48,4.27A6.13,6.13,0,0,0,68.82,135c1.34,0,2.22-1.61,2.52-2.72a16.18,16.18,0,0,0,.26-6.16,4.23,4.23,0,0,0-3.83-3.21C65.92,122.88,62.53,123.09,63.17,129.48Z" transform="translate(-7.88 -13.76)"/>
          <path class="cls-62" d="M64.5,134.09c-.07.91-.14,1.95-.17,2.9a2.51,2.51,0,0,0,2.18,2.53h.15c1.12,0,2.45-1,2.35-2.16-.06-.73-.08-1.47-.09-2.12a2.93,2.93,0,0,0-2-2.76h0a1.85,1.85,0,0,0-2.36,1.12A2.4,2.4,0,0,0,64.5,134.09Z" transform="translate(-7.88 -13.76)"/>
          <path class="cls-78" d="M59.27,145.27a54.3,54.3,0,0,1,2.38,18.91h15.8s-.1-14.8-1.15-22.9A6.07,6.07,0,0,0,73,136.63a11.32,11.32,0,0,0-4.21-.94H65.83a11.54,11.54,0,0,0-3.09.39C58.44,137.4,58.05,141.27,59.27,145.27Z" transform="translate(-7.88 -13.76)"/>
          <path class="cls-79" d="M61.71,173.85s-1.36-3.31-.06-9.67h15.8s0,4.54,0,9.67Z" transform="translate(-7.88 -13.76)"/>
          <g>
            <path class="cls-80" d="M64.83,194.54c1.27-5.15-4-6-5.65-2.33-2.34,5.26-2.16,22.09-2,25.45,0,.44-.06,1,.16,1.14a3.43,3.43,0,0,0,1.67.27c.59,0,1.17,0,1.23-.75C60.61,213.42,63.61,199.52,64.83,194.54Z" transform="translate(-7.88 -13.76)"/>
            <path class="cls-81" d="M69.56,174.55c.55-6.39-2-11.36-6-9.25a5.43,5.43,0,0,0-2.5,4.34c-.22,1.67-1.45,19.06-1.88,22.21-1,7.08,4.62,5.17,5.23,3.21C66,190.1,69.25,178,69.56,174.55Z" transform="translate(-7.88 -13.76)"/>
          </g>
          <path class="cls-82" d="M80.37,192.61c2.69-7,4.77-20.45,8.82-25.42,2.58-3.16,6.93-1.47,4.91,2.88-2.16,4.66-7.38,13.25-10.68,22.6C83.1,193.6,80.07,193.43,80.37,192.61Z" transform="translate(-7.88 -13.76)"/>
          <path class="cls-83" d="M92.67,171.63c2-.55,4.19-7-3-6.68-3.17.14-14.33.07-16,.14s-4.16.27-4.49,1.1c-1.69,4.16,3.19,8.43,9.54,7.54C83,173.15,88.57,172.78,92.67,171.63Z" transform="translate(-7.88 -13.76)"/>
          <path class="cls-62" d="M70.91,128.93c-.37.9-.28,1.8.19,2s1.16-.38,1.53-1.29.28-1.8-.19-2S71.28,128,70.91,128.93Z" transform="translate(-7.88 -13.76)"/>
          <path class="cls-62" d="M64.1,128.93c.37.9.29,1.8-.19,2s-1.15-.38-1.52-1.29-.29-1.8.19-2S63.73,128,64.1,128.93Z" transform="translate(-7.88 -13.76)"/>
          <path class="cls-84" d="M64,124.33c1,1.52,5.93,1.66,7.54,1.1s1.5-3.66-.8-3.88c-1.29,0-.36.31-1.4.74C68.78,122.5,62.89,122.71,64,124.33Z" transform="translate(-7.88 -13.76)"/>
          <path class="cls-62" d="M95.25,134.41c.8-.28,7.15-2.13,7-.7s-2.54,2.86-3.38,3.2a3.4,3.4,0,0,1-3.81-.79C94.64,135.54,94.49,134.67,95.25,134.41Z" transform="translate(-7.88 -13.76)"/>
          <path class="cls-62" d="M95.52,134c.28-.27,1.92-1.88,2.24-1.59.5.44-.53,1.54-1.2,2.28-.36.4-1.12.69-1.41.35S95.08,134.45,95.52,134Z" transform="translate(-7.88 -13.76)"/>
          <path class="cls-85" d="M96.67,136.47c-.72,1.05-1.14.75-4.08,2.19a32.77,32.77,0,0,1-7.76,3c-1.79.37-1.82-3.8.47-4.79,1.94-.84,9.33-1.92,10.61-2a1,1,0,0,1,1,1A1,1,0,0,1,96.67,136.47Z" transform="translate(-7.88 -13.76)"/>
          <path class="cls-86" d="M86.6,141.18c-.92.41-3.12,1-8.66,1a26.81,26.81,0,0,1-4.82-.23,3.68,3.68,0,0,1-3.07-3c0-1.61.87-2.81,1.84-2.74,5.49.4,11.55,1.14,12.89,1C86.74,137,87.7,140.7,86.6,141.18Z" transform="translate(-7.88 -13.76)"/>
        </g>
        <path class="cls-87" d="M69.51,124.07c1.52.91,1.87,1.71,1.83,3.59s-.85,5.07-4.3,5.78-4.26-2.71-4.47-5.07-.07-4.12,1.67-4.55C66.83,123.19,68.59,123.51,69.51,124.07Z" transform="translate(-7.88 -13.76)"/>
      </g>
      <g class="cls-88">
        <path class="cls-89" d="M36.11,111.81c11.55-1.93,28,5.79,31.28,17.87,3.39,12.33-5.87,18.23,1.72,35.3,6,13.5-.89,28.31-2.51,40-1.79,12.83-41-12.18-45.46-31.43-2.69-11.51-2.25-31.43,14.4-28.43S19.48,114.6,36.11,111.81Z" transform="translate(-7.88 -13.76)"/>
      </g>
    </g>
  </g>
  <g>
    <path class="cls-90" d="M24,126.71a7.14,7.14,0,0,0-2.78,6.87,16.5,16.5,0,0,1-.53,7.29c-.53,1.65-2.37,7.18,4.14,7.06s6.92-7.75,6.17-11.66.62-6.65-.36-7.84S27.41,124.24,24,126.71Z" transform="translate(-7.88 -13.76)"/>
    <path class="cls-62" d="M48.63,141c1.22-.95,2.45-2,2.7-.91s.26,1-.61,1.81S47.61,141.76,48.63,141Z" transform="translate(-7.88 -13.76)"/>
    <path class="cls-91" d="M48.67,140.75c-.82.37-6.58,1.53-8.92,2.26l-.07,0c-1.16-.33-4.37-1.88-8.69-3.8a5.5,5.5,0,0,0-3.85.23c-.77.39-1,1.7.37,2.42a35.27,35.27,0,0,0,4.64,2,30.17,30.17,0,0,0,7.1,2,1.5,1.5,0,0,0,.73,0,20.55,20.55,0,0,0,6.26-2.37c2-1.08,2.85-.74,3.17-1.39S49.28,140.47,48.67,140.75Z" transform="translate(-7.88 -13.76)"/>
    <path class="cls-58" d="M45.06,211c0,.61-6.56,1.11-14.65,1.11s-14.65-.5-14.65-1.11,6.56-1.12,14.65-1.12S45.06,210.37,45.06,211Z" transform="translate(-7.88 -13.76)"/>
    <path class="cls-92" d="M22.44,207.61a7.64,7.64,0,0,1,.15,1.17c.07.47.51.64.76,1s.7,1.11-1,1.15-2.87-.09-2.57-1.12a5.24,5.24,0,0,0,.35-1.8,1.11,1.11,0,0,1,.2-.88C20.55,207,22.17,206.59,22.44,207.61Z" transform="translate(-7.88 -13.76)"/>
    <path class="cls-93" d="M25.76,134.7c0,.13-.23,3-.27,5.2,0,1.08.76,2.1,1.54,2.13h0a1.92,1.92,0,0,0,1.59-2c-.12-1.92,0-3.88,0-3.91Z" transform="translate(-7.88 -13.76)"/>
    <path class="cls-94" d="M23.53,147.09a37.49,37.49,0,0,1,1.37,6,15.29,15.29,0,0,1,0,4.53c-.13.9-.3,1.8-.51,2.69-.08.34-.74,3.06-.77,3.35H36c-.12-2.43-2.88-10.07-1-15,1.3-3.42-.43-3.53-1.6-6.38a8.32,8.32,0,0,0-1-2.06,3.55,3.55,0,0,0-1.9-1.17,7.53,7.53,0,0,0-1.16-.16c-2.1-.17-7-.78-7.5,2.21a5.19,5.19,0,0,0,.24,2.41c.28.88.69,1.7,1,2.54C23.28,146.39,23.41,146.74,23.53,147.09Z" transform="translate(-7.88 -13.76)"/>
    <path class="cls-95" d="M23.66,171.56s-1.07-2.7-.05-7.88H36a73.88,73.88,0,0,1,.45,7.88Z" transform="translate(-7.88 -13.76)"/>
    <g>
      <path class="cls-96" d="M26.11,188.41c1-4.19-3.13-4.93-4.44-1.9-1.84,4.29-1.7,18-1.6,20.74,0,.36.2.29.4.22a3,3,0,0,1,1.32-.25,1.18,1.18,0,0,1,.69.57C22.87,204.06,25.15,192.47,26.11,188.41Z" transform="translate(-7.88 -13.76)"/>
      <path class="cls-97" d="M29.82,172.12c.44-5.21-1.55-9.25-4.66-7.53a4.43,4.43,0,0,0-2,3.53c-.17,1.37-1.14,15.54-1.48,18.1-.76,5.77,3.63,4.21,4.11,2.61C27,184.8,29.58,175,29.82,172.12Z" transform="translate(-7.88 -13.76)"/>
    </g>
    <path class="cls-98" d="M37.15,188.14c.17-3.91-3.5-3.82-4.42-.64-1.45,5,1.05,15.74,1.21,21.88.64-1.06,1.24-1.32,1.53-1.3a1,1,0,0,1,.71.4C36.09,200.4,37,192.32,37.15,188.14Z" transform="translate(-7.88 -13.76)"/>
    <path class="cls-99" d="M32.87,188.56c.49,1.6,4.69,3.45,4.25-2.36-.19-2.58-.71-16.8-.81-18.18s-.33-3.37-1-3.62c-3.32-1.25-6.53,2.84-5.66,8C30.24,175.83,31.86,185.25,32.87,188.56Z" transform="translate(-7.88 -13.76)"/>
    <path class="cls-62" d="M50.53,139.68a4.53,4.53,0,0,1,1.9-.94c.54-.05-.63.57-1,.95S50,140.06,50.53,139.68Z" transform="translate(-7.88 -13.76)"/>
    <path class="cls-62" d="M24.11,157.79c1.52-.3,2.29-.81,3-.43s-.32,1.72-.84,1.94-2.33,1.15-2.86.65a1.34,1.34,0,0,1,.21-1.9A1.37,1.37,0,0,1,24.11,157.79Z" transform="translate(-7.88 -13.76)"/>
    <path class="cls-100" d="M19,151.18c.86-1.34,2.79-3.86,5.14-7.13a5.46,5.46,0,0,0,.57-3.82c-.22-.83-1.46-1.35-2.44-.13a34.78,34.78,0,0,0-2.91,4.12c-2.57,4.11-3.28,6.08-3.5,7a1,1,0,0,0,.41,1l.09.14a20.62,20.62,0,0,0,4.67,4.79c1.8,1.45,1.81,2.32,2.54,2.36s1.4-.76.9-1.21S20.69,153.16,19,151.18Z" transform="translate(-7.88 -13.76)"/>
    <path class="cls-62" d="M23.84,133c.63,2.38.79,2.9,2,3.72a5.81,5.81,0,0,0,3.94.84c1.24-.2,1.95-1.65,2.06-2.72a17.75,17.75,0,0,0-.72-6.23,3.92,3.92,0,0,0-4-2.4C25.4,126.52,22.3,127.23,23.84,133Z" transform="translate(-7.88 -13.76)"/>
    <path class="cls-101" d="M36.33,208.46a4.39,4.39,0,0,0,1.76,1.34c.94.41,2.93.61,1.82,1a6.51,6.51,0,0,1-3,0,14.15,14.15,0,0,0-2.06-.12c-1,0-1-.07-.89-1.22C34.11,207.91,35.88,207.57,36.33,208.46Z" transform="translate(-7.88 -13.76)"/>
    <path class="cls-102" d="M30.52,127.45c1.21,1.46-5.2,5.53-6.76,5.53s-1.69-3-.75-4.66S27.67,124,30.52,127.45Z" transform="translate(-7.88 -13.76)"/>
    <path class="cls-103" d="M27.9,127.45c.47,1.33,2.92,1.26,3.51,2.32.37.66.12-1.57-.6-2.49S27,124.78,27.9,127.45Z" transform="translate(-7.88 -13.76)"/>
    <path class="cls-62" d="M25,132.65c.35.85.27,1.68-.18,1.86s-1.08-.35-1.42-1.2-.27-1.68.17-1.86S24.65,131.81,25,132.65Z" transform="translate(-7.88 -13.76)"/>
    <g class="cls-104">
      <path class="cls-105" d="M15.87,111.22c3.39,12.33,5.7,10.57,13.29,27.64,6,13.5-.89,28.31-2.52,40-1.78,12.83,4.64,19,2.52,30.49C-6.36,229.2,12.55,99.14,15.87,111.22Z" transform="translate(-7.88 -13.76)"/>
    </g>
  </g>
  <path class="cls-106" d="M93.83,195.49H79.33a6.33,6.33,0,0,0-6.12,4.73l-5.76,21.91h38.27L100,200.22A6.33,6.33,0,0,0,93.83,195.49Z" transform="translate(-7.88 -13.76)"/>
</svg>
