<svg xmlns="http://www.w3.org/2000/svg" xmlns:xlink="http://www.w3.org/1999/xlink" viewBox="0 0 1808.15 1052.63"><defs><style>.a,.h{fill:none;}.a{clip-rule:evenodd;}.b{clip-path:url(#a);}.c{fill:url(#b);}.d,.k{fill:#003398;}.aa,.ab,.ac,.ad,.ae,.af,.ag,.ah,.ai,.aj,.ak,.al,.ao,.aq,.ar,.as,.at,.au,.d,.i,.j,.l,.m,.n,.o,.p,.q,.r,.s,.t,.u,.v,.w,.x,.y,.z{fill-rule:evenodd;}.e{clip-path:url(#c);}.f{fill:url(#d);}.g{fill:#102b6e;}.h{stroke:#102b6e;stroke-miterlimit:22.93;stroke-width:0.5px;}.i{fill:#4596d1;}.j{fill:#e4f5fb;}.l{fill:#ee4354;}.m{fill:#a5dbfd;}.n{fill:#fdfdfd;}.o{fill:#b2defc;}.an,.p{fill:#fff;}.q{fill:#f8babc;}.r{fill:#ea8287;}.s{fill:#f7ab2b;}.ap,.t{fill:#76c5fb;}.u{fill:#fca700;}.v{fill:#6aaff1;}.w{fill:#569bdd;}.x{fill:#ed979b;}.y{fill:#f7aaac;}.z{fill:#e88e92;}.aa{fill:#8ccdfb;}.ab{fill:#1a47b6;}.ac{fill:#eca01f;}.ad{fill:#eb8e91;}.ae{fill:#ffc86b;}.af{fill:#ffbc4a;}.ag{fill:#992842;}.ah{fill:#ba3954;}.ai{fill:#efd817;}.aj{fill:#90a7d1;}.ak{fill:#7c93c3;}.al{fill:#00a551;}.am{fill:#cbe6d2;}.ao{fill:#64a4e2;}.aq{fill:#ec1c24;}.ar{fill:#3dabf9;}.as{fill:#ff5269;}.at{fill:#26a0f8;}.au{fill:#219ef8;}.av{fill:#f68c21;}</style><clipPath id="a"><path class="a" d="M203.6,753.07H154.26C69.41,753.07,0,816.86,0,894.81s69.41,141.75,154.26,141.75H1558.37c137.38,0,249.78-103.28,249.78-229.52s-112.4-229.53-249.78-229.53c-58.09,0-110.63-43.67-110.63-97.05s47.53-97,105.61-97h59.73c60.4,0,109.81-45.41,109.81-100.9s-49.41-100.9-109.81-100.9h-170.2c-23.52,0-42.75-17.68-42.75-39.28s19.23-39.28,42.75-39.28h28.33c16.23,0,29.5-12.2,29.5-27.11h0c0-14.91-13.27-27.11-29.5-27.11H1294.77c-39.16,0-43.52,42.5-142.43,42.5H939.75c-21.17,0-38.49,15.92-38.49,35.37h0c0,19.45,17.32,35.37,38.49,35.37h37c30.68,0,55.78,23.07,55.78,51.26s-25.1,51.25-55.78,51.25H921.09c-150.25,0-171.47,36.09-197.78,107.85S430.19,450,430.19,450H233.4c-46.23,0-84.06,34.76-84.06,77.25C149.53,554.85,159,587,221,611.17c28.18,11,47.42,37.68,47.42,67.61C268.43,719.64,248.07,753.07,203.6,753.07ZM1554,103.06c-16.3,0-29.51-12.14-29.51-27.11s13.21-27.11,29.51-27.11S1583.51,61,1583.51,76,1570.3,103.06,1554,103.06Z"/></clipPath><linearGradient id="b" x1="904.08" y1="2263.4" x2="904.08" y2="-66.37" gradientUnits="userSpaceOnUse"><stop offset="0" stop-color="#1e9df8"/><stop offset="0.01" stop-color="#209ef8"/><stop offset="0.37" stop-color="#77c4fb"/><stop offset="0.67" stop-color="#b6dffd"/><stop offset="0.89" stop-color="#ddf0fe"/><stop offset="1" stop-color="#ecf7ff"/></linearGradient><clipPath id="c"><path class="a" d="M542.41,353.05h822.1a.81.81,0,0,1,.81.8V876.18a.81.81,0,0,1-.81.8H542.41a.8.8,0,0,1-.81-.8V353.85a.8.8,0,0,1,.81-.8"/></clipPath><linearGradient id="d" x1="953.46" y1="842.68" x2="953.46" y2="418.36" gradientUnits="userSpaceOnUse"><stop offset="0" stop-color="#3d9dff"/><stop offset="1" stop-color="#ceecfa"/></linearGradient></defs><title>60 [Converted]</title><g class="b"><rect class="c" y="48.84" width="1808.15" height="987.72"/></g><path class="d" d="M556.52,314.92h793.87a51.89,51.89,0,0,1,51.74,51.74V863.38a51.89,51.89,0,0,1-51.74,51.74H556.52a51.89,51.89,0,0,1-51.73-51.74V366.66a51.89,51.89,0,0,1,51.73-51.74"/><g class="e"><rect class="f" x="541.6" y="353.05" width="823.71" height="523.93"/></g><rect class="g" x="997.5" y="300.3" width="321.1" height="499.17"/><rect class="h" x="997.5" y="300.3" width="321.1" height="499.17"/><path class="i" d="M883.17,907.13c-3.64,71-13.28,89-80.1,129.45h296.19c-66.81-40.47-76.46-58.43-80.1-129.45l-68-5.77Z"/><path class="j" d="M1402.13,829.37v34a51.89,51.89,0,0,1-51.74,51.74H556.53a51.89,51.89,0,0,1-51.74-51.74v-34Z"/><rect class="k" x="504.79" y="795.85" width="897.34" height="54.36"/><path class="l" d="M993.5,300.3H1328a10.76,10.76,0,0,0,0-21.52H993.5a10.76,10.76,0,1,0,0,21.52"/><polygon class="m" points="964.87 771.82 1278.92 771.82 1316.58 323.07 1002.02 323.07 964.87 771.82"/><path class="n" d="M995.12,300.3c-18,164.22-53.67,304.28-84.56,470,110.55,1.48,221.69,1.48,331.65,1.48,24.09-122,53.22-342.47,76.38-471.52Z"/><path class="o" d="M982.17,668.84h216.62a5.58,5.58,0,0,1,5.56,5.57h0a5.58,5.58,0,0,1-5.56,5.57H982.17a5.58,5.58,0,0,1-5.57-5.57h0a5.59,5.59,0,0,1,5.57-5.57"/><path class="o" d="M974.31,704.5h216.61a5.58,5.58,0,0,1,5.57,5.57h0a5.58,5.58,0,0,1-5.57,5.57H974.31a5.59,5.59,0,0,1-5.57-5.57h0a5.58,5.58,0,0,1,5.57-5.57"/><path class="d" d="M774.15,547.51c20.41,44.79,45.72,96.11,104.12,104.81,47.38,7.06,116.71-82.12,123.53-96.67s-19.08-52.54-27.43-48.14-77,57.42-83.3,57c-7.33-.48-32.33-80-77.7-106.18-7.08-4.08-48,69.9-39.22,89.16"/><path class="d" d="M661.05,437.05c-28.81,0-53.51,8.86-71,26.93C565.81,489.13,608,659,611,796.69H856.76c1.48-61.13.25-205.23-13.54-308.83-8.08-12.76-26.86-29-45.52-39.67C765,429.51,701,437.05,661.05,437.05"/><path class="p" d="M750.31,436.43c35.78,19.35,63.67,152,62.9,359.42H714.58C710.8,578.78,676.55,474,663,437c29.11-1.92,51.19-3.68,87.33-.61"/><path class="j" d="M675.1,436.24c23-1.48,43.14-2.39,72.77,0,8.73,11.83,12,49-18,64.39C705,495.9,664.64,462.4,675.1,436.24"/><path class="p" d="M750.56,441.1a31.52,31.52,0,0,0-6.64-5.17l4,.3a23.56,23.56,0,0,1,2.69,4.87"/><path class="q" d="M787.63,383.41c4.06,25.78-26.91,45.43-47.93,43.71v11.79l2.1,2.85c12.34,24.32-.93,43.11-13.69,49.67-20-7.16-47.56-25.47-48-50.94l1.29-1.58V393.73a21.5,21.5,0,0,1-4.63-2c-4.63-2.7-6.44-9.28-5.19-16.09s11.12-2.2,11.12-2.2h0c-8.57-20.16-19.55-37.55,2.55-48.75s66.66-10.37,66.66-10.37l29.83-2.49c-7.22,11,3.21,54.44,5.9,71.53"/><path class="r" d="M744.62,427.37c-1.68,0-3.32-.12-4.92-.25h0c-13.26-.23-27.17-9.22-39.5-13.72,0,0,6.25,22.06,22,29a59.64,59.64,0,0,0,17.49,4.87V427.12l4.76.11Z"/><path class="d" d="M696.54,335.58c-10.85,8.46-3.31,30.77-.24,37.19,3.34,7,6.85,16,4.43,17.1C691.3,394,683.47,376.74,679,374.61c-1.5-.71-4.37-1.06-5.59-.13-4.16,3.13-1.89,13,2.86,16.36,1.4,1,3.56,2.89,3.56,2.89-19.13-.52-64.49-46.15-42.43-74.11,5.37-55.37,37.2-70.19,74-69.25,14.35.36,27.79,8.39,42.26,14.51,5.71,2.42,10.36,5,14.64,5.45,10.54,1.05,12.88-8.84,19.18-3.09,25.85,23.58,6.08,90.48-53.72,71.32-19.55-6.27-29.53-9-37.2-3"/><path class="d" d="M654.93,512.11c10.53-21.66-1.29-44.32-23.59-53.85h0c-22.31-9.53-46.33,3.95-56.86,25.61-20.65,42.49-81,139.11-51.34,186.91,24,38.77,89.22,20.09,104.23,16.06s24.07-51.27,24.07-51.27-44.72,1.09-49.75-10.56c-8.32-19.29,45.86-97.72,53.24-112.9"/><path class="p" d="M646.6,640c-12.66,7.56-22.3,29.34-21.48,43.67C628.54,683,658,673.28,658,673.28c10.27-11.64,13.68-26.65,11-36.24Z"/><path class="l" d="M724.39,612.29l3.24,2.55a2.48,2.48,0,0,1,.42,3.48l-54.9,69.44c-.85,1.07-7.29,4.15-8.36,3.31s.47-8,1.31-9l54.81-69.32a2.49,2.49,0,0,1,3.48-.42"/><path class="q" d="M667.75,639.13l15.5-2.55L701,624.82s2.5-2,5.91.63c25.75,19.81,3,27.1-14,44.73-7.87.19-7,.22-12.35-6.94-1-1.39-23.69,6.53-23.69,6.53-.34-4.7,1.5-20.25,10.91-30.64"/><path class="p" d="M976.74,512.65c-2.19,13.75,10.63,35.92,20.37,39.86,1.09-1.94,7.6-10.33,11.91-16.78,9.27-13.84-12.6-42.78-19-36.36Z"/><path class="s" d="M1069.66,486.94c10.07,17.47,19.45,40.8,21.51,57.93h53.21c4.08-8.46,16.53-25.12,27.9-39.62s21.65-26.91,21.45-26.83c8.48-10.94,13.89-20.35,16.93-37.33s-1.42-38.78-12.5-52.11-28.22-21.6-48.79-21.6-40.69,8.28-56.53,21.6-28.09,35.16-31.13,52.11-1,26.26,3.5,37.17c1.61,2.93,2.58,5.75,4.45,8.68"/><path class="p" d="M1142.19,469.49a11,11,0,0,1,7.18-4.76,8.86,8.86,0,0,1,5.52.79,9.36,9.36,0,0,1,3.9,3.86,11.81,11.81,0,0,1,1.29,6.46,20.3,20.3,0,0,1-2.2,7.88c-1.89,3.85-8,6.51-15.43,8q-2.91,16.38-5.84,32.71h-4.75q2.85-16,5.72-31.92a86.53,86.53,0,0,1-21.21.05q-2.86,15.94-5.69,31.87h-5.08q2.91-16.35,5.84-32.71c-7-1.51-12-4.18-12.56-8a18.29,18.29,0,0,1,.59-7.88,17.41,17.41,0,0,1,3.64-6.46,15.31,15.31,0,0,1,5.28-3.86,10.37,10.37,0,0,1,5.81-.79,6.83,6.83,0,0,1,5.48,4.76c.94,2.79.59,6.27-.14,9.32-.12.39-.21.79-.3,1.18-1.64-.13-3.23-.29-4.84-.45.06-.36.18-.73.27-1.09.46-1.94.84-4.44.23-6.19a3,3,0,0,0-2.46-2.09,5.49,5.49,0,0,0-3.06.41,8.8,8.8,0,0,0-3,2.22,9.92,9.92,0,0,0-2.14,3.79,12.66,12.66,0,0,0-.38,5.3c1,7.21,46.14,7.21,49.7,0a14,14,0,0,0,1.52-5.3,7.21,7.21,0,0,0-.73-3.79,5.16,5.16,0,0,0-2.26-2.22,4.8,4.8,0,0,0-6.1,1.68,14.28,14.28,0,0,0-2,6.19c0,.36-.08.73-.11,1.09-1.71.16-3.35.32-5,.45,0-.39.1-.78.15-1.18a20.38,20.38,0,0,1,3.17-9.32"/><path class="t" d="M1099.56,548.5h35a6.42,6.42,0,0,1,6.45,7.87h0a9.87,9.87,0,0,1-9.27,7.86h-35a6.41,6.41,0,0,1-6.45-7.86h0a9.87,9.87,0,0,1,9.27-7.87"/><path class="t" d="M1099.32,566.16h29.17a4.31,4.31,0,0,1,4.31,5.3h0a6.6,6.6,0,0,1-6.22,5.31h-29.16a4.35,4.35,0,0,1-4.38-5.31h0a6.7,6.7,0,0,1,6.28-5.3"/><path class="t" d="M1101.85,578.67h19.56a4.13,4.13,0,0,1,4.17,5.07h0a6.35,6.35,0,0,1-5.95,5.07H1100a4.14,4.14,0,0,1-4.17-5.07h0a6.39,6.39,0,0,1,6-5.07"/><path class="u" d="M1215.2,344.13h0c1.79,1.13,2,3.7.5,5.64-4,5.24-7.94,10.44-11.88,15.67-1.48,2-4.14,2.67-5.9,1.52h0c-1.75-1.12-2-3.67-.52-5.64q5.91-7.83,11.85-15.67c1.5-2,4.16-2.67,6-1.52m-123.27,0h0c2.17-1.15,4.58-.47,5.37,1.52q3.09,7.83,6.25,15.67c.79,2-.35,4.52-2.55,5.64h0c-2.17,1.15-4.58.46-5.37-1.52-2.09-5.23-4.18-10.44-6.25-15.67C1088.61,347.82,1089.73,345.26,1091.93,344.13Zm-53.22,45.11h0c1.5-2,4.18-2.65,5.93-1.51,4.67,3,9.36,6.06,14,9.06,1.76,1.13,2,3.69.53,5.65h0c-1.52,2-4.2,2.66-6,1.51-4.67-3-9.37-6-14-9C1037.45,393.77,1037.22,391.23,1038.71,389.24Zm213.52,0h0c.79,2-.36,4.52-2.56,5.67-5.75,3-11.52,6-17.25,9-2.19,1.15-4.63.47-5.39-1.51h0c-.8-2,.35-4.52,2.52-5.65,5.75-3,11.52-6.05,17.28-9.06C1249,386.59,1251.43,387.28,1252.23,389.24Zm5.48,61.65h0a5.22,5.22,0,0,1-4.9,4.15h-18.1a3.38,3.38,0,0,1-3.4-4.15h0a5.17,5.17,0,0,1,4.9-4.13h18.07A3.38,3.38,0,0,1,1257.71,450.89Zm-220.17,0h0a5.22,5.22,0,0,1-4.9,4.15h-18.1a3.36,3.36,0,0,1-3.34-4.15h0a5.16,5.16,0,0,1,4.84-4.13h18.1A3.37,3.37,0,0,1,1037.54,450.89Zm119-123.29h0a3.38,3.38,0,0,1,3.37,4.15q-1.62,9-3.22,18.1a5.17,5.17,0,0,1-4.87,4.13h0a3.36,3.36,0,0,1-3.41-4.13q1.61-9,3.23-18.1A5.22,5.22,0,0,1,1156.53,327.6Z"/><path class="q" d="M1002.52,490.91c1.36-6.32,7.1-31.29,11.76-35.48,2.38-2.14,2.94-1.18,4,.18a11.34,11.34,0,0,1,1.44,6.64c-.55,4.63-.9,8.85-1.6,11.34,14.08-7.37,27.57-24.65,37.87-36.48,4.18-4.81,10.84-4.3,6.81,4.28-3.29,7-22.09,29.94-22.09,29.94l28-15.17c4.93-2.68,4.9,3.39,2.55,5.94-3.86,4.19-28,19.24-28,19.24l26.4-3.87s2.69,2.83-.59,4.8-28.59,10.1-28.59,10.1l17.1.34s1.6,3.44-2.72,4.8c-2.3.73-8.27,1.41-14,3.29a61.84,61.84,0,0,0-11.6,5.56c-10.11,6.06-14.91,16.09-22.08,24.51-3.89-3-13.65-14.34-15-28.31Z"/><path class="v" d="M452.42,720.7C506,772.18,495.36,944.53,563.51,966c0,0,48.67,11.25,45.39,25.55s-9.62,19.7-9.62,19.7-57.33,5.22-105.5-4.86c-27.09-5.67-31.09-41.34-41.36-45.48C423.89,949.42,408.77,834,408.77,834Z"/><path class="w" d="M389.27,695.7H270.8c-52,0-95.51,38.32-104.1,88.3-.91,0-4.82,33-5.09,35.85-5.85,61.69-6.3,151.81,11.06,216.71H451.22l1.2-153.06V720.71c-18.39-15.59-37.39-25-63.15-25"/><path class="q" d="M399.43,583.59a78.36,78.36,0,0,0,3.86,28.69c8.27,23.72-9.83,64.52-41.51,61.81l.11,21.61h-.49c14,16.47-3.27,55.55-19.19,55.68-13.73.1-38.88-29.53-40.64-55.68V651.4a12.7,12.7,0,0,1-4.81-2.12c-3.18-1.94-19.19-17.77-17.9-25.15s16-8.24,16-8.24l3.4-3c-8.9-21.89-15.66-22.29,7.27-34.46s69.19-11.25,69.19-11.25l23.93,7.18Z"/><path class="x" d="M361.78,674.14l.11,21.34A81.24,81.24,0,0,1,340,688.59a40.4,40.4,0,0,1-21-22.45c12.79,4.89,24.62,7.65,38.38,7.9Z"/><path class="y" d="M515.05,916.23s32.74-.31,43.33,3.71,14.42,9.54,14.42,9.54l10.82,2.7s2,8.12,0,8.12-59.52,5.41-59.52,5.41l-12.24-1.58s4-18.33,2.72-21.9-7.45-7.59-7.45-7.59Z"/><path class="q" d="M258.06,769.83c-11.27-25-37.57-54-49.84-29.49h0c-14.52,14.52-17.57,16.53-17.92,35.8-1.07,59.63,21.56,209.78,86.86,226.63,35,9,94.69,16.78,134,15.43,15.86-.54,33.36,5.63,39.58,1,21.64-16.23-2.64-34.57-2.64-34.57S312.22,944.22,298.39,940c-22.91-7-32.43-152.63-40.33-170.17"/><path class="z" d="M456.44,961.61a51.79,51.79,0,0,0-8.21,21.69c-1.52,12.43,1.31,18.91,1.31,18.91,32.79,2.63,98.64.16,98.51.14-2.21-.34,3.07-5.06-4-8.69-5.07-2.61-21.79-3.45-27.66-7.35-26.08-17.34-43.62-13.94-60-24.7"/><path class="aa" d="M469.62,848H705c9.08,0,18.5,7.65,16.5,16.5l-35.17,155.54c-2,8.85-7.42,16.5-16.5,16.5H434.46c-9.08,0-18.51-7.65-16.51-16.5l35.17-155.54c2-8.86,7.43-16.5,16.5-16.5"/><path class="p" d="M480.17,848H715.51c9.08,0,18.5,7.65,16.5,16.5l-35.17,155.54c-2,8.85-7.42,16.5-16.5,16.5H445c-9.07,0-18.5-7.65-16.5-16.5l35.17-155.54c2-8.86,7.43-16.5,16.5-16.5"/><path class="t" d="M585.22,926.86c7.12,2.28,10.66,11,7.91,19.59s-10.73,13.6-17.84,11.31-10.65-11.06-7.91-19.59,10.73-13.6,17.84-11.31"/><path class="aa" d="M281.62,1018.2H420.44l13.18,18.38H272.43v-9.19a9.22,9.22,0,0,1,9.19-9.19"/><path class="d" d="M315.7,584.66c-6.73,12.68-3.8,35.22-.6,41.92,4.59,9.58,1.21,13.42-2.79,12-8.88-3-11.55-6.92-18.19-10.1-1.57-.74-4.76-1.32-5.84-.14-4.42,4.88,5.28,18.61,11.21,22.29-29,3.42-67.05-45.86-43.15-76.15-13.61-94.48,113.1-93.21,160.09-39.68,8.11,9.24,9.24,28.29,4.35,35.73-22.28,33.87-79.17-1.17-99.66,8.85a11.9,11.9,0,0,0-5.42,5.23"/><path class="ab" d="M81.14,1036.58H1745.29a8,8,0,1,1,0,16.05H81.14a8,8,0,1,1,0-16.05"/><path class="s" d="M1418.14,732.71c-53,50.89-87.54,208.24-154.9,229.46,0,0-6.26,15.77-3,29.91s9.51,19.48,9.51,19.48,56.68,5.16,104.29-4.81c26.78-5.61,30.74-40.87,40.89-45,28.21-11.36,43.15-125.45,43.15-125.45Z"/><path class="ac" d="M1259.29,983c0,3-1,.52.94,9.1s9.5,19.48,9.5,19.48,56.69,5.15,104.29-4.81c26.78-5.61,39.2-27.16,49.35-31.25,12.26-4.93,5.87-101.69,15-112.19l1.34-6-19.5-61.58s-29,148.52-86.85,166.42-60.59,17.7-74.08,20.79"/><path class="d" d="M1451.71,541.24C1465.38,641,1398.36,671.76,1464,764c0,0,40.2-44.24,57.41-47.37s19.5-57.25,19.5-60-15.31-110.68-15.31-110.68Z"/><path class="s" d="M1492.06,699.61h102.23c51.39,0,98.24,35.56,106.74,85,17,94.59-16.48,243.27-17.33,252H1416.1l-1.19-151.31,3.23-152.55c15.85-17.73,48.45-33.1,73.92-33.1"/><path class="p" d="M1564,699.61c-16.64,46.38-38.43,15.3-59.64,0-4.11,0-10.83-.27-17.56.21-59.63,199.21-15.68,199.21-9.3,301.37l58.34,29.3c13-7.91,30.87-15.06,43.88-23,2-103.93-40-104.74,14.53-307.91Z"/><path class="q" d="M1467.3,588.79a77.56,77.56,0,0,1-3.82,28.36c-8.17,23.45,9.73,63.79,41,61.11l-.12,21.35h.49c-7.76,26.07,7.53,50.8,19.47,51.3,10.59.45,38.23-16.43,39.68-51.3l-3.11-34.86c1.55-.48,4.71-7.15,7.86-9.07s6.6-10,5.33-17.27-7.73-22.53-7.73-22.53c8.8-21.64,16.37-20.16-6.3-32.19s-68.39-11.12-68.39-11.12L1468,579.66Z"/><path class="ad" d="M1504.52,678.3l-.11,21.1a80.26,80.26,0,0,0,21.66-6.81,40,40,0,0,0,20.75-22.2c-12.65,4.84-24.34,7.57-37.94,7.81Z"/><path class="y" d="M1353,917.62s-32.37-.3-42.84,3.66-14.25,9.44-14.25,9.44l-10.7,2.67s-2,8,0,8,58.83,5.35,58.83,5.35l12.11-1.56s-4-18.12-2.69-21.65,7.36-7.5,7.36-7.5Z"/><path class="ae" d="M1611.43,762.72c11.14-24.73,44.31-38.16,63.49-19h0c14.36,14.35,17.38,16.33,17.72,35.39,1,58.94-23,225-89,234.88-36.17,5.45-95.16,11.23-134,9.89-15.68-.54-28.33.08-34.48-4.54-21.39-16,9.16-40.45,9.16-40.45s116.91-42,130.58-46.14c22.65-6.9,28.7-152.72,36.5-170.06"/><path class="af" d="M1687.63,759c35.92,52.45-19.8,245.92-84,255-36.21,5.13-95.16,11.21-134,9.88-15.68-.54-28.33.08-34.48-4.54,0,0,115.47-14.78,170.29-30.6,49.48-14.27,83.82-172,82.15-229.77"/><path class="z" d="M1410.94,962.48a51.1,51.1,0,0,1,8.12,21.44c1.5,12.29-1.3,18.69-1.3,18.69-32.41,2.61-97.51.16-97.38.14,2.19-.33-3-5,3.94-8.58,5-2.58,21.54-3.42,27.35-7.28,25.78-17.13,43.12-13.77,59.27-24.41"/><path class="aa" d="M1397.91,850.21H1165.27c-9,0-18.29,7.56-16.31,16.31l34.76,153.76c2,8.75,7.34,16.31,16.31,16.31h232.64c9,0,18.29-7.56,16.32-16.31l-34.77-153.76c-2-8.75-7.34-16.31-16.31-16.31"/><path class="p" d="M1387.48,850.21H1154.84c-9,0-18.29,7.56-16.31,16.31l34.76,153.76c2,8.75,7.34,16.31,16.31,16.31h232.64c9,0,18.3-7.56,16.32-16.31l-34.77-153.76c-2-8.75-7.34-16.31-16.31-16.31"/><path class="t" d="M1283.63,928.12c-7,2.26-10.53,10.94-7.82,19.37s10.61,13.45,17.64,11.19,10.53-10.94,7.82-19.37-10.61-13.45-17.64-11.19"/><path class="aa" d="M1559.37,1021.36H1441.23v15.23H1567V1029a7.64,7.64,0,0,0-7.61-7.62"/><path class="ag" d="M596.64,977.06h91.44a29.76,29.76,0,0,1,0,59.52H596.64a29.76,29.76,0,0,1,0-59.52"/><path class="j" d="M677.08,1027.45H883.75c-13.37-4.29-20.06-30.39,0-41.67H677.08c-7.47,0-13.6,9.39-13.6,20.84s6.13,20.83,13.6,20.83"/><path class="ah" d="M890.72,1036.58H676.33c-10.75,0-22.13-13.66-22.13-30.14s11.38-29.79,22.13-29.79H890.72l-.1,9-213.54.15c-7.47,0-13.6,9.39-13.6,20.84s6.13,20.83,13.6,20.83l213.54-.15Z"/><path class="ai" d="M708.52,1007.23h24.2c9.28,3.52,6.6,17.46,12.11,26.58l-14.29-7.53-10.37,7c-8-8.27-3.44-22.39-11.65-26.1"/><path class="ag" d="M884.2,941.15H795.73a18.4,18.4,0,0,0-18.34,18.34h0a18.41,18.41,0,0,0,18.34,18.35H884.2a18.4,18.4,0,0,0,18.34-18.35h0a18.4,18.4,0,0,0-18.34-18.34"/><path class="j" d="M811.19,972.21H639.85c6.69-2.75,12.07-16.25,0-25.68H811.19c6.19,0,11.27,5.78,11.27,12.84s-5.08,12.84-11.27,12.84"/><path class="ah" d="M634.07,977.84H811.81c8.91,0,18.35-8.43,18.34-18.58s-9.43-18.36-18.34-18.36H634.07l.08,5.53,177,.1c6.19,0,11.27,5.78,11.27,12.84s-5.08,12.84-11.27,12.84l-177-.1Z"/><path class="aj" d="M1142.33,947.3c0,49.11-6.69,89.28-14.87,89.28h-50.89c-8.17,0-14.86-40.17-14.86-89.28Z"/><path class="ak" d="M1142,966.88c-1.49,39.77-7.44,69.7-14.49,69.7h-50.9c-8.12,0-14.77-39.66-14.86-88.33l.46-.68s8.31,55.1,22.38,63.66,25.7,6.73,40.69-15.91c6.4-9.67,12.19-19.9,16.72-28.44"/><path class="al" d="M1081.19,947.3c3-38,23.51-117.21,56.35-119,28.59,20.84-3.29,93.37-12.66,119Z"/><rect class="am" x="1064.68" y="896.64" width="103.38" height="1.43" transform="translate(-38.58 1744.48) rotate(-75.05)"/><polygon class="am" points="1093.49 926.55 1105.77 934.3 1111.04 914.55 1125.21 906.83 1125.89 908.08 1112.26 915.51 1106.64 936.54 1092.73 927.76 1093.49 926.55"/><polygon class="am" points="1102.28 893.75 1114.55 901.51 1119.83 881.76 1134 874.03 1134.68 875.28 1121.05 882.71 1115.43 903.75 1101.52 894.96 1102.28 893.75"/><polygon class="am" points="1107.74 873.37 1120.02 881.12 1125.29 861.37 1139.46 853.64 1140.14 854.89 1126.51 862.33 1120.9 883.36 1106.98 874.57 1107.74 873.37"/><path class="al" d="M1102.3,946.83c-2-24.59-15.22-75.82-36.45-77-18.5,13.49,2.13,60.4,8.19,77Z"/><rect class="am" x="1079.08" y="881.09" width="0.92" height="66.88" transform="translate(-199.39 309.46) rotate(-14.95)"/><polygon class="am" points="1094.34 933.41 1086.4 938.43 1082.99 925.65 1073.82 920.65 1073.38 921.47 1082.2 926.27 1085.83 939.88 1094.83 934.19 1094.34 933.41"/><polygon class="am" points="1088.65 912.2 1080.71 917.21 1077.3 904.44 1068.14 899.44 1067.7 900.25 1076.51 905.05 1080.14 918.66 1089.14 912.98 1088.65 912.2"/><polygon class="am" points="1085.12 899.01 1077.18 904.02 1073.77 891.25 1064.6 886.25 1064.16 887.06 1072.98 891.87 1076.61 905.47 1085.61 899.79 1085.12 899.01"/><rect class="an" x="1062.17" y="947.57" width="80.13" height="4.65"/><path class="v" d="M270.28,754.62c-10.55-23.43-39.87-37.24-60.37-25.09-7,4.13-15.78,13.2-18.8,24.32-14.56,53.72,19.14,182.57,32.17,214.84,33.78-30.09,66.53-36.31,74.13-38.09-13.14-45.66-20.75-161.83-27.13-176"/><path class="ao" d="M192.32,751c-23.71,52.33,13.62,174.7,31,217.68A185.76,185.76,0,0,1,242.14,954C216.87,898.54,194,795.83,192.32,751"/><path class="i" d="M297.41,930.6s-.49,3.22-1.86,4.34-2.11,1.68-2.11,1.68l-2.24-4.56Z"/><path class="p" d="M345.13,802.29a5,5,0,1,0,4.46,5,4.74,4.74,0,0,0-4.46-5m0-28.91a5,5,0,1,0,4.46,5A4.75,4.75,0,0,0,345.13,773.38Zm16.76-75c9,25.38-5.86,44.38-19.68,53-21.43-15.55-40.7-30.69-40.7-59.93,0,0-7.4-.15-12.19,13-7.92,21.23,5.35,68.92,5.35,68.92s14.89-21.52,27.27-22.68,20.41,3,20.41,3c15.83-13,26.62,3.84,37.21,16.17,3.34-31.45,3.36-53.53-17.7-77.86C361.87,693.46,361.61,697.58,361.89,698.39Z"/><rect class="ap" x="392.12" y="833.8" width="47.65" height="11.57"/><path class="aq" d="M915.17,864.33a9.22,9.22,0,1,1-9.21,9.21,9.22,9.22,0,0,1,9.21-9.21"/><path class="ar" d="M949.29,864.33a9.22,9.22,0,1,1-9.22,9.21,9.21,9.21,0,0,1,9.22-9.21"/><path class="ar" d="M983.4,864.33a9.22,9.22,0,1,1-9.21,9.21,9.21,9.21,0,0,1,9.21-9.21"/><path class="as" d="M1470.43,316.56H1567a1.42,1.42,0,0,1,1.41,1.42v4.11a1.41,1.41,0,0,1-1.41,1.41h-96.58a1.41,1.41,0,0,1-1.41-1.41V318a1.42,1.42,0,0,1,1.41-1.42"/><path class="at" d="M1470.43,348.93h219.1a1.42,1.42,0,0,1,1.42,1.41v4.11a1.42,1.42,0,0,1-1.42,1.41h-219.1a1.41,1.41,0,0,1-1.41-1.41v-4.11a1.41,1.41,0,0,1,1.41-1.41"/><path class="at" d="M1470.43,381.29h219.1a1.42,1.42,0,0,1,1.42,1.41v4.12a1.42,1.42,0,0,1-1.42,1.41h-219.1a1.41,1.41,0,0,1-1.41-1.41V382.7a1.41,1.41,0,0,1,1.41-1.41"/><path class="at" d="M1470.43,413.66h219.1a1.42,1.42,0,0,1,1.42,1.41v4.11a1.42,1.42,0,0,1-1.42,1.41h-219.1a1.41,1.41,0,0,1-1.41-1.41v-4.11a1.41,1.41,0,0,1,1.41-1.41"/><path class="at" d="M1470.43,446h219.1a1.42,1.42,0,0,1,1.42,1.41v4.12a1.42,1.42,0,0,1-1.42,1.41h-219.1a1.41,1.41,0,0,1-1.41-1.41v-4.12a1.41,1.41,0,0,1,1.41-1.41"/><path class="o" d="M990,630.48h216.62a5.58,5.58,0,0,1,5.57,5.57h0a5.59,5.59,0,0,1-5.57,5.57H990a5.59,5.59,0,0,1-5.57-5.57h0a5.58,5.58,0,0,1,5.57-5.57"/><path class="d" d="M1529.26,579.36s-54.44,14.25-85.11-4.33c-20.12-13.95-22.39-42.2,7.09-63,38-26.83,110.84-18.93,138.79,23.84,9.76,14.93,19.51,40.87,31.08,67.32,26.92,61.48,99,23.07,119.56,126.25.95,4.78-16.19-6-31.36-9.88,14.55,33.86-4.76,59-8.52,63.72-16.37-74.73-84.47-77.64-136.75-83.63-7.76-7.17-8.83-27.38-8.9-37.47,0,0,15.75-11.07,15-23.93s-4.4-12.53-5.87-12.22-9.89,5.21-9.89,5.21c-3-16.7-2.31-50-25.09-51.84"/><path class="p" d="M1557.45,648.14a6,6,0,1,1-6,6,6,6,0,0,1,6-6"/><path class="au" d="M1237.37,101h0a4.21,4.21,0,0,1,4.2,4.2v36.75a4.21,4.21,0,0,1-4.2,4.2h0a4.21,4.21,0,0,1-4.21-4.2V105.18a4.21,4.21,0,0,1,4.21-4.2"/><path class="au" d="M1260,123.55h0a4.22,4.22,0,0,1-4.21,4.21H1219a4.21,4.21,0,0,1-4.2-4.21h0a4.21,4.21,0,0,1,4.2-4.2h36.75a4.22,4.22,0,0,1,4.21,4.2"/><path class="au" d="M760.25,142.52h0a3.42,3.42,0,0,1,3.41,3.42v29.89a3.42,3.42,0,0,1-3.41,3.42h0a3.43,3.43,0,0,1-3.42-3.42V145.94a3.43,3.43,0,0,1,3.42-3.42"/><path class="au" d="M778.61,160.88h0a3.42,3.42,0,0,1-3.42,3.41H745.3a3.42,3.42,0,0,1-3.42-3.41h0a3.43,3.43,0,0,1,3.42-3.42h29.89a3.43,3.43,0,0,1,3.42,3.42"/><path class="av" d="M924.14,9.21a10.84,10.84,0,0,0-15.31,0h0a10.83,10.83,0,0,0,0,15.3h0A10.83,10.83,0,0,0,924.15,9.21ZM916.49,0a16.82,16.82,0,0,1,11.92,4.94h0a16.85,16.85,0,1,1-23.83,23.83h0a16.84,16.84,0,0,1,0-23.83h0A16.81,16.81,0,0,1,916.49,0Z"/><path class="av" d="M1073.85,201.44a9.26,9.26,0,0,0-13.06,0h0a9.25,9.25,0,0,0,0,13.07h0a9.25,9.25,0,0,0,13.07-13.08Zm-6.53-7.85a14.39,14.39,0,0,1,10.18,4.21h0a14.38,14.38,0,1,1-20.34,20.33h0a14.36,14.36,0,0,1,0-20.34h0A14.36,14.36,0,0,1,1067.32,193.59Z"/><path class="av" d="M1447.65,135.2a9.25,9.25,0,0,0-13.07,0h0a9.26,9.26,0,0,0,0,13.06h0a9.25,9.25,0,0,0,13.08-13.07Zm-6.54-7.86a14.32,14.32,0,0,1,10.18,4.22h0a14.38,14.38,0,1,1-20.34,20.34h0a14.35,14.35,0,0,1,0-20.33h0A14.32,14.32,0,0,1,1441.11,127.34Z"/><path class="av" d="M593.25,121.5a9.25,9.25,0,0,0-13.07,0h0a9.26,9.26,0,0,0,0,13.06h0a9.25,9.25,0,0,0,13.08-13.07Zm-6.54-7.86a14.37,14.37,0,0,1,10.18,4.21h0a14.38,14.38,0,1,1-20.33,20.34h0a14.39,14.39,0,0,1,0-20.34h0A14.36,14.36,0,0,1,586.71,113.64Z"/><path class="au" d="M1563.39,219.82h0a3,3,0,0,1,3,3v26.11a3,3,0,0,1-3,3h0a3,3,0,0,1-3-3V222.81a3,3,0,0,1,3-3"/><path class="au" d="M1579.42,235.86h0a3,3,0,0,1-3,3h-26.11a3,3,0,0,1-3-3h0a3,3,0,0,1,3-3h26.11a3,3,0,0,1,3,3"/><path class="au" d="M504.08,217.57h0a2.61,2.61,0,0,1,2.6,2.6V242.9a2.61,2.61,0,0,1-2.6,2.6h0a2.61,2.61,0,0,1-2.6-2.6V220.17a2.61,2.61,0,0,1,2.6-2.6"/><path class="au" d="M518,231.53h0a2.61,2.61,0,0,1-2.6,2.6H492.71a2.61,2.61,0,0,1-2.6-2.6h0a2.6,2.6,0,0,1,2.6-2.59h22.73a2.6,2.6,0,0,1,2.6,2.59"/></svg>